<!DOCTYPE svg PUBLIC "-//W3C//DTD SVG 1.1//EN" "http://www.w3.org/Graphics/SVG/1.1/DTD/svg11.dtd"><svg id="drawception" xmlns="http://www.w3.org/2000/svg" stroke-linejoin="round" stroke-linecap="round" data-time="0" width="600" height="500" viewBox="0 0 353 294"><rect width="100%" height="100%" fill="#0c442c"/><path fill="none" stroke="#34900b" stroke-width="8" d="M184 61s-3-1 -5-1s-16 0 -19 0s-5 1 -7 4s-2 7 -3 12s-2 12 -2 18s0 15 0 17s0 5 1 7s3 4 5 5s8 3 12 4s7 2 11 2s14 0 20-1s14-6 17-7s5-3 7-5s5-4 6-6s2-5 2-8s0-22 0-26s-2-7 -3-10s-2-4 -4-6s-3-4 -5-4s-18-3 -26-4s-17 0 -19 0s-4 0 -6 1s-5 8 -5 9s0 3 0 4M162 67s-3-1 -4 0s-1 5 -2 7s-1 3 -1 5s-1 14 0 20s3 10 4 14s5 9 5 9s-1-8 -1-13s-1-28 0-33s6-13 6-13s1 6 1 9s0 37 0 41s5 11 5 11s3-1 3-2s0-50 0-52s2-7 2-8s3-2 3-1s0 55 0 57s1 5 3 6s6-1 7-1s2-1 2-2s2-5 2-7s-1-48 -1-48s5 3 5 5s0 36 0 38s1 5 2 6s3 1 4 0s2-3 2-4s0-50 0-50s5 0 6 2s1 7 1 10s0 33 0 33s3 2 4 2s2 1 3 0s2-4 2-7s1-12 0-18s-4-15 -4-15s-1 4 -1 6s0 30 0 30s-1 0 -1 0s1-6 0-10s-2-11 -3-13s-2-4 -3-6s-3-3 -5-4s-7-3 -9-4s-4-1 -6-1s-25-1 -25-1s7-3 11-3s22 0 24 0s3 0 5 1s5 4 5 4s1 2 0 2s-50 0 -50 0s21-8 26-9s8-2 13-2s15 0 15 0s-1 3 -2 4s-6 1 -11 1s-11 1 -17 0s-17-4 -17-4s5-1 8-1s31 0 33 0s4 1 6 2s3 1 4 3s2 5 2 7s1 3 0 4s-2 2 -3 3s-14 8 -16 9s-3 3 -5 5s-16 12 -16 12s-1-3 -1-4s2-5 3-7s19-27 19-27s-1 5 -2 8s-7 13 -10 19s-8 20 -8 20s-1-3 -1-5s0-22 0-25s2-6 3-9s4-9 6-10s5-2 6-1s3 5 3 7s0 31 0 33s-1 4 -2 7s-6 13 -6 13s4 1 6 0s11-5 15-10s12-19 12-19s3 6 1 9s-12 10 -14 12s-4 3 -7 4s-5 2 -8 2s-19 2 -19 2s1-7 3-10s5-4 7-7s7-15 8-17s2-4 2-7s0-18 0-18s-1 3 -1 5s0 23 0 25s0 4 -1 7s-4 7 -5 9s-2 3 -4 4s-5 3 -6 2s-1-6 -1-8s0-32 0-34s1-8 1-8s4-2 5-2s2 3 2 4s1 36 1 38s-1 4 -2 6s-6 10 -6 10s-3 0 -3-1s-2-9 -2-14s0-15 0-17s0-5 1-7s3-4 5-6s7-4 8-5s4-1 4 0s-3 5 -5 7s-20 13 -24 16s-9 7 -10 9s-2 4 -2 6s-1 3 0 4s3 4 4 5s3 2 5 2s11 1 11 1s-12 0 -13 0s-3-2 -3-3s0-7 0-9M177 127s1 3 1 5s0 24 0 24s0-30 0-36M201 123s0 32 0 32s-6 3 -10 3s-12 0 -12 0s-2-3 -2-5s0-7 1-11s7-20 7-20s3 5 3 8s1 23 1 23s6-35 6-35s7 5 8 7s2 3 2 5s0 12 0 13s0 3 -1 4s-4 4 -6 5s-6 3 -7 2s-1-3 -1-5s0-21 0-24s2-9 2-9s2 1 2 2s1 14 0 19s-3 9 -4 11s-2 3 -3 4s-3 1 -4 1s-1-1 -1-2s-1-11 0-16s4-9 6-12s8-7 8-7s3 6 3 8s1 5 0 7s-5 17 -6 18s-2 3 -3 4s-4 1 -4 0s-2-7 -2-12s-1-14 0-18s3-8 4-10s4-2 5-3"></path><path fill="none" stroke="#fcf4c4" stroke-width="8" d="M177 134s2 4 2 6s0 11 0 12s2 5 2 4s-1-10 -2-13s-3-8 -3-8s14 0 19 0s11-3 11-3s1 1 1 1s0 19 0 19s-5 3 -8 4s-5 0 -8 0s-11 2 -11 2s-3-5 -3-6s0-2 0-3s4-8 4-8s1-1 1-1s2-1 3 0s4 5 5 6s3 2 4 3s3 1 5 1s6-1 6-1s-1-1 -2-2s-3-1 -4-1s-9 0 -10 0s-2 1 -2 1s5 3 7 3s6 0 7 0s2-2 2-3s0-3 0-4s-1-2 -2-2s-4-1 -6 0s-5 4 -6 5s-2 2 -2 4s-1 9 -1 11M181 153s-25 1 -28 2s-6 2 -7 5s0 12 0 15s1 5 2 8s6 11 7 13M205 148s3-3 5-3s21 0 24 0s6 1 8 3s3 4 4 8s1 12 1 14s0 4 -1 6s-4 10 -5 12M165 180s-1 4 -3 6s-5 4 -7 7s-4 6 -6 10s-4 10 -4 12s-1 4 0 6s3 3 5 4s11 1 15 1s6-1 9-3s7-6 8-7s3-3 3-4M190 207s-1 7 1 9s8 5 10 6s3 1 5 1s13 1 18 1s10-1 12-2s4-3 5-5s3-5 4-8s3-11 1-15s-7-7 -10-11s-7-12 -9-15M167 228s10 10 11 11s3 3 3 5s0 4 0 6s0 4 -1 6s-7 10 -10 15s-6 10 -7 14s0 9 0 11M235 219s-2 19 -2 20s2 3 3 4s15 12 16 13s2 3 3 5s2 6 2 9s0 19 0 23M160 160s-4 5 -3 7s15 19 16 21s6 5 5 4s-11-15 -14-19s-9-10 -9-10s-2 0 -2 0s0 17 0 20s1 6 3 9s7 9 10 13s10 9 10 9s1-4 0-6s-13-25 -15-29s-3-10 -3-12s0-6 0-5s7 20 8 24s2 9 2 12s2 6 0 9s-10 7 -10 7s0-4 0-6s1-5 2-8s7-18 9-23s3-14 3-14s0 4 -1 6s-4 7 -5 11s-12 34 -12 34s0-9 0-15s3-22 3-24s0-4 1-7s4-12 4-12s2 8 3 12s1 10 1 15s0 35 0 35s3-2 4-3s2-3 2-4s3-9 3-13s0-47 0-47s5-2 6-1s2 3 2 5s1 5 1 7s1 10 0 17s-8 22 -9 25s-1 8 0 10s5 4 6 4s2 0 2 0s2-8 2-12s0-29 0-35s4-14 4-15s1-3 2-4s4 0 4 1s-1 53 -1 56s0 6 1 10s3 10 4 12s4 5 4 4s0-52 0-59s1-18 1-21s3-7 3-7s1 0 1 0s0 61 0 68s-2 20 -2 20s0-12 1-21s4-21 6-31s4-31 4-31s3-1 4-1s4 2 5 4s1 6 1 9s1 15 -1 26s-10 37 -10 38s0 5 0 4s-1-5 0-8s5-13 6-16s2-6 2-9s0-19 0-21s0-5 -1-7s-6-16 -6-18s0-4 0-5s1-2 2-2s5-1 7 0s4 2 5 4s3 5 3 7s2 20 0 30s-11 30 -11 30s4-4 5-7s4-11 5-16s2-8 2-12s0-31 0-31s2 3 3 5s1 5 1 7s0 28 0 32s-3 7 -4 10s-4 5 -4 6s3 1 4 0s2-2 2-4s0-8 0-11s-1-4 -3-6s-9-7 -13-9s-13-5 -13-5s15 40 15 40s1-1 1-1s1-6 0-8s-8-23 -9-27s-1-9 -2-12s-2-5 -3-8s-2-13 -2-13s4 1 5 3s3 6 5 9s4 7 5 12s4 16 5 24s0 21 0 23s-1 4 -2 5s-3 1 -3 0s-3-12 -4-18s-1-10 -2-16s-3-24 -3-28s0-11 0-11s4 13 5 20s2 40 2 47s-4 17 -5 19s-5 6 -5 6s-2 0 -2 0s-1-89 -1-89s-2 20 -2 26s0 11 0 16s4 51 4 51s-2-8 -3-12s-13-29 -17-44s-9-46 -9-46s0 36 0 41s0 9 2 15s6 16 9 22s9 14 9 14s-7-15 -10-25s-14-51 -14-51s0 29 1 36s4 11 7 17s12 18 13 19s3 3 4 3s3-2 3-3s-1-7 -2-12s-4-11 -6-17s-6-14 -8-18s-4-8 -6-10s-3-5 -4-6s-2-2 -3-2s-5-1 -7-1s-6 2 -6 2s4 0 5 0s20-5 23-6s7-1 8 0s2 3 1 4s-4 1 -6 1s-15 0 -17 0s-3 0 -5-1s-8-5 -9-6s0-2 0-3s1-1 2-1s33 0 35 0s6 3 6 3s1 1 1 1s0 2 0 3s-1 1 -2 1s-7 1 -11 0s-25-7 -25-7s0 48 0 50s-3 3 -5 4s-8 4 -8 4s5 4 8 5s6 2 9 2s22 1 22 1s-19 1 -22 1s-9-3 -9-3s10 4 14 8s19 21 22 24s5 9 6 11s2 5 1 5s-4-5 -6-8s-7-16 -11-23s-13-18 -13-18s-2-1 -2-1s3 9 5 14s9 17 12 24s3 15 4 19s0 10 0 10s-4 2 -5 2s-2 1 -2 0s0-38 0-40s0-5 1-8s6-8 6-8s2 2 2 3s0 5 0 8s-1 5 -2 8s-3 6 -5 9s-21 27 -21 27s6-10 9-17s10-26 12-30s3-8 4-12s3-14 3-14s0 6 -1 9s-2 8 -3 12s-10 27 -12 33s-5 11 -7 15s-6 9 -6 10s-1 3 0 3s4 1 6 0s7-6 9-10s9-23 10-28s2-9 2-13s2-24 2-36s0-38 0-38s6 23 8 33s2 19 2 26s1 12 0 18s-1 13 -3 19s-5 12 -7 16s-3 7 -5 10s-7 8 -8 9s-3 3 -3 2s2-7 4-10s5-5 7-9s8-17 10-24s2-13 2-19s0-67 0-67s2 12 3 19s2 17 2 25s3 79 3 79s-1-21 0-34s6-61 6-64s0-9 0-9s-2 18 -2 30s0 49 0 51s1 5 2 8s3 10 3 10s5 2 6 1s1-12 0-17s-11-64 -11-64s6 32 9 45s11 35 11 35s0-7 -1-12s-4-10 -6-17s-7-26 -8-31s-2-11 -2-15s0-11 0-11s4 7 5 10s9 41 10 46s4 14 4 14s-1-10 -3-16s-7-21 -9-27s-4-16 -4-16s0 10 1 15s3 10 5 14s3 6 5 9s6 13 8 19s5 15 5 15s0-9 0-14s-2-17 -2-18s-2-2 -2-2s0 3 0 5s2 3 2 5s3 12 3 17s0 16 0 16s-2-5 -2-8s0-14 0-16s-1-4 -2-5s-16-27 -16-27s3-3 4-2s9 8 10 9s2 2 3 4s2 4 2 6s1 36 1 36s-2-7 -2-9s0-3 0-5s-3-11 -4-13s-2-4 -3-6s-1-3 -3-5s-4-3 -6-4s-4 0 -5 0s-2 2 -2 3s-3 42 -3 42s0-50 0-50s-1 11 -2 15s-2 6 -3 10s-7 21 -8 22s-3 5 -3 4s-1-10 0-17s8-26 8-26s0 6 0 9s-1 5 -2 8s-7 16 -8 17s-2 3 -3 4s-6 5 -6 5s-1 0 -1 0s-1-8 0-11s15-26 15-26s-28 19 -28 19s2-5 2-6"></path><path fill="none" stroke="#fcf4c4" stroke-width="25" d="M207 228s-4 6 -5 9s1 4 0 7s-3 7 -5 11s-5 9 -9 13s-11 13 -12 14s-1 4 0 5s3 3 5 3s5 0 7 0s2-2 3-3s3-4 4-7s4-13 5-16s1-6 1-9s1-10 0-17s-3-19 -4-24s-3-9 -5-12s-4-7 -5-6s0 8 0 12s2 7 3 11s7 22 8 24s5 7 5 6s1-13 0-20s-5-38 -5-44s0-14 0-17s2-8 2-8s4-1 6 0s4 5 5 8s3 8 4 13s4 12 5 21s1 30 1 36M233 193s4 1 5 3s1 5 -1 7s-10 8 -12 9M184 191s-8 3 -9 3s-3 0 -4 0s-2 1 -3 2s-3 2 -4 4s-4 6 -5 8s0 5 0 6s2 1 3 1s7 0 9 0s4-1 5-3s2-4 3-6s2-9 2-13s0-9 0-9s-3-1 -4-1s-3 0 -4 1s-2 2 -3 3s-4 7 -5 10s0 7 0 8M229 156s-3 7 -3 8s0 3 0 3M238 261s4 2 4 3s3 19 3 19s1-6 0-9s-16-24 -16-24s0-2 0-2s4 0 6 1s4 3 5 4s3 2 4 4s4 5 5 8s1 15 1 17s-2 4 -4 5s-5 3 -6 4"></path><path fill="none" stroke="#f7b307" stroke-width="4" d="M160 159s2 3 2 4s0 10 -1 13s-5 6 -6 7s-3 1 -4 3s-3 6 -4 7M225 154s1 5 2 7s2 5 4 7s11 11 13 13M168 153s6 0 9 1s8 3 9 3M194 156s3 5 4 5s4-3 5-4s0-2 0-3M210 148s12-4 14-5M176 134s3 4 6 5s10 4 12 4s4 0 6-2s5-7 6-8s2-4 1-4s-6 0 -9 0s-18 4 -18 4s17 0 20 0s8 1 8 1s-33 1 -33 1s18 0 21 0s8-2 8-2s-22-1 -22-1s3 2 5 3s3 1 5 1s11 0 11 0s-8 2 -13 2s-13 1 -16 0s-5-2 -7-4s-3-5 -4-6M246 249s-6 4 -7 5s0 3 -1 4s-7 8 -8 10M179 263s14 8 17 9M205 272s5 4 6 7s1 13 1 15"></path><path fill="none" stroke="#9bf23e" stroke-width="8" d="M154 215s-6-8 -6-8s1-1 2-2s3-2 5-2s15 0 18 1s4 6 5 8s1 5 0 7s-2 3 -4 4s-4 1 -6 1s-17 1 -20 0s-4-6 -5-7s-1-2 -1-4s0-6 0-8s1-3 2-4s2-1 3-1s11 0 13 0s4 1 5 2s6 6 8 9s2 8 2 8s-4 4 -7 5s-5 2 -8 2s-10 0 -12-1s-3-3 -4-5s-3-8 -4-11s-1-7 0-9s2-4 4-5s12 0 14 0s3 2 5 3s5 3 7 6s5 9 5 10s1 2 0 3s-3 1 -4 1s-14 0 -15 0s-3-1 -4-2s-2-1 -3-2s-2-3 -2-4s-1-3 0-3s17 0 19 0s4 0 6 1s3 2 4 3s2 4 2 5s1 3 0 3s-5 2 -8 2s-12 0 -13 0s-3 0 -4-1s-2-1 -3-2s-2-3 -2-5s-1-3 0-4s5-2 7-2s17 0 19 0s3 3 4 5s0 5 0 7s-2 2 -3 3s-12 4 -14 4s-5 1 -6 0s-2-9 -2-9s4-3 6-4s3-1 5-1s11 0 12 0s2 2 2 3s1 3 0 3s-4 1 -6 1s-2 0 -4 0s-5-1 -6-2s-1-4 0-4s10 0 11 0s2 0 2 1s2 3 2 4s-2 1 -2 1M221 214s-1-3 0-4s4-5 6-8s6-5 8-7s4-2 7-3s9 0 10 0s2 1 3 2s1 1 1 2s2 8 0 12s-9 10 -12 12s-5 3 -8 3s-11-1 -13-1s-4-1 -5-2s-3-3 -3-5s0-4 1-5s3-2 5-3s22-7 24-8s7 0 7 0s-4 1 -6 3s-9 9 -11 11s-5 3 -6 3s-2 0 -2-1s0-2 0-4s2-3 3-5s3-4 5-5s7-4 11-5s11 0 11 0s-2 6 -4 8s-6 4 -10 6s-12 5 -12 5s1-4 3-6s6-7 8-8s4-2 5-3s4 0 4 0s0 1 0 2s-2 3 -3 4s-7 6 -11 8s-11 3 -12 3s-4 1 -4 0s5-5 7-6s4-1 7-2s13-6 13-6s0 5 -1 6s-10 8 -14 10s-12 5 -12 5s-1-5 0-7s3-4 6-6s10-7 12-9M224 210s-4 2 -6 3s-12 2 -16 2s-10 0 -10 0s1 1 2 1s19 0 23 0s9-2 11-3s5-3 5-3s0-1 0-1s-2 0 -3 0s-6 3 -8 4s-4 1 -6 1s-26 3 -29 3s-10 0 -10 0s16 2 22 2s17 0 17 0s-34 3 -41 3M153 148s6 8 8 11s3 7 4 8M234 140s-2 6 -2 9s0 7 0 8M170 253s3 4 5 6s7 5 12 7s16 5 21 5s9-3 12-4s5-2 8-4s6-4 8-7s7-9 7-9s-17 18 -19 20s-4 6 -5 8s0 5 -1 7s-3 7 -3 7s-2-1 -2-2s0-8 -2-11s-10-4 -10-4s6 1 7 1s2 2 2 2s-1 1 -1 1s-7 0 -9 0"></path><path fill="none" stroke="#34900b" stroke-width="8" d="M164 66s-3 2 -4 4s0 4 0 6s0 5 1 7s4 12 7 16s7 7 10 9s5 3 7 4s4 1 5 1M182 59s-5-3 -8-4s-13-1 -16 0s-4 4 -6 7s-5 9 -6 12s-2 5 -2 8s0 18 0 18s10-24 11-28s2-12 2-12s-4 3 -5 6s-4 8 -6 14s-6 19 -8 27s-1 19 -1 19s0-9 1-13s7-29 8-33s3-11 4-12s3-3 3-3s0 3 0 4s-8 25 -11 35s-9 23 -9 23s4 3 5 4s3 1 4 1s17 1 18 1s2 1 2 1s-1 1 -2 1s-15 0 -15 0s10-1 14-1s9 3 9 3s-8 0 -10 0s-3-1 -5-2s-5-2 -7-4s-4-4 -4-5s3-1 3-2s-3-13 -3-17s0-7 0-10s2-6 3-7s3 2 3 3s0 22 0 25s0 7 3 9s13 4 15 5M168 119s-3 6 -4 8s-4 3 -5 3s-1-3 -1-4s-1-9 1-14s8-11 9-13M222 65s3 1 4 2s3 5 4 7s13 42 13 42s1-9 0-14s-3-11 -6-16s-10-14 -10-14s0 6 1 10s5 10 8 17s9 23 9 23s-7 2 -9 2s-3 0 -5 0s-3 2 -4 2s-12 3 -12 3s6 1 10 0s13-6 13-6s-4 0 -7 0s-15 3 -15 3s4-3 6-5s14-18 14-18s3 3 3 5s1 4 0 6s-2 5 -4 6s-12 5 -14 6s-5 2 -5 1s7-5 10-8s6-5 7-7s3-5 3-5s1 4 0 6s-3 6 -4 7s-2 2 -3 2s-4 0 -5 0"></path><path fill="none" stroke="#0c442c" stroke-width="4" d="M165 67s-4 11 -7 19s-7 24 -8 27s-2 6 -2 8s0 5 0 6M151 118s15 7 17 8s3 3 4 4M169 63s9 6 13 8s8 3 12 3s8-3 11-4s5-3 6-4M211 63s8 11 12 18s8 20 10 24s5 8 6 10M237 112s-6 8 -10 11s-12 8 -14 9"></path><path fill="none" stroke="#34900b" stroke-width="8" d="M170 124s2 2 3 3s3 0 5 1s3 3 5 3s9 1 13 0s13-6 13-6s-11 4 -16 5s-15 0 -15 0s2 2 3 2s18 0 20 0s7-2 6-2s-10 3 -15 4s-11 1 -15 0s-6-3 -8-6s-1-12 -1-12s0 8 1 11s3 9 3 9s6 2 10 2s19 0 22 0s8-3 8-3s0-14 0-15s1-3 1-4"></path><path fill="none" stroke="#0c442c" stroke-width="8" d="M177 90s-5-3 -6-4s-4 0 -4 0s-1 1 -1 1s-1 4 0 6s2 3 4 4s8 1 9 1s3 0 3-1s0-11 0-11s-11-1 -11-1s-1 2 -1 3s-1 4 0 6s4 4 6 5s4 0 5 0s2 0 2-1s1-2 1-4s-1-8 -1-8s-3-2 -5-2s-4 1 -5 1s-1 1 -1 2s-1 7 0 8s4 0 5 0M219 86s-8-1 -8-1s-1 9 -1 10s0 2 1 2s2 1 3 1s10 1 10 1s1-7 1-8s-2-2 -3-3s-8-1 -8-1s0 7 0 8M218 92s-2 0 -3 0s0-2 -1-2s-2 0 -2 0"></path><path fill="none" stroke="#0c442c" stroke-width="4" d="M178 104s0 18 0 20s2 5 2 6s1 2 2 2s27 0 28 0s3 0 4-1s4-4 5-7s1-11 0-16s-3-11 -3-11s-11 0 -17 0s-17 2 -21 2M190 105s-2 3 -2 4s1 12 1 14M200 106s2 13 2 15M210 109s1 8 1 9s2 3 2 3"></path><path fill="none" stroke="#f7b307" stroke-width="4" d="M185 183s8 2 10 4s4 4 5 6s3 6 4 9s0 8 0 9M210 178s-4 10 -5 12"></path><path fill="none" stroke="#fff" stroke-width="8" d="M150 65s2-2 2-3s0-2 0-3s-3-6 -5-9s-18-24 -19-26s-2-4 -2-6s-1-5 0-5s14 0 15 0s3 0 4 1s4 6 6 9s3 6 4 11s2 19 2 19s-9-13 -13-19s-11-13 -12-14s-1-2 -1-3s2-1 3-1s4 1 6 3s6 6 8 10s6 12 7 16s1 11 1 11s0-2 0-3s-1-3 -2-5s-9-15 -10-18s-2-7 -2-9M227 55s2-6 1-9s-10-35 -10-36s0-3 1-3s8 0 11 1s4 5 5 7s2 5 2 8s0 20 0 22s-1 5 -2 7s-3 3 -4 4s-3 2 -3 1s0-15 0-20s-2-8 -3-12s-1-12 -1-12s6 7 7 12s1 20 1 21s-2 4 -2 3s0-7 0-8M166 257s-4-7 -6-9s-3-3 -5-4s-4-2 -5-2s-2 1 -2 2s0 6 1 8s3 3 4 4s4 1 3 1s-10 2 -10 2s-1 3 -1 4s2 2 3 2s4 1 5 1s3 0 4 0s3-1 3-2s1-4 0-6s-7-10 -7-10s6 5 7 7s3 4 2 5s-4 1 -6 1s-3-1 -4-1M163 254s3 10 3 10s-5 3 -6 4"></path><path fill="none" stroke="#fcf4c4" stroke-width="8" d="M138 17s6 6 8 10s4 10 6 14s7 12 7 12s-2 1 -3 0s-5-10 -9-15s-11-14 -13-17M221 12s2 1 3 2s1 1 1 2s2 6 3 9s1 4 1 7s0 10 0 14s-2 9 -2 11"></path><path fill="none" stroke="#cd7a14" stroke-width="1" d="M15 24s4 7 5 11s1 12 1 12s16 0 19 0M41 37s0 3 0 4s1 3 2 4s7 4 7 4s3-1 3-2s0-7 0-9M58 13s-1 7 0 10s6 21 7 25M69 28s-5 11 -5 11s5 2 7 3s4 3 5 4s3 4 4 5M85 41s10-4 10-4s-2-2 -4-3s-5-1 -6-1s-2 2 -2 3s0 4 0 6s1 3 2 4s8 2 10 2M34 75l0.01 0.01M52 75l0.01 0.01M72 77l0.01 0.01M22 105s2 15 2 16s0 3 1 4s3 3 3 4M6 102s18-1 18-1s-368 0 -368 0s3 1 3 1M34 103s-4-2 -6-2s-11 1 -13 1M10 126s15 1 15 1s-368 0 -368 0s6 0 7 0M40 126s-17 0 -20 0M53 99s-2 8 -3 9M64 115s1 10 1 10s1-6 2-8s3-3 5-3s4 0 5 1s1 7 2 7s2-5 3-6s3 0 4 0s2 1 2 2s2 5 2 6M27 148s0 9 0 9s1 1 2 1s5 0 6 0s2-1 2-2s0-7 1-6s6 18 7 21s0 7 0 8s-2 1 -2 1M54 150s-4 6 -4 7s1 2 1 2s1 1 2 1s5 2 6 1s1-3 1-5s0-4 -1-5s-3-1 -4-1M71 148s2 2 2 4s0 6 1 7s6 3 7 2s2-3 2-5s0-7 0-9M92 147s-1 3 0 5s4 8 4 8s2-3 2-4s-1-2 0-3s7-6 8-6s3 0 3 0M28 207s1 16 1 16s-2-10 -2-15s0-15 0-15s3-2 5-2s5 1 6 1M30 208s0-2 0-2s10 0 12 0M61 211s-10-2 -10-2s0 5 0 6s2 3 3 3s3 0 4-1s0-4 0-5s2-1 3 0s8 10 9 12M71 189s2 11 3 16s5 14 6 17M70 205s12 0 14 0M85 186s0 9 1 13s2 6 4 9s6 9 6 9s0-7 0-8s1-1 2-1s4-1 6 0s3 3 4 4s0 3 0 3s1 1 1 1M116 209s6-3 5-4s-9-1 -9-1s0 12 0 12s6 3 7 3s1 0 2 0s2-2 2-2M126 204s2 13 2 13s2-14 2-14s7-2 8-3"></path></svg>