<!DOCTYPE svg PUBLIC "-//W3C//DTD SVG 1.1//EN" "http://www.w3.org/Graphics/SVG/1.1/DTD/svg11.dtd"><svg id="drawception" xmlns="http://www.w3.org/2000/svg" stroke-linejoin="round" stroke-linecap="round" data-time="0" width="600" height="500" viewBox="0 0 598 498"><rect width="100%" height="100%" fill="#c8aac8"/><path fill="none" stroke="#643241" stroke-width="2" d="M191 103 l0.01 0.01M191 103s3-1 4-1M189 103s5 0 7 0s5 2 6 2M189 104s11 1 13 1s4 3 5 3M191 103s10 4 13 5s6 1 7 1M205 110s-5-3 -8-4s-8-3 -9-3s-3 0 -4 0M203 106s-10 0 -13 0s-7-2 -8-2M188 103s-9 1 -9 1s14 0 17 0s6 2 7 2s2 2 2 2M193 104s18 6 21 7M211 110s-6-3 -9-4s-7 0 -9 0M200 105s-13 0 -16 0M187 104s11 2 13 2M192 110s1 10 1 12M193 112s-1 4 -1 6s3 4 3 5M193 108s-1 4 -1 6s2 7 2 8M194 113s-1 4 -1 5s1 3 1 4M192 108s0 5 0 8s2 7 2 8"></path><path fill="none" stroke="#643241" stroke-width="6" d="M194 124s1 4 1 5M193 129s7 0 10 0s8 2 9 2M204 113s0 9 0 10s-1 3 -1 3s-2-4 -2-5M204 113s-6-3 -7-2s0 11 0 11s-1-6 -1-7M195 110s1 5 1 5s1-2 1-3s-1-2 -1-2s0 5 0 7s2 5 2 5s0-6 0-7s2-3 2-2s0 11 0 11s-1-4 -1-5"></path><path fill="none" stroke="#c8aac8" stroke-width="42" d="M186 90s-1 8 -1 12s1 6 2 10s7 14 7 15s2 2 2 1s-3-11 -3-15s0-7 0-9s2-5 3-5s3 2 4 3s2 4 3 6s3 13 4 16s5 7 5 7s1-11 2-15s3-9 3-9s4 0 4 1s0 16 -1 19s-5 5 -6 6"></path><path fill="none" stroke="#643241" stroke-width="2" d="M285 98s-1 1 -1 1s1 2 1 2M285 98s-2 3 -1 3s4 0 5 0M287 100s5-1 6-1M284 99s3 0 5 0s13-2 16-3M283 100s4 0 6 0s13-2 16-3M286 100s17-1 18-1s4-2 3-2s-7 1 -10 2s-6 2 -8 3s-5 3 -6 4M289 101s-7 7 -7 7s9-7 10-7s2 0 3 0s3-2 4-2s4 0 5 0M291 99s19-2 23-2M296 97s22 0 22 0s-11 0 -15 0s-11 2 -11 2s8 0 9 0M287 101s17-3 19-3s5 0 6 0M317 98s-2 4 -2 5M317 98s-1 0 -2 1s-1 3 -1 3s0-1 0-1M296 101s0 4 0 5s2 2 2 2M297 104 l0.01 0.01"></path><path fill="none" stroke="#643241" stroke-width="6" d="M297 104s0 3 1 4s2 3 3 4s5 1 6 1s3-2 3-2M298 102s0 3 1 4s2 4 3 5s3 2 4 2s2 0 3-1s1-3 1-4s-1-2 -1-3M298 103s3 11 3 12s1 3 2 4s4 1 5 1s2-2 2-3s0-5 0-6s0-3 -1-3s-1 2 -2 2s-2-2 -2-3s-1-6 -1-6s2 1 2 2s1 8 1 8s-2-2 -3-3s-1-4 -1-4s2 0 2 0s0 6 0 6s-2-3 -2-4s0-2 0-2s1 0 2 1s2 2 2 3s3 10 3 10s-2-2 -3-2M308 103s0 4 0 5"></path><path fill="none" stroke="#643241" stroke-width="2" d="M308 103s2 1 2 2s0 2 0 3s2 4 2 5M311 110s-3 4 -3 5s0 1 0 2s-2 2 -2 2"></path><path fill="none" stroke="#b4556e" stroke-width="6" d="M303 112 l0 1"></path><path fill="none" stroke="#b4556e" stroke-width="2" d="M303 113s0 3 0 3s-2-4 -2-5s0-3 0-3s3 9 3 9s0-7 0-7s1 1 1 1s0 6 0 7"></path><path fill="none" stroke="#b4556e" stroke-width="6" d="M305 118s-2-8 -2-8s2 3 2 3s-2-2 -2-3"></path><path fill="none" stroke="#b4556e" stroke-width="2" d="M303 110s4 6 4 5s-3-11 -3-11s2 2 3 4s3 7 3 8"></path><path fill="none" stroke="#c8aac8" stroke-width="2" d="M307 120s0-1 0-1s-4 0 -4 0s3 0 4 0M310 106 l0.01 0.01M310 106s-1 2 -1 2s-1-1 -1-1s2-1 2-1s0 3 0 3s-2 0 -2 0s2-3 2-3s1 1 1 2s0 2 -1 2s-2 0 -3-1s-1-3 0-3s4 0 5 0s2 2 2 2"></path><path fill="none" stroke="#643241" stroke-width="2" d="M285 101s-7 3 -7 3s4-1 4-1s-3 1 -3 1s2-4 4-5s10-3 12-4M283 97s15-2 17-2s4 1 5 1M286 101s9-3 13-4s11 0 13 0M291 98s3-1 5-2s5-1 7-1s6 0 7 0s2 1 2 1M312 95s-5 0 -6 0s-2 1 -2 1M308 92s-10 4 -16 5s-16 3 -18 3s-7 0 -6 0s13 0 19-1s17-4 17-4s-3 2 -4 2s-18 0 -19 0s-2 1 -3 1M290 97s-14 1 -15 1s-2 1 -2 1M287 100s-3 1 -4 1s-12 0 -14 0M289 97s-6 0 -9 0s-7-2 -9-2M273 95s13 3 16 4M273 96s8 2 12 2s9-1 11-1M293 96s18 1 22 1M299 100s-10 3 -12 3M297 98s-3 2 -5 3s-7 3 -9 3M291 101s0 4 0 5s3 2 3 2M294 104s2 6 2 7M294 104s3 8 3 9M294 103s-1 3 0 4s3 3 4 4M298 104s-1 4 -1 5s2 3 2 4M294 107s4 7 5 8M310 98s2 5 2 6M246 70s-1 7 -1 12s3 18 3 21M246 84s0 9 1 15s4 21 5 25M251 119s5 11 6 13M254 130s0 4 -1 6s-1 3 -2 4s-3 2 -4 2M255 127s-3 6 -5 9s-5 7 -7 9s-4 3 -6 4s-5 2 -6 2M253 133s-5 9 -8 12s-8 3 -10 4M241 153s3 5 4 6M243 156s5 8 6 9M241 152s2 4 3 7s6 9 7 11M239 152s16 21 19 25M249 166s9 8 10 10s2 4 3 5s2 3 4 4s7 4 8 5M252 172s3 2 5 3s3 5 5 6s4 2 5 3s14 12 15 13s3 3 3 4M287 201s15-1 18-1M278 186s8 4 9 5M269 86s0 2 0 2s10 0 16-1s28-7 34-9M310 199s10-1 12-1M321 197s18-5 21-6M237 16s-4 10 -4 17s0 16 2 25s6 22 9 32s7 20 12 29s16 19 19 23"></path><path fill="none" stroke="#643241" stroke-width="6" d="M244 25s-2 5 -2 7s-1 20 -1 30s2 21 4 31s6 21 9 29s7 14 10 18s8 8 10 9"></path><path fill="none" stroke="#643241" stroke-width="2" d="M236 59s0 5 0 8s3 13 5 20s4 14 8 21s12 18 14 21M235 18s-6 0 -8 1s-5 4 -6 7s-8 16 -11 25s-4 18 -5 27s-2 21 -1 30s3 19 5 27s7 17 8 19s3 4 4 5M234 18 l0.01 0.01"></path><path fill="none" stroke="#643241" stroke-width="6" d="M234 18s-4 2 -6 4s-7 9 -9 14s-11 31 -14 41s-2 18 -3 26s-1 17 -1 24s3 15 4 17s3 5 4 6"></path><path fill="none" stroke="#643241" stroke-width="14" d="M225 47s-3 2 -4 3s-5 12 -7 19s-4 14 -5 21s-2 16 -2 23s0 14 2 20s7 16 8 19"></path><path fill="none" stroke="#643241" stroke-width="6" d="M233 27s-4 3 -5 5s-5 14 -5 22s1 41 2 47s5 13 8 17s9 7 10 8s3 1 3 1"></path><path fill="none" stroke="#643241" stroke-width="14" d="M228 51s-1 14 0 23s5 25 6 30"></path><path fill="none" stroke="#643241" stroke-width="2" d="M246 19s0 4 0 5s5 14 7 19s5 10 7 14s6 9 7 10s3 2 3 2M248 33s10 14 14 20s9 11 13 15s10 10 11 11s4 2 5 2"></path><path fill="none" stroke="#643241" stroke-width="6" d="M241 25s4 11 6 14s3 5 5 7s27 26 32 30s10 6 15 8s11 3 13 3M312 85s-6-3 -9-5s-6-5 -9-8s-7-7 -10-11s-6-9 -9-14s-8-15 -8-16s0-2 0-3"></path><path fill="none" stroke="#643241" stroke-width="14" d="M279 30s1 4 2 6s19 27 23 33s9 11 13 15s9 7 11 8M305 62s7 8 12 12s10 9 16 13s13 6 20 9s20 7 24 8M242 10s1 8 3 12s7 9 12 14s17 18 23 22s12 7 16 9s9 3 11 3M278 46s41 14 42 14s4 0 5 0"></path><path fill="none" stroke="#643241" stroke-width="6" d="M207 52s-1-5 -1-8s0-9 1-15s4-14 7-19s8-11 9-13"></path><path fill="none" stroke="#643241" stroke-width="14" d="M212 45s0-7 0-11s1-6 2-10s6-12 7-14M209 43s1-4 2-7s3-9 6-13s18-24 21-29"></path><path fill="none" stroke="#643241" stroke-width="2" d="M344 191s10-7 12-8M354 185 l4-4"></path><path fill="none" stroke="#643241" stroke-width="6" d="M235 90s5 16 6 18s1 6 1 7M235 77s2 11 2 13"></path><path fill="none" stroke="#643241" stroke-width="14" d="M237 90s2 3 2 5s4 20 5 24M242 115 l0.01 0.01"></path><path fill="none" stroke="#643241" stroke-width="6" d="M242 115s-2 12 -2 14M242 113 l0.01 0.01M242 113s3 18 4 21M248 125s-2 16 -3 19M211 42s-3 2 -6 2s-5 1 -9 1s-12-2 -15-3"></path><path fill="none" stroke="#643241" stroke-width="2" d="M201 41s-11 3 -15 3s-6 0 -9-1s-7-2 -11-4s-11-7 -16-11s-12-10 -14-12M141 21s-13 11 -17 14s-7 5 -11 7s-12 4 -13 4s-2 0 -3 0M135 22s-7 10 -13 15s-21 17 -27 21s-10 6 -17 9s-26 8 -31 9M83 64s-5 3 -8 5s-8 4 -12 5s-10 2 -12 2s-5-2 -6-2"></path><path fill="none" stroke="#643241" stroke-width="6" d="M129 33s-6 7 -11 11s-17 14 -21 17"></path><path fill="none" stroke="#643241" stroke-width="2" d="M97 61s-25 11 -32 13s-15 3 -18 4M43 74s0-2 0-3s7-13 8-16M46 64s2-5 3-8s10-17 12-21M51 50s4-7 7-12s12-14 14-17"></path><path fill="none" stroke="#643241" stroke-width="6" d="M47 55s3-5 5-8s9-13 15-19s19-14 21-16s6-3 7-4M65 33s6-4 9-7s7-8 12-12s28-18 34-22M207 15s-13-8 -16-10"></path><path fill="none" stroke="#643241" stroke-width="2" d="M191 5s-13-8 -14-9s-3-1 -4-1M207 3s-11-8 -16-11s-12-4 -14-5s-5 0 -6 0"></path><path fill="none" stroke="#643241" stroke-width="6" d="M213 5s5-7 6-8"></path><path fill="none" stroke="#643241" stroke-width="14" d="M219 -3s3-3 4-4M216 12s-7 15 -7 16s0 3 0 4"></path><path fill="none" stroke="#643241" stroke-width="6" d="M209 32 l0.01 0.01M358 39s-3 0 -4-1s-1-2 -1-3s-1-15 -1-18"></path><path fill="none" stroke="#643241" stroke-width="2" d="M352 17s7-31 7-33s3-5 3-6M400 42s5-13 6-17s2-7 2-11s1-18 1-20s-1-4 -1-5"></path><path fill="none" stroke="#643241" stroke-width="42" d="M262 16s4-5 7-6s9-2 11-2s4 0 5 0s3 1 3 2s-4 2 -6 2s-31-2 -31-2s3-3 5-4s5-2 9-3s9-2 13-2s10 0 14 0s8 0 13 1s20 5 21 5s2 1 2 2s1 2 0 3s-4 4 -5 5s-3 1 -4 1s-2 0 -3-1s0-2 0-3s1-3 3-4s6-2 9-2s9 1 9 1s-1 4 -2 5s-5 4 -5 3s3-9 3-10s2-3 2-2s0 12 0 14"></path><path fill="none" stroke="#643241" stroke-width="14" d="M284 23s2 3 3 4s7 7 11 10s11 9 12 10s5 3 4 2s-10-8 -13-10s-6-7 -6-7s6 0 9 0s7 1 10 2s25 8 25 8s-5-19 -5-19s3 4 4 7s6 25 6 25s0-5 0-8s-2-5 -2-8s0-10 0-10s3 13 4 17s1 8 1 10s3 3 3 4"></path><path fill="none" stroke="#643241" stroke-width="6" d="M424 12s6 17 7 21s2 9 2 11M434 25s4 22 5 30s1 18 1 21"></path><path fill="none" stroke="#643241" stroke-width="14" d="M307 53s6 6 10 9s8 5 13 8s19 10 21 11s7 0 8 0M321 51s11 2 16 6s28 28 28 28s-15-24 -19-31s-9-18 -9-18s13 18 16 22s8 8 9 10M337 35s1 3 2 4s6 5 9 7s7 4 10 5s7 2 9 2s4 0 5 0"></path><path fill="none" stroke="#643241" stroke-width="6" d="M358 45s18 1 25 1s14 2 17 2"></path><path fill="none" stroke="#643241" stroke-width="14" d="M424 17s-1-3 -1-3s2 2 2 3s3 13 4 16s1 6 0 9s-3 9 -3 9s-2-2 -2-3M419 14s6 23 7 28s2 10 2 14s0 9 0 11M411 81s-11-8 -16-11s-8-4 -13-6s-9-3 -16-5s-20-3 -24-4M369 67s7 3 11 6s16 12 20 16s8 10 9 12s2 5 2 6M378 74 l10 4M416 30s10 37 11 41s0 11 0 13M426 81s-8-6 -12-9s-11-6 -13-7"></path><path fill="none" stroke="#643241" stroke-width="6" d="M404 55s5 10 6 15s2 8 3 13s2 16 2 19"></path><path fill="none" stroke="#643241" stroke-width="2" d="M359 74s19 25 23 30"></path><path fill="none" stroke="#643241" stroke-width="6" d="M235 109s-1 18 -2 22s-3 9 -4 11M236 119s-13 31 -17 39s-8 13 -12 19s-8 12 -12 16s-11 8 -13 10"></path><path fill="none" stroke="#643241" stroke-width="14" d="M239 121s0 3 -1 4s-7 13 -11 20s-22 32 -29 42s-11 15 -18 24s-26 30 -31 38s-7 19 -9 23"></path><path fill="none" stroke="#643241" stroke-width="6" d="M238 134s-3 4 -4 5s-19 12 -30 22s-24 26 -34 39s-18 28 -23 40s-6 20 -8 30s-1 25 -1 30s1 11 1 13"></path><path fill="none" stroke="#643241" stroke-width="14" d="M241 114s0 7 -1 12s-4 11 -7 17s-6 12 -10 18s-25 38 -29 44s-9 12 -15 15s-15 5 -18 6"></path><path fill="none" stroke="#643241" stroke-width="6" d="M161 226 l0.01 0.01"></path><path fill="none" stroke="#643241" stroke-width="14" d="M214 172s-38 41 -43 47s-10 12 -14 18s-8 11 -12 20s-8 25 -11 35s-3 18 -4 25s0 18 0 20s1 6 1 7"></path><path fill="none" stroke="#643241" stroke-width="6" d="M131 344 l0.01 0.01M205 165 l0.01 0.01"></path><path fill="none" stroke="#643241" stroke-width="2" d="M205 165s-4-4 -6-3s-10 7 -17 12s-15 14 -22 21s-12 13 -18 20s-11 16 -15 24s-8 17 -10 25s-3 16 -3 24s3 22 4 26"></path><path fill="none" stroke="#643241" stroke-width="6" d="M193 164s-6 4 -9 6s-20 19 -27 27s-11 14 -16 21s-8 16 -12 24s-7 16 -9 26s-3 29 -3 35s3 13 3 16M221 61s-3 6 -3 9s-1 28 0 35s4 13 5 17s4 8 5 9s3 3 3 3"></path><path fill="none" stroke="#643241" stroke-width="2" d="M214 40s-5 2 -6 4s-12 18 -16 25s-7 12 -9 18s-4 12 -5 18s-2 11 -1 16s8 14 8 15s2 2 2 2"></path><path fill="none" stroke="#643241" stroke-width="6" d="M188 139s-2-3 -2-4s-3-12 -4-18s-2-15 -2-20s1-9 2-13s2-8 5-13s11-13 13-15s5-4 8-5s7-2 8-2M207 51s-7 10 -9 12"></path><path fill="none" stroke="#643241" stroke-width="14" d="M198 63s-8 22 -11 30s-4 15 -4 21s2 13 2 14s2 3 2 4"></path><path fill="none" stroke="#643241" stroke-width="2" d="M197 69s-2-7 -1-11s6-22 7-26s3-6 5-10s11-15 13-18"></path><path fill="none" stroke="#643241" stroke-width="14" d="M221 4 l0.01 0.01M200 55s0-8 0-13s2-10 3-15s5-10 6-12M369 69s4 6 6 9s4 8 5 12s3 10 4 15s2 12 2 17s-1 13 -1 16"></path><path fill="none" stroke="#643241" stroke-width="6" d="M376 72s4 33 3 48s-3 29 -6 40s-6 19 -9 27s-8 17 -10 20M383 98s0 4 0 6s-3 18 -5 25s-3 12 -6 20s-6 16 -10 27s-12 30 -18 42s-16 27 -19 32"></path><path fill="none" stroke="#643241" stroke-width="2" d="M384 89s2 9 2 12s0 4 0 7s-1 8 -2 13s-4 14 -5 17"></path><path fill="none" stroke="#643241" stroke-width="14" d="M379 138s-6 14 -10 23s-9 19 -15 29s-45 68 -47 71s-6 6 -8 10s-14 25 -15 27s-2 6 -2 7"></path><path fill="none" stroke="#643241" stroke-width="6" d="M357 194s-7 11 -12 17s-19 23 -24 30s-8 12 -11 18s-6 12 -9 19s-5 12 -6 21s-2 25 -1 31s3 11 5 16s5 11 6 13M383 104s1 6 0 9s-6 22 -7 25s-2 7 -4 9s-17 17 -25 26s-18 25 -23 31s-9 8 -14 14s-15 20 -18 25s-4 10 -6 15s-3 9 -4 15s-2 18 -2 23s0 9 0 13s3 9 3 11M291 323s-2-3 -2-4s-3-12 -4-20s0-18 0-26s2-17 2-19s1-4 2-7s3-6 5-10s7-9 10-15s8-17 9-19s3-5 4-6s3-1 4-2s11-14 15-18s8-5 11-9s19-26 20-28s3-4 4-7s5-12 6-15"></path><path fill="none" stroke="#643241" stroke-width="14" d="M392 83s3 19 4 24s0 12 0 14"></path><path fill="none" stroke="#643241" stroke-width="6" d="M429 30s6 15 8 21s3 9 4 15s2 24 2 29"></path><path fill="none" stroke="#643241" stroke-width="2" d="M443 95s1 14 0 21s-2 15 -4 22s-4 15 -6 21s-6 13 -7 16M439 73s1 24 0 35s-2 22 -4 31s-5 18 -7 22s-4 9 -5 11"></path><path fill="none" stroke="#643241" stroke-width="14" d="M436 67s1 21 -1 32s-5 25 -8 34s-7 19 -9 23"></path><path fill="none" stroke="#643241" stroke-width="6" d="M418 87s1 7 0 11s-3 18 -5 26s-4 13 -7 21s-17 35 -19 39s-7 9 -9 11"></path><path fill="none" stroke="#643241" stroke-width="14" d="M417 106s-8 18 -13 25s-11 15 -14 19s-7 8 -8 9"></path><path fill="none" stroke="#643241" stroke-width="6" d="M432 130 l0.01 0.01"></path><path fill="none" stroke="#643241" stroke-width="2" d="M432 130s0 5 -1 8s-3 7 -5 11s-10 17 -15 23s-9 11 -14 16s-12 10 -15 12M378 208s4-3 6-5s26-28 31-34M434 149s6-17 8-23s3-12 3-15s0-7 0-8"></path><path fill="none" stroke="#643241" stroke-width="6" d="M445 103s0-24 -1-36s-5-30 -6-36s-4-12 -6-16s-5-7 -6-8"></path><path fill="none" stroke="#643241" stroke-width="14" d="M388 59s4 3 6 3s13-1 16-1M420 42s-1-20 -1-24"></path><path fill="none" stroke="#643241" stroke-width="2" d="M362 199s-2 2 -2 3s0 5 0 6M359 199s-1 10 -1 12M306 199s1 10 1 12M305 208s-2 13 -2 16M318 227s20 0 24 0s8-1 10-1M339 222s21-1 25-1M292 226s-6 1 -10 0s-12-3 -14-4M269 255s3 10 4 12M271 265s-4 13 -5 15M268 272s-2 11 -3 13s-2 3 -3 4s-4 5 -6 7s-5 5 -7 6s-5 3 -6 3M260 289s-1 4 -2 5s-1 2 -2 2s-28 23 -29 24s-2 1 -3 1M242 309s-6 2 -9 5s-8 7 -10 11s-3 6 -4 11s-2 13 -3 18s0 12 0 14M217 337s-2 7 -3 11s-1 8 -1 11s0 6 1 9s3 7 3 8M218 382s3 8 6 11s11 6 13 7M227 395s8 7 10 8s6 2 7 2"></path><path fill="none" stroke="#643241" stroke-width="6" d="M212 363s-1 6 0 10s2 8 5 12s10 14 11 15s3 1 4 1"></path><path fill="none" stroke="#643241" stroke-width="2" d="M226 398s11 7 15 9s6 2 10 3s18 3 22 3M255 414s13 4 21 5s22 0 26-1s7-2 11-4s9-6 11-7M332 403s5-6 6-7s3-2 4-2M337 392s8-4 10-5M245 248 l0.01 0.01M244 247s-8 13 -9 14s-3 2 -4 3s-9 6 -13 8s-11 2 -13 2M219 271s-4 0 -5 1s-15 8 -18 10M203 277s-8 5 -12 9s-9 8 -12 14s-3 17 -4 20M173 316s-1 7 0 11s8 16 9 19M184 352s9 6 11 7M201 360 l8 3M220 270s7-4 10-5s6-1 7-1M231 265s5-3 8-6s9-10 11-12s6-4 7-5M231 260s13-9 16-11M233 260 l0.01 0.01"></path><path fill="none" stroke="#643241" stroke-width="6" d="M233 260s10-11 12-13"></path><path fill="none" stroke="#643241" stroke-width="2" d="M303 216s-3 4 -5 5s-8 4 -11 4s-7-1 -9-1"></path><path fill="none" stroke="#643241" stroke-width="6" d="M289 224s-13 1 -14 1s-3 2 -4 2"></path><path fill="none" stroke="#643241" stroke-width="2" d="M275 226s-5 2 -6 2s-2 2 -2 2M243 250s-5 6 -8 9s-10 9 -12 11"></path><path fill="none" stroke="#643241" stroke-width="6" d="M272 268s0 3 0 4s-2 11 -3 12s-2 3 -3 3M250 305 l-11 7"></path><path fill="none" stroke="#643241" stroke-width="2" d="M239 312s-13 7 -18 11s-7 9 -9 11M267 280s-7-7 -8-9M262 275s2 8 2 9M226 318s-5 6 -7 9s-4 8 -5 10M217 334s-2 8 -3 12s0 13 0 15M360 201s2 12 3 14s3 4 4 5s3 2 4 2M363 211s6 9 10 12s13 6 16 7M366 218s14 11 19 14s11 6 13 7M337 232s6 4 7 4s3 0 3 0M339 234s4 3 7 4s7 3 12 3s17 0 20 0M388 241s9 1 11 1s5-2 6-2M396 241s19 0 24 0s8 1 12 2s12 5 15 7s5 4 7 7s6 10 7 12M363 323s4 1 5 1s2 1 3 2s2 5 2 6M374 331s2 11 2 15s0 8 0 9M330 404s5-10 8-13s7-4 10-5s10-2 10-2s-3 2 -5 3s-10 3 -14 5s-7 6 -10 9s-5 8 -6 10M324 410s6-9 7-10s3-2 4-3s3-3 5-3s8 0 9 0M339 394s1-3 2-4s6-6 10-8s9-3 12-3s6 0 7 0M371 340s3 11 3 13M372 351s1 10 0 15s-2 9 -4 14s-7 12 -8 14"></path><path fill="none" stroke="#643241" stroke-width="6" d="M372 364s-8 25 -10 30"></path><path fill="none" stroke="#643241" stroke-width="2" d="M456 259s2 3 3 5s3 9 4 11s0 5 0 6M463 277s1 6 1 9s0 19 -1 26s-4 16 -5 19M461 299s0 6 0 9s-3 15 -5 22s-6 15 -9 22s-8 16 -10 19M447 353s-2 5 -2 6s-2 0 -2 1s-12 21 -17 31s-9 25 -11 30"></path><path fill="none" stroke="#643241" stroke-width="6" d="M449 346s-7 19 -9 23"></path><path fill="none" stroke="#643241" stroke-width="2" d="M440 369 l0.01 0.01M447 355s-17 28 -24 39s-12 21 -15 28s-6 12 -7 17s-2 10 -2 12"></path><path fill="none" stroke="#643241" stroke-width="6" d="M322 435 l0.01 0.01"></path><path fill="none" stroke="#643241" stroke-width="2" d="M331 435s-3-1 -4-2s-17-22 -20-27M316 423s-17-19 -20-23s-6-11 -7-12s-3-2 -4-3M317 430 l0.01 0.01M328 438s-4-3 -6-5s-28-29 -31-32s-9-7 -11-9M296 404s-6-5 -9-8s-13-16 -22-27s-29-39 -32-44s-7-12 -9-15M235 329s-4-3 -5-4s-2-3 -2-4s-6-27 -7-32M220 290s0-1 0-1s-12-7 -15-9M207 280s-2 1 -4 0s-3-2 -5-3s-4-1 -5 0s-4 6 -5 7M189 282s2 4 2 5s2 1 2 1M198 296s-7-7 -8-9M195 293s-10-8 -11-9s-1-2 -1-3M187 286s-4-3 -5-4s-2-1 -3-1s-2 1 -2 2s-1 7 -1 8M178 289s0 4 -1 6s-4 3 -6 5s-8 9 -8 9s3 6 3 7M163 318s-2 10 -2 12M161 332s8 6 9 7M167 339s3 3 4 4s3 1 4 1M172 341s7 3 8 4M175 341s7 6 8 7M177 345s12 8 16 12s8 9 9 11M190 354s3 4 5 6s10 8 16 15s19 25 23 30M203 370s21 33 31 50s27 46 32 55M303 412s22 22 30 30s17 15 20 18M294 405s9 12 14 18s37 37 44 44M262 467s9 18 11 21M270 481s9 12 14 17s13 11 15 13"></path><path fill="none" stroke="#c8aac8" stroke-width="14" d="M180 334s-3-2 -3-4s0-5 0-8s0-5 1-8s3-8 4-10s2-5 3-6s4-2 5-2s2 0 2 1s2 5 2 6M198 290s5 10 8 18s8 23 9 28M225 366s4 14 5 17s6 7 5 6s-6-8 -10-14s-10-19 -11-20s-1-5 -1-4s3 10 5 15s14 32 14 32s-11-18 -13-22s-4-9 -5-11s-3-7 -2-6s22 44 22 44s-3-3 -4-5s-21-43 -21-43s7 16 12 25s34 48 34 48s-3-10 -5-15s-18-34 -23-45s-9-18 -13-28s-12-30 -12-31s-2-4 -2-3s30 49 35 57s16 21 16 21s-33-65 -33-65s41 71 41 71s-12-26 -14-29s-6-9 -6-9s3 6 4 9s18 33 25 45s14 28 15 30s3 8 3 8s-26-36 -33-46s-17-27 -17-27s19 18 29 30s29 40 29 40s-45-65 -45-65s20 22 24 27s6 8 10 13s16 15 16 15s-11-15 -14-19s-6-11 -6-11s9 9 12 13s6 7 7 10s1 8 1 8s-3-1 -5-2s-6-4 -9-7s-13-12 -21-21s-29-38 -31-40s-4-3 -6-6s-9-17 -9-17s-2 0 -2 0s2 9 3 11s2 3 3 5s1 4 1 5s2 2 2 2s-11-11 -12-12s-3-6 -3-5s5 11 5 11s-6-3 -6-2s3 6 6 10s10 12 12 14"></path><path fill="none" stroke="#643241" stroke-width="2" d="M297 404s7 8 10 11s40 33 48 40M304 414s41 43 48 50s17 15 20 18"></path><path fill="none" stroke="#643241" stroke-width="6" d="M294 401s13 12 20 19s12 15 21 24s28 27 33 32"></path><path fill="none" stroke="#643241" stroke-width="2" d="M347 457s10 9 15 16s18 26 20 30s4 9 5 12s0 6 0 7M415 409s-5 6 -6 7s-2 3 -2 4s-4 12 -6 17s-2 11 -3 13"></path><path fill="none" stroke="#643241" stroke-width="6" d="M404 424s-3 9 -4 14s-6 28 -7 34"></path><path fill="none" stroke="#643241" stroke-width="2" d="M394 465s-3 18 -4 22M372 359s0 4 -1 5s-4 12 -8 20s-13 28 -16 33"></path><path fill="none" stroke="#643241" stroke-width="6" d="M368 373s-4 6 -6 10s-8 17 -13 27s-12 29 -14 35"></path><path fill="none" stroke="#c8aac8" stroke-width="42" d="M419 416s-3 10 -4 14s-12 62 -12 62s0-14 0-20s2-12 3-15s2-6 4-8s6-4 7-5"></path><path fill="none" stroke="#643241" stroke-width="2" d="M450 350s-6 10 -7 12s0 4 -1 5s-22 47 -22 48s-1 3 -1 4M447 362s-3 5 -5 8s-3 9 -4 12s-29 68 -32 76s-5 17 -7 24s-3 13 -4 19s-1 13 -1 16M429 407s-2 2 -3 3s-8 14 -11 22s-16 41 -19 51s-6 17 -8 27s-2 27 -3 32"></path><path fill="none" stroke="#c8aac8" stroke-width="6" d="M279 378s2 4 3 5s20 21 21 23s3 5 4 6M282 382s2 5 3 7s32 30 38 36M298 396s4 6 7 9s21 19 23 21s4 6 5 7M310 412s3 4 5 6s15 14 18 17M346 448s2 3 3 5s4 3 6 5s17 18 17 18s-2-3 -2-4M355 457s4 2 5 3s13 18 16 22"></path><path fill="none" stroke="#c8aac8" stroke-width="14" d="M330 406s15-21 15-21s0 3 -1 4s-7 10 -8 12s-5 5 -5 4s2-5 3-8s3-4 5-7s3-7 5-10s5-6 6-7s3-3 4-3s0 6 0 6s2-7 2-7s-1 7 -3 10s-10 17 -16 22s-18 11 -18 11s4-3 5-4"></path><path fill="none" stroke="#643241" stroke-width="2" d="M357 385s-8 0 -11 0s-7 1 -9 2s-4 4 -4 4s1 0 2 0s2-2 3-2s9-2 11-2s5 0 6 0s2 2 2 2M374 356s-3-1 -5-1s-13 4 -16 5M359 387s-3 0 -5 1s-6 5 -8 7s-4 4 -5 7s-10 19 -10 20s0 2 0 3s2 1 2 1"></path><path fill="none" stroke="#643241" stroke-width="6" d="M356 390s-7 7 -10 11s-6 10 -9 14s-4 7 -6 11s-4 13 -5 16"></path><path fill="none" stroke="#643241" stroke-width="2" d="M372 355s-13 2 -15 2s-3 3 -4 3M198 362s-1 1 -1 1s0 11 0 15s1 7 3 11s6 10 7 12s2 3 4 4s13 8 16 9M200 366s-2 3 -2 5s-1 9 0 14s4 11 7 15s9 8 11 10M164 320s-2 3 -2 5s-2 8 -1 12s4 13 5 14s3 1 4 2s2 3 3 4s8 8 10 9s3 2 5 2s5 0 6 0M196 367s-3 0 -5 0s-3-1 -5-2s-6-4 -9-6s-5-5 -6-6s-2-1 -3-1"></path><path fill="none" stroke="#643241" stroke-width="6" d="M398 236s3 3 5 4s6 0 7 0M403 243 l0.01 0.01"></path><path fill="none" stroke="#643241" stroke-width="2" d="M403 243s7 0 10 0s4 2 7 2s7-1 11 0s10 4 12 5s3 3 4 3M423 242 l0.01 0.01"></path><path fill="none" stroke="#643241" stroke-width="6" d="M423 242s7 0 10 1s8 3 11 5s5 4 7 7s6 10 7 12"></path><path fill="none" stroke="#643241" stroke-width="2" d="M287 220s-15 1 -16 1s-3 0 -4 1s-2 3 -2 3M287 220s-3 1 -5 1s-14 0 -15 0s-3-1 -4-1M276 222s-28 0 -29 0s-2 2 -3 3s-1 3 -1 4M255 225s-10 3 -14 4s-8 4 -9 5s-2 2 -3 3s-7 8 -8 10s-2 5 -2 7s0 3 0 5s2 4 2 5M223 268s-3-7 -4-9s-1-4 -1-6s1-4 1-6s1-3 2-4s1-2 2-2s3 0 4 0"></path><path fill="none" stroke="#c8aac8" stroke-width="6" d="M228 256s2-6 4-8s17-12 20-14M244 241s-14 15 -17 18M244 240s-2 5 -4 7s-10 8 -11 9s-3 1 -4 1"></path><path fill="none" stroke="#643241" stroke-width="6" d="M314 200s-1 0 -1 0s34-7 34-7s-8 2 -10 3s-2 2 -4 3s-7 3 -10 4s-8 1 -8 1s0 2 0 2"></path><path fill="none" stroke="#643241" stroke-width="2" d="M346 203s-13 3 -16 3M237 19s-1 7 -1 12s2 11 4 17s8 25 12 32s6 11 12 17s23 16 27 19"></path><path fill="none" stroke="#643241" stroke-width="6" d="M241 19s-5 15 -7 24s-4 30 -4 30s2-6 2-8s4-32 5-39"></path><path fill="none" stroke="#643241" stroke-width="14" d="M237 26s-2 4 -2 7s-1 7 -1 11s0 15 0 15s0-20 0-24"></path><path fill="none" stroke="#643241" stroke-width="6" d="M419 42 l0.01 0.01"></path><path fill="none" stroke="#643241" stroke-width="14" d="M419 42s-4 4 -6 6s-11 15 -13 19s-4 7 -5 10s0 8 0 10M412 74s-2 18 -2 25s1 17 1 20M429 67 l0-5M433 52 l0.01 0.01"></path><path fill="none" stroke="#643241" stroke-width="6" d="M433 52s4 34 5 43s1 15 0 23s-1 17 -3 26s-5 18 -8 26s-7 19 -9 23M439 75s1 36 1 44s-1 13 -4 21s-9 25 -14 35s-9 17 -14 24s-9 13 -14 18s-11 10 -13 12"></path><path fill="none" stroke="#643241" stroke-width="14" d="M422 116s-4 13 -7 20s-21 43 -24 48s-8 13 -10 15s-5 6 -6 5s1-6 2-9s6-13 10-20s14-21 14-21s2 0 2 0s-24 37 -24 38s-3 2 -3 1s1-6 1-7M388 163s1 4 1 5s-13 34 -13 34s0-3 0-4s9-19 17-31s26-34 31-41M435 113s-7 11 -9 16s-25 61 -27 65s-8 12 -8 12s-1-1 -1-2s1-4 2-7s2-7 5-11s10-12 11-14s4-4 5-4s2 1 2 2s-2 8 -4 13s-9 15 -14 21s-13 15 -14 16s-3 2 -4 1s-1-4 -1-5M388 167s2-9 2-9s-2 0 -2 1s-15 37 -15 37s0-17 0-19s1-7 1-6s-7 35 -7 37s1 5 2 6s2 1 3 1s3-1 4-2s9-15 12-21s5-12 7-17s32-96 32-96s-15 74 -15 74s6-36 9-48s8-29 8-29s-1 8 -2 11s-13 43 -14 48s-4 12 -5 14s-3 5 -5 4s-3-5 -5-8s-4-9 -5-14s-6-38 -6-38s-2 3 -3 5s-3 8 -5 14s-5 22 -5 22s27-37 32-44"></path><path fill="none" stroke="#643241" stroke-width="6" d="M441 23s10 37 11 42s2 9 2 14s0 27 0 35s-1 13 -3 21s-5 25 -8 35s-5 16 -8 23s-6 14 -9 20s-7 13 -9 15"></path><path fill="none" stroke="#643241" stroke-width="14" d="M451 74s0 37 0 39s0 6 -1 8s-8 28 -11 38s-7 20 -9 24"></path><path fill="none" stroke="#643241" stroke-width="6" d="M258 182s1 3 1 4s-1 11 -1 14s-1 5 -2 8s-7 16 -8 19M262 183s9 7 11 9s2 3 4 5s7 5 8 6M285 204s1 1 2 1s7-2 8-2s3 1 4 1s2 2 2 2M301 203s0 3 -1 5s-3 5 -6 7s-7 3 -11 3s-10 0 -12 0s-4-2 -5-2"></path><path fill="none" stroke="#643241" stroke-width="14" d="M266 216s-1 0 -2-1s-2-3 -2-4s4-13 4-13s0 1 0 1s0-8 0-7s1 10 1 13s-3 8 -3 8s4 1 7 1s14-3 14-3s-10-4 -12-5s-3-3 -4-4s0-4 0-4s2 1 2 2s3 8 3 8s18 1 19 1s4-3 3-3s-16 8 -17 8s-3 1 -4 1s-14 0 -14 0s-1 1 -1 1"></path><path fill="none" stroke="#643241" stroke-width="2" d="M366 321s-1 1 -1 1s3 3 4 5s4 12 5 15s0 6 -1 9s-4 13 -5 16"></path><path fill="none" stroke="#643241" stroke-width="6" d="M456 340s-3 10 -5 13s-4 4 -5 7s-8 21 -9 26s-1 8 -3 13s-7 16 -8 18s-3 4 -4 6s-6 18 -7 21s-3 5 -4 8s-4 11 -6 17s-4 13 -6 21s-3 20 -3 29s1 21 1 23s2 6 2 7"></path><path fill="none" stroke="#643241" stroke-width="2" d="M454 348s7-21 8-28s1-13 1-18s-1-11 -1-13s-2-3 -2-5s-2-11 -2-13M237 316s2-3 4-5s5-3 8-6s11-15 11-15s-1 4 -3 6s-6 6 -9 8s-4 5 -8 7s-11 7 -13 8"></path><path fill="none" stroke="#643241" stroke-width="6" d="M354 323 l0.01 0.01"></path><path fill="none" stroke="#643241" stroke-width="2" d="M223 241s-1 2 -1 2s-7 5 -10 9s-5 12 -5 14s1 7 1 6s3-18 3-20s3-3 4-4s4-2 4-2s-3 2 -4 3s-4 10 -5 12"></path><path fill="none" stroke="#c8aac8" stroke-width="6" d="M221 252s-2 5 -2 5s0-2 0-3s3-4 3-4s-2 5 -3 7s-1 6 -1 7s3 1 3 0s0-4 1-6s5-8 5-8s-7 7 -7 7s6-9 6-9s-7 8 -7 8s-1-2 -1-3s2-3 4-4s5-2 6-3M224 248s1-4 2-5s11-6 11-6s-6 3 -9 6s-9 10 -9 10s2-5 4-8s10-7 10-7s-4 1 -6 2s-8 7 -8 7s2-4 4-6s15-9 15-9s1 2 1 2"></path><path fill="none" stroke="#643241" stroke-width="2" d="M259 220s-1 0 -2 0s-5 4 -9 5s-10 2 -14 3s-8 3 -12 6s-9 11 -10 12s-1 4 -2 5s-1 3 -1 4s0 13 0 15M224 237s-4 2 -5 4s-4 8 -5 11s-2 4 -2 7s-1 13 -1 16M247 224s4-1 6-2s3-2 4-3"></path><path fill="none" stroke="#c8aac8" stroke-width="6" d="M245 232s2-2 3-3s5-2 6-2s3 0 3 0s-2 2 -4 2s-3 0 -5 0s-5 2 -5 2s6-2 8-2s4 1 5 1"></path><path fill="none" stroke="#c8aac8" stroke-width="2" d="M172 359s12 9 12 9s-2-5 -2-5s5 3 5 3s-6-2 -7-2"></path><path fill="none" stroke="#c8aac8" stroke-width="6" d="M175 360s8 6 8 6s-2-2 -3-2"></path><path fill="none" stroke="#c8aac8" stroke-width="14" d="M180 364s0-1 0-1s5 4 6 4s1-1 2-1s2 1 2 1s-2 1 -3 1s-2-1 -3-1s-13-8 -18-12s-9-12 -9-12s3 6 4 7s3 4 3 3s-5-9 -5-9s9 12 9 12s-4-4 -4-3s6 9 7 11"></path><path fill="none" stroke="#643241" stroke-width="2" d="M162 323s-6 11 -7 15s-1 9 0 12s2 5 4 8s9 13 14 17s12 6 17 7s11-1 13-1M199 382s-4 0 -6 0s-4-1 -6-2s-4-3 -7-5s-7-1 -10-4s-8-9 -10-11M157 342s-1 5 -1 8s1 8 1 9M196 381 l0.01 0.01M196 381s4 9 5 11M195 383s1 4 2 6s6 8 10 13s10 17 12 20M197 389s11 19 16 27s13 19 16 23M200 387s-1 1 -1 1s1 2 1 3s5 10 5 10s-1-3 -1-4"></path><path fill="none" stroke="#643241" stroke-width="6" d="M198 385s4 10 5 12s3 2 4 4s5 10 6 11s2 3 3 4s2 1 2 1"></path><path fill="none" stroke="#643241" stroke-width="2" d="M205 401s6 8 8 13s3 10 6 16s16 27 19 32M209 410s23 37 31 54s17 38 20 46M241 461 l0 3"></path><path fill="none" stroke="#643241" stroke-width="6" d="M447 364s0-1 0-1s-5 13 -7 22s-7 31 -8 38s-2 16 -2 19M447 359 l0.01 0.01"></path><path fill="none" stroke="#643241" stroke-width="2" d="M447 359s-2 5 -3 8s-5 31 -6 34s-2 6 -3 9s-4 19 -4 22s0 5 0 8s-3 24 -4 29M426 467s8 10 12 16s15 28 18 34"></path><path fill="none" stroke="#643241" stroke-width="6" d="M432 433s-1 5 -1 8s0 23 0 28M428 468 l0.01 0.01"></path><path fill="none" stroke="#643241" stroke-width="2" d="M428 468s0 3 1 5s4 5 5 8s13 27 15 31s4 9 5 11s1 4 1 5"></path><path fill="none" stroke="#643241" stroke-width="6" d="M230 455 l0.01 0.01"></path><path fill="none" stroke="#643241" stroke-width="2" d="M230 455s3 2 4 4s3 10 4 16s2 33 2 39M226 440s7 20 9 28s2 14 2 21s0 18 0 21"></path><path fill="none" stroke="#c8aac8" stroke-width="6" d="M227 452s2 4 3 6s3 12 3 14M241 456s3 21 5 31s6 25 7 30M245 458s0 7 1 11s3 8 4 13s5 24 5 24s-3-20 -3-20s0 5 1 8s3 11 4 13"></path><path fill="none" stroke="#643241" stroke-width="2" d="M209 401s12 11 14 12s7 1 7 1s-5-1 -7-2s-5-3 -7-5s-9-8 -12-13s-5-10 -6-14s0-10 0-12s2-5 2-6M201 364s-2 2 -2 4s0 7 0 8M305 416s3 0 4 0s7-2 10-4s8-7 9-8s2-4 2-4s-3 4 -5 5s-17 11 -17 11s7-2 10-4s10-9 10-9s-8 9 -10 11s-6 3 -7 3M166 311s-2 8 -3 9M193 359s3 0 4 1s7 4 8 5M209 362s1 11 2 13s4 3 5 3M221 296s4 24 4 24s-5-22 -5-23s2-3 1-4s-5-4 -5-4s0-1 0-1s-3-1 -4-2s-2-3 -3-4s-9-6 -9-6s-3 3 -4 3s-3-1 -4 0s-2 4 -3 5s1 4 0 4s-4-1 -5-2s0-2 0-3M427 162s0 4 -1 6s-5 13 -6 15"></path><path fill="none" stroke="#643241" stroke-width="14" d="M420 183s-7 19 -9 23"></path><path fill="none" stroke="#643241" stroke-width="2" d="M411 206s-7 17 -8 19s-4 5 -4 5s0-2 0-2M423 182s-14 32 -15 34s-4 6 -5 7s-3 1 -4 1M422 197s-14 27 -17 32"></path><path fill="none" stroke="#643241" stroke-width="14" d="M378 56s1-3 3-4s7-2 11-3s12-1 14-1s5-2 6-2M411 46s2-22 2-27s0-9 0-14s-2-11 -2-13"></path><path fill="none" stroke="#643241" stroke-width="6" d="M253 175s-1 4 -2 6s-5 7 -7 10s-1 5 -3 8s-5 8 -6 10s-1 5 -1 6s1 3 1 3M256 175s-7 10 -11 17s-9 21 -10 23s0 5 0 7s2 6 2 7"></path><path fill="none" stroke="#643241" stroke-width="14" d="M435 179s-7 17 -9 22s-4 8 -7 13s-9 14 -10 16s-4 3 -5 4"></path><path fill="none" stroke="#643241" stroke-width="6" d="M436 166s-3 3 -4 5s-9 21 -12 28s-4 12 -6 18s-5 12 -6 21s-2 24 -2 33s1 15 3 22s4 13 7 19s4 10 9 16s18 18 21 22M419 195 l0.01 0.01M419 195s-3 2 -4 4s-4 10 -5 14s-2 7 -3 11s-3 14 -4 23s0 26 0 30s0 7 1 11s3 13 4 16s3 6 4 8s0 3 1 5s5 10 6 12s2 3 4 5s9 8 12 10s6 4 8 4s7-1 7-1s0-2 0-2"></path><path fill="none" stroke="#643241" stroke-width="14" d="M406 203s-4 14 -5 18s0 7 -1 10s-3 11 -3 11s0-3 0-4s4-11 4-11s1 0 1 0s-2 13 -3 16M408 207 l-2 4"></path><path fill="none" stroke="#643241" stroke-width="6" d="M406 211s-9 38 -10 45s-2 12 -2 20s0 24 1 30s2 13 3 15s2 5 2 6s2 1 2 2s3 7 4 9s2 4 4 5s10 7 16 9s19 5 19 5s-7-2 -8-3"></path><path fill="none" stroke="#643241" stroke-width="14" d="M385 216s2 5 3 6s2 2 3 2s4 1 5 1"></path><path fill="none" stroke="#643241" stroke-width="6" d="M436 164s-6 18 -7 27s-2 22 -1 29s4 14 5 17s4 8 4 8s1-6 1-7"></path><path fill="none" stroke="#643241" stroke-width="14" d="M424 213s-6 17 -7 18s-3 2 -4 2s-1-1 -1-2s0-3 1-4s5-3 6-2s0 11 0 11s-2 0 -2 0s1-8 1-8s3-1 4-1s2 3 2 4s2 1 2 1"></path><path fill="none" stroke="#643241" stroke-width="6" d="M461 336s-2 3 -2 5s1 4 1 5s18 46 21 54s4 14 5 24s2 23 1 34s-4 30 -5 34s-3 9 -4 12s-3 6 -4 8s-3 3 -4 3"></path><path fill="none" stroke="#643241" stroke-width="14" d="M456 358s7 24 9 36s3 23 2 37s-8 63 -8 66s-1 7 -2 10s-2 5 -3 6M453 360s-1 33 -2 50s-4 37 -5 52s-1 31 -1 37M454 384s-9 79 -9 79s-1 1 -1 1M443 436s2-16 3-25s5-27 5-27s-9 59 -9 60s-2 6 -2 5s-1-15 0-22s3-19 4-22s3-9 3-9s-4 27 -5 39s-2 32 -2 32s-2-5 -2-9s0-7 0-12s0-17 1-22s3-13 3-13s0 38 0 43s-2 11 -2 15s0 9 0 10s1 4 1 3s2-18 4-27s16-63 16-63s-4 32 -5 39s-3 11 -4 18s-2 26 -2 26s2-31 2-32s2-5 2-4s-2 36 -2 39s-2 8 -2 10"></path><path fill="none" stroke="#c8aac8" stroke-width="6" d="M426 434s0 12 0 17s-2 8 -2 11s-1 6 0 8s4 4 5 6s6 13 9 21s8 21 9 25"></path><path fill="none" stroke="#c8aac8" stroke-width="14" d="M419 466s2 4 3 5s9 9 14 16s14 23 15 26s2 8 2 9"></path><path fill="none" stroke="#c8aac8" stroke-width="2" d="M218 414s1 3 2 5s3 5 3 5s1 0 1 0s-5-8 -5-8s4 7 3 7s-6-9 -6-9s16 25 21 35s7 26 7 27s0 4 0 5M157 344s-2 1 -2 2s0 2 0 3s3 3 3 4M170 367s2 3 3 4s10 3 12 4"></path><path fill="none" stroke="#643241" stroke-width="6" d="M196 387s-4 9 -5 16s-3 18 -4 25s-1 11 0 19s2 19 5 29s12 26 14 29s5 6 7 8s5 4 6 5"></path><path fill="none" stroke="#643241" stroke-width="14" d="M199 408s-1 8 -1 11s4 31 6 41s4 15 7 25s14 33 14 33s-6-23 -7-27s-3-7 -4-11s-6-34 -7-40s-4-13 -5-17s1-7 0-11s-3-11 -3-11s14 32 16 38s4 10 6 17s4 20 4 29s-1 25 -1 25s-4-14 -5-22s-3-23 -3-28s1-8 0-13s-5-24 -5-24s1 6 3 9s5 7 7 12s6 13 7 22s0 36 0 36s-13-49 -14-52s0-6 -1-10s-4-17 -4-19s-2-4 -2-5s-2-1 -2-1"></path><path fill="none" stroke="#643241" stroke-width="6" d="M198 391s-1-2 -1-2s-1 12 -1 14"></path><path fill="none" stroke="#643241" stroke-width="2" d="M195 382s-1 10 -2 14s-1 8 -3 11s-3 7 -6 10s-12 8 -14 10M439 37s10 14 13 19s4 9 5 13s3 8 4 14s3 15 4 21s1 10 1 15s0 9 -1 14s-2 10 -4 16s-5 15 -10 26s-17 37 -17 38s-2 2 -2 2"></path><path fill="none" stroke="#643241" stroke-width="6" d="M439 33s7 16 8 18s3 4 4 6s11 25 14 33s4 14 5 20s1 10 0 17s-5 23 -7 29s-3 11 -5 16s-15 32 -17 35s-6 7 -7 8s-2 2 -3 2M423 170s-2-2 -2-4s0-6 0-10s0-8 2-13s7-16 8-19"></path><path fill="none" stroke="#643241" stroke-width="2" d="M202 370s17 30 17 31s3 1 3 1M203 367s25 41 36 59s27 47 28 49s4 3 6 6s4 8 6 12s8 12 8 12s2 0 2 0M198 45s-14 0 -17 0s-5-1 -8-2s-10-6 -12-7M168 35s-4 0 -6-1s-4-2 -6-3s-12-9 -15-11M159 22s-7-7 -9-8M370 24s0-12 0-14M252 137s-4 2 -6 4s-7 8 -8 10"></path><path fill="none" stroke="#b4556e" stroke-width="2" d="M266 126s2 6 4 8s5 6 6 7s3 2 4 2M271 126s10 13 11 14s2 4 2 5M276 127s11 13 13 15M284 129s8 7 9 8M296 132s7 6 8 7M305 133 l5 4M312 132s5 3 6 4"></path><path fill="none" stroke="#b4556e" stroke-width="6" d="M246 47s0 4 0 6s3 13 3 15M249 48s1 4 2 5s11 9 13 11"></path><path fill="none" stroke="#b4556e" stroke-width="14" d="M185 33s-6 0 -9-1s-19-8 -24-11s-10-7 -12-8"></path><path fill="none" stroke="#b4556e" stroke-width="6" d="M134 24s-6 8 -9 11s-7 7 -11 10s-27 16 -33 19"></path><path fill="none" stroke="#b4556e" stroke-width="14" d="M367 33s-3-7 -3-10s-1-33 -1-40"></path><path fill="none" stroke="#b4556e" stroke-width="6" d="M369 110s1 5 0 7s-7 15 -10 21s-5 10 -9 15s-17 22 -20 26"></path><path fill="none" stroke="#b4556e" stroke-width="14" d="M212 361s2 7 3 10s32 59 46 81s38 49 41 53s7 11 9 14s3 8 4 9M221 371s-1 3 0 4s5 6 6 7s2 2 4 2s7 1 9 1s5 1 6 2s1 5 2 7s25 40 37 57s36 47 37 48s2 4 2 5M234 394s18 30 25 41s11 17 18 25s43 49 51 59"></path><path fill="none" stroke="#643241" stroke-width="2" d="M215 381s3 9 5 14s12 26 18 37s14 21 21 32s17 23 24 33s16 25 17 27s4 3 5 5s2 5 3 6s3 1 4 1M214 394s1 6 3 9s5 9 8 13s19 28 28 41s18 25 27 36s18 22 26 32s17 24 20 29"></path><path fill="none" stroke="#b4556e" stroke-width="6" d="M209 363s-4-5 -8-8s-11-7 -14-9s-6-5 -7-6s-2-2 -2-3M207 360s-4-1 -6-2s-20-17 -24-20M177 338s-4-3 -5-3s-1-2 -1-2M170 331 l0.01 0.01M161 353s1 4 3 6s8 8 11 10s8 4 9 4s3 0 3 0M363 328s5 6 6 10s0 12 0 12s-4 2 -6 3s-4 0 -6 1s-7 4 -6 5s12 0 13 0s3-2 4-2s3-1 3 0s-6 10 -6 11s-2 1 -2 1s-7 8 -8 10M364 371s-7 9 -8 11M260 282s-2 4 -3 5s-11 8 -13 10s-3 4 -5 6s-4 3 -6 4s-2 3 -3 4M230 311s14-10 19-14s9-10 11-12"></path><path fill="none" stroke="#643241" stroke-width="2" d="M371 343s-2 4 -3 6s-4 20 -5 22s-2 6 -3 7M264 285s-6 7 -11 10s-21 10 -25 12"></path><path fill="none" stroke="#b4556e" stroke-width="6" d="M214 268s4-1 5-2s19-13 23-16"></path><path fill="none" stroke="#b4556e" stroke-width="14" d="M346 444s5 5 8 8s8 9 12 15s13 18 15 21s5 6 6 9s3 9 3 11"></path><path fill="none" stroke="#643241" stroke-width="2" d="M333 447s4 1 5 2s8 8 13 13s13 17 20 25s19 18 23 22"></path><path fill="none" stroke="#b4556e" stroke-width="6" d="M429 421s-12 33 -16 47s-7 27 -9 36s-3 16 -3 22s-1 10 0 14s4 8 5 9M418 449s-3 3 -3 4s-20 55 -21 58s-1 8 -1 10s2 4 2 5M218 414s2 3 3 4s3 0 3 0s1 1 1 1"></path><path fill="none" stroke="#b4556e" stroke-width="2" d="M225 419s21 33 24 37s6 7 10 12s14 20 17 24"></path><path fill="none" stroke="#b4556e" stroke-width="6" d="M426 473s5 4 7 6s8 10 14 17s19 24 20 26s3 6 3 7s2 2 2 2M459 288s0-5 -1-9s-5-13 -5-14s-1-2 -2-3s-5-5 -8-7s-5-4 -8-5s-5-1 -8-2s-8-1 -10-1s-3 2 -4 2"></path><path fill="none" stroke="#b4556e" stroke-width="2" d="M461 283s0 16 0 19M419 245s-4 7 -5 8M355 168s-5 8 -6 9"></path><path fill="none" stroke="#b4556e" stroke-width="6" d="M349 177s-7 8 -7 8s-2 1 -2 1"></path><path fill="none" stroke="#b4556e" stroke-width="2" d="M246 24s2 6 4 9s12 11 17 16s11 8 16 12s11 8 16 10s10 4 15 5s12 1 14 1"></path><path fill="none" stroke="#b4556e" stroke-width="6" d="M262 32s9 9 15 14s29 24 31 25s6 3 7 3"></path><path fill="none" stroke="#b4556e" stroke-width="14" d="M275 33s5 9 10 13s21 13 25 16"></path><path fill="none" stroke="#b4556e" stroke-width="6" d="M295 40s3 5 6 6s13 4 15 5"></path><path fill="none" stroke="#b4556e" stroke-width="2" d="M310 39s1 4 3 6s8 5 10 6M318 38s3 4 5 6s9 8 11 10M322 35s2 4 4 6s12 11 14 13"></path><path fill="none" stroke="#b4556e" stroke-width="6" d="M334 35s13 15 15 18M347 35s5 3 6 4s3 4 3 5"></path><path fill="none" stroke="#b4556e" stroke-width="2" d="M237 30s-4 19 -5 21s-2 3 -3 5s-4 12 -4 13s-2 2 -2 2M227 40 l0.01 0.01"></path><path fill="none" stroke="#b4556e" stroke-width="6" d="M227 40s-4 4 -6 6s-3 8 -4 9M217 49s0 4 0 5s2 3 2 4M345 25s3 4 6 6s10 7 12 8M424 14s4 7 5 10s2 8 2 9"></path><path fill="none" stroke="#b4556e" stroke-width="2" d="M376 86s2 3 3 5s1 4 2 7s2 8 2 13s1 11 0 18s-1 14 -3 23s-8 30 -9 33s-3 8 -4 9M388 106s0 6 0 9s-1 14 -3 20s-3 12 -6 19s-8 19 -10 23M431 32s3 7 4 10s7 24 9 36s4 28 5 36s0 12 0 21s-1 24 -3 33s-3 15 -6 22s-5 13 -9 20s-14 18 -17 22"></path><path fill="none" stroke="#b4556e" stroke-width="6" d="M435 51s2 6 3 9s4 20 5 30s3 22 3 31s0 16 -1 24s-2 17 -5 25s-6 18 -10 26s-11 18 -13 21s-6 7 -7 8M439 73s1 17 0 24s-2 15 -3 19s-1 8 -3 11s-4 6 -6 9s-17 18 -21 22s-6 8 -9 12s-5 10 -7 15s-3 10 -4 16s-1 18 -1 21"></path><path fill="none" stroke="#b4556e" stroke-width="2" d="M385 222 l3 9M233 116s0 5 -1 8s-3 6 -4 9s-9 21 -14 30s-12 21 -14 25M221 34s-3 4 -3 6s-5 24 -7 34s-2 18 -2 26s-1 17 0 24s5 18 5 19s2 2 2 2M205 12s-3 5 -4 7s-8 23 -11 34s-4 25 -5 35s2 23 2 27"></path><path fill="none" stroke="#b4556e" stroke-width="6" d="M455 358s4 14 6 20s3 11 4 18s3 14 3 23s0 42 -1 49s-4 16 -5 19"></path><path fill="none" stroke="#c8aac8" stroke-width="6" d="M152 329s0 5 0 8s4 22 4 22s0-6 -1-8s-3-6 -3-5s7 13 7 13s-3-5 -4-8s-3-10 -3-10s1 6 2 10s5 13 5 13s-5-7 -5-7s4 9 5 11M156 331s2 10 2 10s0-6 0-6s2 7 2 6s-2-12 -2-12s-1 6 -1 10s3 12 3 12s-5-8 -5-8s0 4 0 6s2 8 2 7s-4-15 -4-15s-1 7 -1 10s3 5 3 6"></path><path fill="none" stroke="#643241" stroke-width="2" d="M161 327s-1 5 -1 9s0 9 1 13s2 7 3 10s4 7 5 8M169 369s-3-5 -4-8s-2-5 -2-8s1-12 1-12s2 0 2 0M164 339s-1 8 -1 11s2 8 2 9"></path><path fill="none" stroke="#c8aac8" stroke-width="14" d="M211 357s5 4 7 5s19 6 28 14s20 29 32 45s36 46 39 50s8 7 11 10s5 5 7 9s2 9 4 13s6 12 7 14"></path><path fill="none" stroke="#f5ebd2" stroke-width="2" d="M251 85s0 5 1 7s9 26 11 31M310 106 l0.01 0.01M292 110 l0.01 0.01"></path><path fill="none" stroke="#f5ebd2" stroke-width="6" d="M292 110s0 4 0 5s2 1 2 1"></path><path fill="none" stroke="#f5ebd2" stroke-width="2" d="M294 113s2 5 2 6M299 117 l0.01 0.01M315 108 l0.01 0.01M234 231s-5 0 -7 1s-8 8 -10 10M219 241s-2 6 -3 7"></path><path fill="none" stroke="#f5ebd2" stroke-width="6" d="M439 271 l0.01 0.01"></path><path fill="none" stroke="#f5ebd2" stroke-width="14" d="M240 275 l0 4"></path><path fill="none" stroke="#f5ebd2" stroke-width="6" d="M309 298 l0.01 0.01M203 284s-4 0 -5 0M203 284s-5 0 -7 1s-4 3 -5 4M192 291s-5-5 -6-5s-2 1 -3 1M182 286s-2 10 -3 12M179 296s-2 0 -3 0s-1 2 -2 2s-2 0 -2 0M173 302s-2 0 -2 1s-1 3 -1 4M170 307s-3 5 -3 5s-1 0 -1 0M168 313s-2 8 -3 9"></path><path fill="none" stroke="#f5ebd2" stroke-width="2" d="M269 40s1 6 3 9s10 10 14 13s9 4 13 6s10 3 12 4M292 48s8 10 10 12M97 10s-4 2 -6 3s-5 4 -8 6s-13 11 -18 16s-8 8 -11 12s-5 9 -6 11s-1 4 -1 5M374 367s-22 35 -27 43s-10 19 -12 23M225 420s3 10 5 16s9 20 11 28s0 17 0 21s2 6 2 11s0 15 0 18"></path><path fill="none" stroke="#f5ebd2" stroke-width="6" d="M246 484s0 7 0 10s3 22 3 26"></path><path fill="none" stroke="#f5ebd2" stroke-width="2" d="M383 347s-3 2 -4 4s-2 6 -3 9s-10 21 -14 29s-7 17 -8 20M258 134s-4 8 -5 10s-5 4 -5 4s-1-1 -1-1M257 139s-4 3 -6 5s-4 8 -5 9M256 137s0 7 0 8s2 2 2 3s-2 2 -3 3s-7 2 -9 2M253 143s-2 6 -2 6s1-2 2-3s2-1 2-1s-4 4 -4 4s2-2 2-2s-1 1 -1 1"></path><path fill="none" stroke="#f5ebd2" stroke-width="6" d="M255 144s-2 3 -3 3"></path><path fill="none" stroke="#f5ebd2" stroke-width="2" d="M255 144 l0.01 0.01M255 144s-1-2 -2-2s-9 10 -9 10s6 0 7 0s1-2 1-2"></path><path fill="none" stroke="#f5ebd2" stroke-width="6" d="M251 150s3-1 3-1M251 150 l-3 2"></path><path fill="none" stroke="#f5ebd2" stroke-width="2" d="M248 152s6-2 7-2s2-2 2-2M257 148s-1-7 -1-8"></path><path fill="none" stroke="#643241" stroke-width="2" d="M246 107s2 6 4 9s10 15 12 17s3 4 5 6s5 4 6 5M250 121s1 4 2 5s8 10 10 12s4 3 5 4M252 127s3 6 4 8s3 4 4 5s3 3 4 4s4 3 5 3"></path><path fill="none" stroke="#b4556e" stroke-width="6" d="M335 204s-12 15 -12 15s-2 1 -2 1M332 206s-5 3 -6 4M328 209s-6 12 -7 14M351 211s4 3 5 3M353 215s-1 3 -1 3M353 215s0 3 1 3s4-1 5-1"></path><path fill="none" stroke="#b4556e" stroke-width="2" d="M310 202s-2 5 -2 6s-2 1 -2 1s-7 8 -8 9s-3 2 -4 2"></path><path fill="none" stroke="#b4556e" stroke-width="6" d="M309 204s-12 13 -13 14s-2 1 -3 1"></path><path fill="none" stroke="#643241" stroke-width="6" d="M351 201s-12 19 -14 23"></path><path fill="none" stroke="#b4556e" stroke-width="2" d="M371 133s0 15 -1 21s-3 12 -6 18s-12 22 -20 35s-41 60 -46 69s-11 26 -12 28s-2 6 -2 7M229 110s0 14 -1 20s-2 9 -4 15s-4 12 -7 19s-7 14 -12 22s-10 17 -16 24s-10 13 -18 19s-26 16 -31 19M213 165s-2 8 -4 11s-27 26 -34 33s-11 13 -16 20s-11 15 -16 25s-12 30 -15 37s-4 13 -5 20s0 23 0 25s3 5 4 6M186 164s-8 8 -13 14s-14 22 -17 26"></path><path fill="none" stroke="#b4556e" stroke-width="6" d="M209 23s-4 5 -6 8s-7 15 -10 22s-4 12 -6 18s-4 12 -5 18s0 13 0 16"></path><path fill="none" stroke="#b4556e" stroke-width="2" d="M217 3s-7 16 -9 23s-3 19 -3 19s3 2 3 2M218 15s-3 13 -4 15"></path><path fill="none" stroke="#b4556e" stroke-width="14" d="M214 30s1 15 1 15s2-2 2-2M225 25s2 4 3 5s2 0 3 0s3-2 4-2M239 21 l0.01 0.01"></path><path fill="none" stroke="#b4556e" stroke-width="6" d="M239 21s1 4 1 4s1-1 1-1M232 15s1 1 1 1s18 0 20 0s5 1 6 1"></path><path fill="none" stroke="#643241" stroke-width="14" d="M54 371s-1 1 -1 2s1 5 1 7s0 15 -1 25s-4 30 -6 43s-3 28 -4 36s0 12 -1 20s-3 24 -4 27s-4 7 -4 7s-1-3 -1-4M58 369s22-1 28-1s10 1 16 2s24 5 26 6s3 4 3 6s1 13 0 19s-11 91 -13 109"></path><path fill="none" stroke="#643241" stroke-width="42" d="M72 386s1 29 1 49s-3 71 -3 71s2-14 2-21s2-59 3-66s3-20 3-22s-2-6 -2-7M61 380s10-4 15-5s10 0 17 1s17 6 23 8s11 2 15 4s6 5 9 6s6 1 7 2s1 4 1 7s-1 8 -1 11s-13 96 -13 98s-1 8 -2 7s-6-22 -8-32s-3-23 -4-30s-1-12 -1-18s1-41 1-41s-1 6 -2 8s-3 4 -5 6s-4 3 -6 4s-4 2 -7 2s-10 1 -10 1s3 7 4 12s2 15 2 22s1 12 0 19s-4 35 -4 35s1-15 1-21s1-10 2-14s12-49 12-49s0 14 -1 21s-6 61 -7 68s-1 21 -1 21s-1-12 -1-14M144 484s0-28 1-40s4-22 5-32s0-27 0-27s-11 0 -17-1s-14-3 -20-4s-11 0 -16 0s-7-2 -11-2s-24 0 -28 0s-11-2 -11-2s-2 43 -2 45s-2 5 -2 8s-1 10 -2 17s0 17 -1 23s-3 10 -4 16s-4 29 -5 35"></path><path fill="none" stroke="#643241" stroke-width="14" d="M155 487s-1 25 -1 25s-2 1 -2 1"></path><path fill="none" stroke="#b4556e" stroke-width="6" d="M171 494s0 1 0 1s2-27 1-31s-6-5 -9-8s-6-6 -9-10s-14-18 -16-20s-5-4 -7-5s-4-1 -5 0s-2 8 -2 12s1 7 3 11s6 8 8 11s7 5 7 5s-2 10 -3 14s0 9 0 13s1 8 2 12s4 12 4 12s2-2 2-3"></path><path fill="none" stroke="#b4556e" stroke-width="14" d="M132 433s-1 4 0 6s6 9 9 12s6 6 8 8s3 4 3 7s0 9 0 15s-2 21 -2 21s-2-2 -3-3s-2-3 -2-5s-1-10 -1-16s1-20 1-20s7 31 7 31s2-7 3-10s0-5 1-8s2-7 3-7s2 8 2 10s0 4 0 6s2 11 2 11s-5-4 -6-6s-12-29 -13-31s-1-5 -1-6s-2-2 -2-3s1-2 0-4s-2-3 -3-5s0-3 -1-4s-2-3 -2-2s4 10 8 16s16 20 18 23s4 6 5 9s2 5 2 8s-1 7 -2 10s-2 6 -3 7"></path><path fill="none" stroke="#b4556e" stroke-width="6" d="M173 414s0 4 1 6s8 10 10 12s4 6 4 7s0 2 0 3s-10 44 -11 48s-1 11 -2 13s-3 4 -4 5"></path><path fill="none" stroke="#b4556e" stroke-width="14" d="M175 424s-2 14 -2 15s-2 1 -2 1M175 430s0 4 0 7s-2 11 -2 11s-1 1 -1 1M176 433s0 4 1 6s3 6 3 7s2 1 2 2s0 2 0 3s-7 51 -7 53s-2 5 -3 6M173 451s-4 28 -5 34M138 437s-2-4 -4-5s-4-2 -5-3"></path><path fill="none" stroke="#c8aac8" stroke-width="42" d="M39 339s-7 29 -10 45s-16 98 -18 114s-3 45 -3 47s3 7 3 7s1 0 1 0"></path><path fill="none" stroke="#c8aac8" stroke-width="2" d="M184 499s-1-8 -1-14s2-13 3-20s1-20 1-23s2-6 2-8s0-4 -1-5s-6-9 -9-12s-7-4 -9-5M171 410s0 7 -1 11s-5 26 -5 27s-2 3 -2 3M164 453s-3-6 -3-6s-2 0 -2 0s-16-19 -17-20s-2-2 -4-3s-9-4 -9-4s-4 3 -5 5s-2 4 -2 6s0 6 1 9s3 5 5 7s10 10 12 12M141 459s-1 8 -1 11s0 45 0 54"></path><path fill="none" stroke="#c8aac8" stroke-width="6" d="M131 440s6-3 6-5s-2-3 -4-5s-7-6 -7-6s-1 4 -1 6s1 3 2 4s2 3 2 3s-2-4 -2-4s1 2 2 3s4 3 5 3"></path><path fill="none" stroke="#c8aac8" stroke-width="2" d="M67 373s-4 10 -5 16s-7 27 -10 44s-12 76 -15 91M70 375s3-2 4-2s15 0 18 0s4-2 7-2s12-1 17-1s8 2 14 3s23 1 26 1s7 3 8 3M163 380s-5 42 -6 50M72 384s0 7 0 9s-2 4 -2 5M73 384s12 2 14 2M144 387s7 4 8 5M152 391s0 8 0 9"></path><path fill="none" stroke="#c8aac8" stroke-width="6" d="M131 428s3 9 3 9s0-3 0-5s-2-3 -2-4"></path><path fill="none" stroke="#c8aac8" stroke-width="2" d="M165 440s11 5 13 6M166 444s8 8 9 9"></path><path fill="none" stroke="#f5ebd2" stroke-width="6" d="M135 355s5-7 7-12s8-18 8-18s-2 19 -2 20s3 3 4 3s3 0 5 0s7-2 8-2s3-2 3-2s-2 1 -2 2s-4 9 -4 10s0 4 1 4s16 4 16 4s-5 11 -5 13s0 4 1 5s9 2 9 2s-3 4 -4 5s-3 3 -4 3M173 392s0-15 0-17s-1-7 -1-6s2 12 2 12s0-8 -1-12s-5-7 -6-9s-2-3 -4-4s-5-2 -8-3s-12-1 -12-1s9-1 10-1s2 2 2 2s-2 0 -3 0s-5-3 -7-3s-5 0 -5 0s7-2 7-2s0 2 0 2s-3 1 -4 1s-2-1 -2-1s1-1 2-1s7 1 7 0s-4-4 -6-3s-4 7 -5 8M139 354s11 1 13 1"></path><path fill="none" stroke="#c8aac8" stroke-width="2" d="M58 481s0 7 0 9s-3 4 -2 5s5 0 7 0s4 2 5 2"></path></svg>