<!DOCTYPE svg PUBLIC "-//W3C//DTD SVG 1.1//EN" "http://www.w3.org/Graphics/SVG/1.1/DTD/svg11.dtd"><svg id="drawception" xmlns="http://www.w3.org/2000/svg" stroke-linejoin="round" stroke-linecap="round" data-time="0" width="600" height="500" viewBox="0 0 598 498"><rect width="100%" height="100%" fill="#fffdc9"/><path fill="none" stroke="#ff6600" stroke-width="42" d="M372 54s-1-3 0-4s5-5 8-6s20-4 24-4s8 3 10 5s3 3 5 6s4 9 5 11M396 43s0-2 0-2s5-2 8-2s7 1 10 2s7 4 9 6s3 4 4 6s4 13 4 15s0 4 -1 6s-2 8 -4 11s-3 8 -7 10s-11 4 -15 4s-8 0 -11-1s-5-4 -7-6s-4-5 -6-8s-2-5 -3-7s-1-4 -1-6s0-4 0-6s1-6 2-8s3-5 4-6s3-1 4-1s7 0 9 1s5 3 6 3s1 2 1 2s-4-4 -5-5M406 57s2 0 2 0s-1-8 -1-9s-1-2 -2-3s-2-2 -3-2s-7-4 -11-4s-9 2 -11 3s-3 3 -5 4s-3 3 -4 5s-4 11 -4 14s0 4 1 7s3 9 4 11s2 3 3 5s5 7 7 9s4 2 6 3s9 3 14 2s14-5 15-6s3-4 2-4s-6 4 -9 5s-5 2 -8 2s-14-1 -16-1s-3-2 -4-3s-4-3 -5-6s-3-10 -3-14s0-9 1-12s3-5 5-7s8-5 10-6s3-1 5-1s11 1 14 2s4 3 6 6s4 9 4 13s0 8 -1 11s-2 8 -3 9"></path><path fill="none" stroke="#ff6600" stroke-width="14" d="M436 97s5-2 7-3s4-1 6 0s17 8 19 9s4 3 5 5s3 3 3 5s1 20 2 22s3 4 5 5s4 3 6 3s8-4 10-5M435 104s0-1 0-1s0 12 0 16s1 6 3 9s6 10 8 12s5 4 6 5s1 3 3 4s6 3 9 3s8 1 11 0s5-1 8-3s13-8 15-10M439 101s0-1 0-2s2-2 3-2s9-3 11-3s4-1 6 0s7 5 9 7s3 3 4 5s4 6 4 9s0 20 0 24M451 97s0-2 0-2s3 1 4 1s2 1 3 2s4 3 5 6s3 7 3 11s0 25 0 25s-16-34 -16-34s1-1 1-1s6 5 8 9s7 17 8 18s1 4 0 5s-3 3 -4 3s-3 0 -4-1s-4-3 -5-5s-6-10 -8-14s-3-10 -3-10s3 6 4 8s2 4 2 7s1 12 1 12s-8-25 -8-25s5 3 6 5s9 17 11 20s5 6 7 7s4 2 6 2s4-1 4-1s1 1 1 1M362 101s0-2 -1-2s-5-1 -7 0s-10 5 -13 7s-5 6 -7 8s-2 4 -2 7s0 8 0 9M346 104s0-1 0-1s-1-1 -2-1s-7 5 -9 8s-3 5 -4 9s-1 13 -1 16s-2 6 -3 7s-3 0 -5 0s-5-1 -7-2s-3-1 -4-3s-2-6 -2-6s1 5 2 7s2 4 4 5s5 2 8 2s13-2 17-3s7-1 10-4s5-8 7-13s4-13 4-16s-1-9 -1-9s2 7 1 11s-4 15 -6 18s-5 7 -6 8s-2 2 -3 2s-11 2 -12 2s-2 0 -3-1s-1-3 -1-5s3-5 4-7s3-4 5-6s10-8 11-9s4-3 4-2s-5 15 -6 16s-3 4 -4 3s-1-4 -1-6s2-8 3-10s2-3 3-4s3-2 3-1s0 3 0 5s-1 9 -2 12s-3 6 -4 6s0-3 0-5s1-2 2-4s2-4 4-5s5-3 6-3s1 4 1 5s0 3 -1 4s-3 6 -6 8s-8 5 -9 5s-2 0 -2 0s0-2 1-4s2-3 3-5s6-8 7-9s3-2 3-2M361 109s4-2 4-1s0 9 -1 13s-2 7 -3 9s-2 3 -4 5s-6 4 -10 6s-11 3 -13 4"></path><path fill="none" stroke="#0247fe" stroke-width="42" d="M431 164s-2-3 -3-4s-16-4 -17-4s-3 1 -4 1M423 160s1 2 1 2s-10-5 -14-7s-7-2 -11-2s-6-1 -10 0s-9 3 -11 4s-5 3 -5 3s7-4 6-4s-9 1 -12 3s-2 5 -3 9s-1 9 -1 14s0 29 0 31s1 4 1 6s-2 31 -2 34s1 8 1 10M417 160s2-1 4-1s5 1 7 2s5 2 6 3s-1 3 -1 4"></path><path fill="none" stroke="#ec008c" stroke-width="42" d="M435 258s-1 4 -1 5s1 2 2 2s21-3 23-4s4-2 6-4s4-3 5-5s2-3 3-5s3-8 4-12s2-10 2-14s1-7 0-12s-3-15 -4-17s-1-4 -3-6s-5-3 -7-4s-3-1 -5-1s-5 2 -6 2s-2 1 -2 2s0 2 0 2M451 183s1-4 1-5s1-1 2-1s9 3 10 3s2 1 3 2s5 7 6 10s2 6 2 10s0 8 0 13s-1 10 -2 15s-2 9 -4 13s-5 9 -7 11s-5 3 -8 3s-7-2 -9-3s-3-2 -3-4s0-6 0-9s1-5 2-8s6-16 8-21s3-13 3-13s-4 10 -6 16s-5 23 -7 29s-6 15 -6 15s-1-6 -1-9s2-15 3-22s2-11 4-17s7-19 7-19s-17 65 -17 67s2 4 4 5s13 4 19 4s16-1 18-1s4-2 5-4s4-10 6-15s3-10 4-17s1-20 0-25s-3-10 -4-12s-2-3 -3-5s-5-7 -8-8s-10 1 -10 1s3-3 5-4s4 0 6 1s3 3 5 5s5 9 6 11s1 3 1 5s1 8 0 13s-2 12 -3 16s-2 8 -4 11s-4 6 -5 7"></path><path fill="none" stroke="#0247fe" stroke-width="42" d="M427 172s1 1 1 1s0 3 0 4s-4 12 -7 19s-16 38 -18 42s-6 11 -6 11s7-12 8-15M419 196s8-21 9-24s7-6 7-6s0 6 -1 9s-5 14 -9 23s-15 30 -18 36s-9 15 -10 16s-2 2 -3 3s-1 5 -3 6s-12 2 -12 2s-1-4 -1-5s0-19 1-29s3-26 4-32s1-10 3-16s7-19 7-19s-5 65 -5 69s-1 8 -2 12s-4 11 -4 11s2 2 2 2M419 180s1 0 1 0s0-1 0-2s5-8 6-9s3-3 4-2s1 4 1 6s-1 4 -1 6s-4 20 -8 32s-17 44 -20 53M429 184s-10 42 -11 49s-3 16 -3 20s1 7 0 11s-2 9 -3 11M414 236s-5 31 -4 40s6 17 9 22s7 7 9 10s6 10 6 10s-5-6 -7-10s-10-19 -11-20s-2-3 -2-5s-3-15 -3-15s4 7 6 10s27 55 28 56s2 4 1 5s-4 1 -5 1M367 263s0-1 0-1s-5 10 -8 15s-4 11 -7 17s-8 15 -11 22s-6 21 -6 21s8-12 12-20s20-40 20-40s-3 8 -5 12s-9 15 -14 23s-17 21 -18 23s-1 6 -1 7s3 2 4 2s9 2 13 2s7 1 11 1s18 0 26 0s19-2 21-2s4-1 7-2s7 0 10-1s9-3 10-4s1-2 1-4s-1-4 -2-5s-8-11 -10-14s-4-4 -7-7s-10-13 -10-13s-2 11 -3 15s-2 8 -4 11s-3 7 -5 9s-5 4 -7 4s-3-1 -4-2s-3-4 -4-6s-1-5 -1-8s2-14 3-16s3-4 4-5s2-2 3-2s6 0 7 0s3 1 3 2s1 5 0 7s-5 15 -6 18s-3 6 -4 8s-3 3 -4 4s-2 1 -3 0s-2-4 -2-6s3-21 3-25"></path><path fill="none" stroke="#444" stroke-width="42" d="M321 366s-1 0 -1 0s-2 3 -3 5s-5 10 -8 16s-5 11 -7 18s-7 26 -8 31s-4 9 -5 13s-2 8 -3 13s-2 19 -2 19s25-1 35 0s20 4 25 5s9 0 13 0s9-2 14-2s45-1 49-1s8 0 13-1s10-3 16-4s18 0 18 0s2-8 2-12s-1-7 -2-11s0-10 -1-15s-9-38 -10-40s0-5 -1-8s-4-9 -5-14s-2-16 -2-16s6 13 8 18s3 9 5 15s6 19 7 25s3 12 3 15s1 5 1 7s0 26 0 30s2 8 2 12s-1 12 -1 12s-2-4 -3-6s-3-11 -5-17s-6-12 -9-20s-15-40 -15-40s3 6 3 9s3 26 3 30s-2 9 -3 12s-2 6 -4 9s-5 5 -8 7s-7 3 -12 3s-11 0 -19-1s-25-5 -27-6s-5-1 -7-3s-6-6 -6-6s2-4 3-5s15-9 21-12s10-6 17-8s33-11 34-11s4 1 3 1s-7 4 -11 6s-14 6 -21 8s-15 3 -23 4s-13 0 -22 0s-31-3 -35-3s-12 0 -12 0s28-3 36-4s15-1 21-1s11 0 14 1s8 3 8 3s0 4 -1 5s-4 4 -7 5s-6 2 -10 3s-9 1 -14 1s-30-3 -30-3s8-9 10-11s3-5 4-7s0-5 0-7s0-3 -1-5s-4-7 -6-9s-4-2 -6-4s-4-3 -5-5s-2-3 -2-5s-3-16 -3-19s0-5 1-8s3-6 4-7s4-1 5-1s24 1 34 1s15-2 25-2s47 1 47 1s-10 4 -13 5s-6 1 -7 1s-3-1 -3-1s5 0 7 0s3 1 4 2s2 2 2 4s1 5 1 7s0 5 -1 7s-3 5 -6 7s-7 4 -11 5s-19 5 -29 6s-31 3 -32 3s-3-1 -3-2s2-2 3-3s8-4 13-6s27-10 32-12s9-3 15-4s17 0 19 1s3 4 4 6s1 4 0 6s-1 4 -3 5s-5 3 -9 4s-11 1 -16 1s-9-1 -14-2s-30-11 -31-12s-5-3 -4-3s19-4 27-5s22-3 24-3s5 2 5 1s-6-5 -7-6M428 376s2 0 2-1s0-3 1-4s2-2 3-3s5-2 5-2s-3 0 -4 0s-23 5 -29 7s-12 6 -15 7"></path><path fill="none" stroke="#0247fe" stroke-width="14" d="M331 329s1-6 0-7s-5 1 -6 3s-6 17 -6 17s2-12 2-12s-7 11 -8 12s-1 3 0 4s5 2 8 2s20-1 28-1s13 1 22 1s33-1 35-1s5 1 7 1s12-2 19-3s22-1 22-1s-3 3 -5 4s-3 1 -5 1s-9 0 -10 0s-3-1 -4-1s-52 1 -53 1s-2-1 -3-1s-32-1 -34-1s-4-2 -6-2s-5-1 -6 0s1 3 3 4s6 3 10 3s13 0 19 0s11 3 17 3s41 0 50-1s23-4 24-4s2-2 2-3M426 153s0-2 0-2s4-2 5-3s3-1 4 0s10 6 12 7s3 2 5 4s5 5 7 8s10 18 13 26s5 12 8 20s11 35 12 37s1 4 1 6s-1 6 -1 7M444 177s-1 0 -1 0s0 1 0 1s2 2 2 3s0 3 1 5s3 8 5 12s17 30 20 36s3 11 6 18s10 20 12 25s4 13 4 13s-15-38 -19-48s-4-17 -8-26s-13-25 -14-28s-3-10 -3-10s12 13 17 20s9 17 11 21s3 8 4 12s5 23 6 27s3 7 4 10s4 5 4 6s0 2 0 2s-2-2 -3-2M445 200s-2-5 -2-5s1 5 2 7s16 32 18 36s3 9 5 13s17 35 19 38s7 8 8 9s0 4 0 4s-1-2 -1-2M480 239s-1-2 -1-2s22 47 22 47s-2-3 -3-5s-12-31 -15-37M480 232s-5-10 -5-10s18 34 20 38s4 11 5 13s2 2 3 4s1 5 2 7s5 9 7 13s2 7 3 10s4 5 5 8s5 22 5 24s-1 5 -3 6s-8 3 -8 3s-3-3 -5-5s-3-5 -4-7s-11-31 -14-38s-6-12 -9-18s-7-10 -9-15s-5-13 -5-14s0-4 0-3s22 46 27 55s11 23 12 26s3 10 3 10s1-7 1-11s-1-7 -3-11s-7-13 -10-21s-10-28 -10-28s2 0 3 1s3 4 5 6s3 6 5 9s4 8 6 12s11 32 11 32s-4-7 -6-12s-6-18 -7-22s-2-11 -2-11s9 26 10 28s1 7 1 7s-2-3 -3-4"></path><path fill="none" stroke="#ec008c" stroke-width="6" d="M441 224s-2-4 -2-6s-6-32 -6-36s1-8 2-12s3-8 5-11s6-4 9-4s10 1 12 2s5 3 4 3s-5-4 -8-5s-5 0 -7 0s-5 1 -7 3s-4 9 -5 11s-1 4 -1 6s0 12 1 20s6 26 7 31s3 11 4 13"></path><path fill="none" stroke="#0247fe" stroke-width="14" d="M363 152s0-1 0-1s-2-3 -4-3s-14-2 -17-2s-6 0 -9 1s-15 5 -15 5s0 3 0 3M360 151s2-3 1-3s-26 2 -36 4s-19 4 -24 6s-8 3 -13 5s-19 4 -21 5s-7 3 -7 3s4-1 6-1s5 1 6 1M324 156s6-3 6-4s-3 0 -4 0s-17 5 -26 7s-21 4 -27 5s-10 2 -15 4s-14 7 -16 8s-3 2 -4 4s-4 9 -4 12s2 5 4 6s4 2 6 2s10 1 15 1s10-1 15-2s21-6 35-12s47-21 47-21s-12 5 -19 8s-16 6 -24 8s-17 5 -26 6s-26 3 -26 3s2-3 4-5s6-3 8-4s61-23 65-24s8-3 12-4s10-1 10-1s-2 2 -3 3s-7 4 -11 6s-24 9 -34 12s-19 4 -26 5s-11 2 -17 2s-17 0 -18 0s-2-1 -2-2s3-3 6-4s8-3 11-4s50-10 53-11s9 0 11 0s4 1 5 1s1 1 1 2s-3 3 -6 5s-7 4 -11 6s-9 4 -14 5s-46 9 -49 10s-6 2 -9 3s-9 1 -9 1s28-14 28-14s0 6 0 7M482 276s-2 0 -2 0s1 7 2 10s3 4 4 6s11 24 14 30s4 12 6 17s4 8 6 13s7 24 9 29s5 11 6 13s4 3 5 3s3 1 4 0s3-7 3-12s-2-12 -4-19s-8-23 -15-37s-33-59 -33-59s0-2 0-2s6 3 9 5s6 6 9 9s5 7 7 10s20 45 24 54s7 19 9 26s3 13 3 17s-3 7 -6 9s-8 2 -9 2s-2-1 -3-2s-2-5 -2-8s-4-28 -5-33s-3-13 -3-13s2 2 3 3s2 4 3 6s7 25 7 25s-5-12 -5-12s4 7 5 8"></path><path fill="none" stroke="#ffdab9" stroke-width="14" d="M541 414s-1-4 0-4s4 3 5 3s1 1 1 2s1 3 1 4s-1 10 -1 10s-3 0 -4 0s-2-1 -2-2s-4-11 -4-12s1-3 1-4s1-1 2-2s3-1 4-1s4 1 5 3s2 6 2 8s0 4 0 5s-1 3 -2 3s-2 0 -3 0s-3-1 -4-2s-3-7 -3-9s1-3 2-4s2-2 4-2s5 1 6 3s2 4 2 7s0 7 -1 9s-2 5 -3 6s-2-1 -3-2s-2-2 -3-4s-3-6 -4-8s-1-4 -1-5s2-3 3-3s9 1 9 1s2 10 2 11s-1 3 -1 4"></path><path fill="none" stroke="#ffdab9" stroke-width="6" d="M537 414s-2-2 -2-2s-2 5 -3 7s-7 27 -7 27s11-38 11-38s1 9 0 14s-12 28 -12 28s-1-3 -1-5s1-9 3-14s7-15 7-15s1 5 0 8s-5 19 -5 19s-1-3 -1-5s2-14 3-18s6-8 6-8s2 3 2 3M548 427s2 6 2 9s0 8 0 12s-2 14 -2 14s-1-6 -1-10s2-10 2-14s0-10 0-10s-7-4 -7-4s3 12 4 18s1 18 1 18s2-7 3-11s1-11 1-13M550 427s0-2 0-2s2 0 3 1s2 5 2 7s-3 27 -3 27s2-4 2-5M556 426s0-2 0-2s2 3 2 5s0 3 0 5s-1 8 -1 10s-2 4 -2 4s0-2 0-2"></path><path fill="none" stroke="#fff" stroke-width="14" d="M408 142s0-3 1-3s5 1 4 1s-8-5 -13-6s-13 2 -15 3s-3 3 -3 5s0 10 0 15s3 16 3 18s-1 6 -1 6s3-6 4-7s0-3 1-4s5-8 8-13s13-16 13-16s-3 7 -5 11s-5 8 -9 12s-13 12 -13 12s-1-7 -1-11s2-23 2-23s0 4 1 5s3 1 4 1s12-4 12-4s-2 3 -4 4s-4 2 -5 2s-2 1 -3 0s-2-3 -2-3s1-1 1-1s-1 4 -1 5M384 148s1 2 1 2s-2-3 -3-5s0-6 0-6s1 6 1 7"></path><path fill="none" stroke="#0247fe" stroke-width="14" d="M391 146s1-2 1-2s4 9 4 9s-10 8 -10 8s0-7 0-8s-2-1 -2-2s0-2 0-2s4-5 5-4s0 7 0 8M386 167s0-5 0-4s-1 24 -1 24s2-24 2-24s-5 18 -5 21s0 8 0 8s-2-6 -1-10s7-15 7-15s-3 2 -4 4s-8 19 -8 19s5-2 6-3M390 163s-2 1 -2 2s-1 5 -1 7s-1 21 -1 23s-2 4 -3 5"></path><path fill="none" stroke="#0247fe" stroke-width="42" d="M350 238s-2 2 -3 2s-4 0 -5-1s-3-4 -2-4s6 3 7 4s2 1 2 2s1 4 1 4s-1 1 -1 1s-4-1 -6-2s-7-7 -9-10s-3-6 -2-9s7-20 8-22s3-4 4-5s3-2 4-2M349 195s-5 2 -7 4s-9 11 -10 13s-2 4 -3 6s-1 3 -1 5s1 4 1 6s0 3 1 5s1 4 3 5s7 6 11 7s13-1 15-1M415 204s-2-2 -2-2s4 2 5 3s3 4 3 6s1 16 1 19s-4 6 -5 7s-4 2 -4 2s-1-1 -1-1M405 243s-2-1 -2-1s12 2 14 2s5-1 6-2s3-3 3-4s0-2 0-3s2-3 2-5s1-5 0-8s-5-15 -6-17s-3-6 -3-5s5 13 5 19s-3 15 -3 17s-2 3 -3 4s-3 2 -5 3s-3 1 -5 1s-12 0 -14 0M347 198s0-1 0-2s-1-2 -1-2s-1 0 -1 0s-6 2 -8 4s-4 4 -5 6s-2 5 -3 8s-2 9 -2 12s0 6 1 7s3 2 3 2M337 213s0-2 -1-2s-3 0 -4 0s-3 1 -4 2s-5 9 -5 9s3 2 3 2s1-1 1-1M337 205s-1-2 -2-2s-2 1 -2 1s-8 10 -9 12s-2 3 -2 5s1 12 2 16s5 6 7 8s3 2 5 3s5 2 8 3s8 2 10 2M360 261s0-4 -1-4s-3 2 -4 3s-5 6 -6 9s-7 21 -8 27s0 11 -1 15s-2 8 -3 12s-5 10 -5 10s14-57 15-59s3-5 4-8s4-12 4-12s-13 34 -16 43s-5 21 -6 24s-1 9 -1 9s4-7 5-8"></path><path fill="none" stroke="#0247fe" stroke-width="14" d="M431 156s0-2 0-2s-2 7 -2 10s1 44 1 44s0-7 0-8M430 157s1-1 1-1s-2 4 -2 7s0 6 0 9s3 17 3 25s-2 18 -2 21M338 247s-2-2 -3-3s-2-1 -3-1s-2 2 -2 3s1 13 1 20s-1 15 -2 22s-1 12 -3 19s-10 33 -10 33s5 4 6 5s3 1 4 1s6 0 9 0s19 3 31 4s47 1 59 0s31-4 31-4s-3-2 -4-2"></path><path fill="none" stroke="#c69c6d" stroke-width="14" d="M404 132s-1-2 -1-2s-4 4 -4 4s6-3 7-3s-1 4 -3 4s-10 0 -12-1s-3-2 -3-4s1-11 1-13s0-6 -1-6s-2 4 -2 6s0 12 0 14s-1 5 -1 5s0-5 0-7s1-7 1-6s0 15 0 15s7 3 8 3s2 0 3 0s2-1 3-2s2-3 2-4s-1-26 -1-26s-1 23 -1 23s4-21 4-21s1 5 1 8s-1 15 -1 15s2-5 2-9s0-13 0-13s-1 18 -1 20s-3 6 -3 6s0-2 0-3"></path><path fill="none" stroke="#ffdab9" stroke-width="42" d="M389 108s0-1 0-1s-1 1 -1 1s-2 0 -3 0s-5-2 -7-3s-2-5 -2-5s2 5 3 6s5 3 5 3s-1-2 -2-3s-3-2 -3-2s4 5 4 5s-2-1 -3-2s-2-2 -2-2s8 6 10 7s4-1 6-2s10-7 10-7s-9 6 -9 6s5 0 7-1s4-3 5-3s1-2 1-2s-9 6 -10 7s-5 1 -4 1s9-5 10-6s2-2 2-3s1-4 1-6s0-17 0-19s-1-4 -3-5s-8 0 -12 0s-12 3 -12 3s4-2 3-3s-8-1 -8-1s-3 2 -3 4s1 19 1 19s-1-5 -1-8s0-5 0-7s2-6 2-6s-1 3 -1 4s1 9 1 12s2 8 2 9"></path><path fill="none" stroke="#ffdab9" stroke-width="14" d="M427 106s4-7 5-8s2-2 3-1s3 4 3 5s-1 2 -2 3s-1 2 -2 2s-5 1 -6 0s0-3 1-4s3-3 4-3s2-1 3 0s1 3 1 4s-2 3 -3 4s-2 1 -3 1s-3 0 -3-1s0-3 1-4s4-3 5-3s-1 4 -1 5M349 101s1 1 1 1s-2 2 -3 2s-4-1 -4-1s0-1 1-2s2-2 3-2s5 0 6 0s2 2 1 3s-4 2 -5 2s-2 0 -2-1s-1-5 -1-6s1-1 2-1s1 0 2 1s2 2 2 3s1 4 0 4s-3-1 -4-1M393 58s-2-1 -2-2s-1-9 -1-9s-2 9 -2 9s0-9 0-9s0 8 0 8s0-6 -1-6s-3 2 -4 4s-2 6 -2 6s1-4 1-6s2-4 2-4s-3 4 -3 5s-2 0 -2 1s-1 3 -1 4"></path><path fill="none" stroke="#ff6600" stroke-width="6" d="M383 39s1-1 1-1s-2 6 -4 8s-17 18 -21 22M391 36s0 2 -1 3s-6 9 -10 14s-11 12 -16 16s-13 6 -16 7M381 30s0-2 0-2s-2-1 -3-1s-7 0 -11 1s-17 9 -20 11s-5 3 -7 5s-4 4 -4 6s2 3 2 4M378 35s0-3 -1-3s-7-2 -12-1s-14 5 -15 6s-3 2 -4 3s-5 7 -7 11s-3 12 -3 14s0 4 1 6s3 8 4 10M350 43s0-3 -1-3s-5 2 -7 3s-3 3 -4 5s-4 9 -5 13s0 7 1 10s2 7 3 8s1 3 2 3s4-2 5-2M352 74s1-1 1-1s-1-1 -1-1s-2 11 -3 16s0 13 0 16s2 7 2 8M346 74s2 11 2 17s-1 20 -1 21s2 3 2 3M388 37s1-1 1-1s1 2 1 3s-1 6 -3 8s-10 13 -15 18s-9 8 -12 10s-7 3 -9 3s-5-1 -5-1s0-1 0-1M365 52s1-1 1-1s-2 4 -4 6s-7 7 -10 10s-7 6 -8 7s-4 3 -4 2s3-4 4-6s2-3 4-5s4-4 7-6s13-9 13-9s-1 2 -1 3s-6 11 -10 15s-11 10 -11 10s-3-1 -3-2s-1-4 0-6s4-9 6-12s6-6 6-6s-12 27 -12 27s-2 0 -2-1s2-6 2-7M357 45s-2 0 -3 0s-4 1 -6 3s-8 9 -10 12s-3 7 -3 9s0 5 0 6s0 2 1 2s4 1 5 0s2-2 2-3M353 47s0-4 0-5s-2 0 -2 0s-8 4 -11 7s-3 6 -4 9s-1 7 0 10s4 9 4 9s2-2 3-4s1-5 1-6M345 57s0-3 -1-3s-2 2 -3 4s-3 8 -4 10s-2 7 -1 6s5-10 7-14s3-10 3-10s-2 3 -3 5s-2 10 -2 10s3-3 4-4M376 34s1-2 0-3s-4-3 -5-3s-2 0 -3 0s-5 1 -7 2s-15 8 -17 9s-3 4 -4 6s-4 13 -4 15s-1 4 -1 6s1 4 1 5s2 2 2 2M397 38s-3-2 -3-1s-1 4 0 7s2 7 4 11s12 15 14 17s3 3 6 4s8 3 10 4M392 53s-4-6 -4-6s-1 0 -1 0s2 7 4 11s6 9 9 12s6 5 8 7s4 3 7 4s11 4 12 4s1 0 2 0s2-2 2-3M399 55s0-1 0-1s26 28 26 28s0-3 -1-4s-6-4 -10-7s-18-16 -18-16s9 4 14 6s12 7 14 8s3 3 4 4s4 3 3 4s-5 1 -7 0s-10-5 -15-8s-12-8 -13-10s-2-5 -2-6s2-1 3-1s3 1 5 2s9 6 11 7s3 2 4 4s4 11 4 11s-4-2 -6-3s-10-8 -12-10s-4-4 -5-6s-3-5 -3-6s2-3 3-3s14 3 16 4s4 2 6 4s6 11 7 12s1 3 1 4s-1 3 -2 3s-4-2 -5-3s-23-22 -23-22s4 0 6 1s5 2 7 4s5 5 7 8s4 11 4 11s-5-2 -6-3s-2-2 -3-3s-12-16 -12-16s6 3 8 4s3 3 4 4s3 3 4 5s4 8 3 7s-12-17 -12-17s10 14 10 14s2 1 2 1s1-3 1-4M363 39s0-1 -1-2s-2 0 -2-1s2-4 3-6s3-2 4-3s2-3 3-4s6-3 11-4s13-3 18-4s9 0 13 1s9 2 12 3s6 4 9 6s7 7 9 9s4 4 5 6s6 10 7 14s2 9 2 13s-1 8 -2 12s-4 11 -4 11s0-23 0-26s0-5 -2-8s-7-9 -8-10s-1-3 -1-3s5 4 6 7s2 6 3 9s2 7 2 11s0 14 0 14s2-4 2-6s0-16 -1-20s-3-7 -6-10s-15-18 -17-20s-4-4 -7-5s-6-2 -9-2s-6-1 -10 0s-12 4 -12 4s0-3 1-4s11-4 13-4s3 0 5 0s5 1 6 2s1 2 2 3s7 4 6 4s-20-5 -23-5s-5-1 -8 0s-19 8 -20 9s-2 3 -3 4s-1 0 -2 1s-2 2 -2 3s0 2 0 2M379 28s0-3 0-3s-1-1 -1-1s-5 1 -7 2s-12 9 -14 11s-2 5 -2 7s3 4 4 5M408 55s0-1 0-1s-2 0 -2 1s9 17 10 18s3 3 3 3s-2-4 -4-6s-6-7 -9-9s-7-5 -7-5s1 6 2 8s3 5 4 7s2 3 3 4s3 3 4 3s2-2 2-3s-1-2 -1-3s-10-15 -10-15s2 4 4 6s10 10 10 10s-4-4 -6-6s-5-2 -6-3"></path><path fill="none" stroke="#fff" stroke-width="14" d="M403 91s2 3 2 4s-1 3 -2 3s-1 0 -2-1s-2-1 -2-2s-1-2 0-3s3-3 4-3s3 0 4 1s1 3 1 4s-1 3 -1 4s-1 1 -2 1s-1 0 -2-1s-2-1 -2-2s0-3 0-4s1-2 2-2s2 0 2 1s-2 4 -2 5M366 91s1-2 1-2s1 0 1 0s1 2 1 3s-1 3 -2 3s-3-1 -3-2s0-1 0-2s1-1 2-2s3-1 4-1s1 1 1 2s0 4 -1 5s-2 0 -3 0s-1-1 -1-2s1-5 1-6s2 0 3 0s1 2 1 3s0 4 -1 5s-3-1 -4-1s-1-1 -1-2s1-3 1-3s2 0 2 1s0 3 0 3"></path><path fill="none" stroke="#0fad00" stroke-width="14" d="M369 95s-1-2 -1-2s1 0 1 0s0 2 0 2s0-2 0-2s-1 0 -1 0s-1 2 -1 2M404 95s0-2 0-2s-1 6 -1 6s-2-2 -2-2"></path><path fill="none" stroke="#000" stroke-width="6" d="M369 94s0 2 0 2s-1-1 -1-1M401 98s0 1 0 1"></path><path fill="none" stroke="#000" stroke-width="2" d="M394 87s0-2 0-2s4-4 6-5s5-1 7-1s5 2 6 4s3 6 3 9s-1 6 0 7s4-3 5-3s2 0 2 0M418 93s2 0 2 0s2-4 2-4s1 0 1 0M416 89s2-1 3-2s3-4 4-5M378 83s0-2 -1-3s-5-3 -6-4s-2-1 -4-1s-3 1 -5 2s-3 4 -4 7s0 8 0 9M358 93s-7-5 -7-5s2-2 2-2M357 84s-1 1 -1 1s-2-2 -3-3s-1-4 -1-4s2 1 2 1M356 83s-3-5 -4-6"></path><path fill="none" stroke="#603913" stroke-width="2" d="M376 64s-12 3 -13 3s-1 2 -1 2M405 63s0-1 0-1s3 0 4 0s4 1 5 2s3 4 4 5M398 33s2-1 3-1s6 0 10 1s9 4 12 6s5 3 7 5s11 14 12 16s2 5 2 7s0 3 0 5s2 4 2 5M381 30s-2-2 -3-3s-3 0 -4 0s-7 3 -9 4s-3 2 -4 3s-1 3 -1 3M444 126s3 6 5 8s15 11 16 12s3 1 3 1M353 132s-2 2 -4 3s-6 3 -7 3"></path><path fill="none" stroke="#000" stroke-width="6" d="M383 120s0-2 1-2s3 0 4 1s4 2 5 3s0 3 -1 3s-3 0 -5-1s-5-3 -5-4s5 0 6 0s1 1 2 1s2 1 2 2s0 3 -1 3s-3 0 -4-1s-4-3 -4-4s0-3 1-3s4-1 5 0s4 3 4 4s0 2 -1 3s-2 1 -3 1s-2 0 -3-1s-1-3 -1-3s1-1 1-1"></path><path fill="none" stroke="#c69c6d" stroke-width="6" d="M383 106s-3-1 -3-1s2 1 2 1"></path><path fill="none" stroke="#fff" stroke-width="6" d="M369 88s0-1 0-1s1 2 1 2M404 91s-1-1 -1-1s0 2 0 2"></path><path fill="none" stroke="#ffdab9" stroke-width="6" d="M342 164s-1-1 -1-1s0-6 -1-8s-3-5 -3-6s0-2 1-3s9-4 9-4s3 4 3 5M339 159s0-2 0-3s2 0 3 0s2 0 2 1s1 2 1 3s-2 5 -4 6s-4 2 -5 1s-4-6 -4-7s0-3 1-4s4-5 5-6s3-2 4-2s2 0 3 0s4 1 5 2s3 5 3 6s0 2 0 3s-1 4 -3 6s-3 4 -6 4s-7 0 -9-2s-4-6 -5-7s-1-3 -1-4s2-3 3-4s2-1 3-2s6-3 8-3s4 0 5 0s1 1 1 2s-4 13 -5 15"></path><path fill="none" stroke="#ffdab9" stroke-width="14" d="M340 155s-2-1 -2-1s6-3 7-3s2 4 2 5s0 3 0 4s-1 2 -2 3s-2 1 -3 1s-3-1 -4-2s-2-4 -2-6s0-3 0-4s2-3 3-4s2-2 3-2s4 0 5 0s3 1 4 2s3 4 3 6s-2 7 -3 9s-3 3 -5 4s-6 0 -7 0s-1-2 -2-3s-1-4 -1-4s1 0 1 0"></path><path fill="none" stroke="#ffdab9" stroke-width="6" d="M341 148s-2-2 -1-3s15-16 15-16s-18 16 -18 16s10-10 12-12s3-6 4-6s0 5 0 6M343 136s1 0 1 0s13-14 13-14s-10 17 -11 18s-1 3 -1 4M369 142s0-2 0-2s-9 0 -13 1s-9 3 -9 3s16-3 18-3s4-2 5-2M372 142s0-2 0-2s-16 4 -19 5M374 151s-11 0 -13 0s-5 2 -6 2M373 161s0-1 0-1s-12 1 -14 1s-4 2 -5 2M368 172s0-2 -1-2s-7 0 -8 0s-2-1 -3-1s-2 0 -4 0s-6 2 -7 2"></path><path fill="none" stroke="#fff" stroke-width="6" d="M331 149s1-3 1-3s-2 3 -2 5s-1 9 -1 10s0 3 1 4s4 7 5 9s2 4 1 5s-3 1 -4 0s-5-8 -6-12s0-9 0-11s2-4 2-4s-1 2 -1 3s0 10 0 12s0 4 1 5s3 3 3 3M531 402s6 0 9-1s10-5 10-5s-6 1 -8 2s-4 3 -6 3s-5-1 -5-1s5 2 8 1s12-6 12-6s-3 2 -5 3s-16 4 -16 4s5 1 9 0s13-3 13-3s-10 3 -12 3"></path><path fill="none" stroke="#000" stroke-width="2" d="M376 263s-1 0 -1 0s4 0 7 1s8 4 13 4s25-4 30-5M441 199s5 4 7 7s3 11 3 13"></path><path fill="none" stroke="#fff" stroke-width="42" d="M28 376s0-2 -1-2s-1 0 -2 0s-13 4 -14 4s-5 0 -4 0s7-3 10-3s32 0 33 0s3-1 5-1s23 0 26 0s6-1 8-1s87 1 92 1s17 2 17 2s-6 0 -8 0s-5-2 -6-2M18 380s-4 0 -4-1s-2-13 -2-13s24-4 33-4s15 2 24 2s17-2 29-2s34 0 42 0s13 2 21 2s19 0 28 1s18 4 24 6s9 5 15 9s13 9 20 16s20 21 22 24s4 7 6 9s4 3 5 5s16 25 24 35s24 25 24 25s-4-8 -7-11s-26-33 -34-41s-14-12 -24-17s-29-12 -33-14s-10-9 -10-9s10 6 15 9s9 7 13 10s41 35 48 41s12 13 17 19s14 20 14 20s-4-10 -7-16s-13-20 -19-28s-11-14 -17-21s-21-23 -21-23s6 2 8 4s31 32 41 41s19 16 26 22s13 12 17 16s9 12 9 12s-21-21 -32-32s-29-32 -32-35s-7-6 -11-9s-31-22 -33-23s-4-2 -6-3s-11-8 -13-10s-3-5 -6-6s-9-3 -13-3s-29-1 -49-1s-76 2 -77 2s-6 0 -5 1s11 5 17 7s15 4 22 6s64 12 76 15s23 6 33 9s18 7 26 11s19 11 21 12s6 3 6 5s-3 6 -6 7s-16 4 -27 6s-29 6 -50 7s-56 2 -77 2s-32-1 -51-2s-55-5 -60-5s-16 0 -16 0s7-2 10-2s22-2 33-3s76-6 104-8s55-2 68-2s27 2 35 4s14 5 19 8s8 7 9 10s0 6 -2 8s-10 8 -18 11s-19 5 -31 6s-36 1 -58 0s-58-5 -73-7s-27-3 -39-5s-33-6 -33-6s1-2 2-2s14-3 21-4s36-5 56-7s112-12 127-13s32-1 44-1s27 1 31 2s10 3 11 4s3 3 2 4s-10 3 -15 4s-25 5 -43 6s-39 1 -64 0s-63-4 -83-6s-36-5 -50-7s-22-2 -33-3s-31-1 -31-1s32-2 48-2s116 0 130 0s33 3 41 4s19 4 21 5s7 4 6 5s-10 5 -15 6s-37 7 -57 8s-44 0 -64-1s-36-4 -56-7s-58-10 -62-11s-12-3 -12-3s0-5 1-6s9-8 16-11s20-10 33-15s31-11 46-15s32-7 44-9s23-1 31 0s19 9 19 9s2 7 0 10s-10 9 -17 12s-22 8 -38 9s-43 1 -57 0s-25-3 -35-5s-18-4 -23-6s-11-4 -12-5s-3-4 -2-5s12-7 17-9s10-4 14-4s66-6 81-6s25 0 40 3s40 11 49 14s18 10 22 13s9 10 9 10s-2 6 -5 7s-19 3 -30 1s-46-9 -65-15s-30-11 -47-18s-53-25 -53-25s123 12 134 13s31 6 35 7s10 6 10 6s-6 6 -10 7s-22 4 -37 4s-32 1 -52-1s-82-11 -91-12s-28 1 -28 1s2 3 3 3s12 3 19 4s22 2 36 3s42 1 61 2s37 3 52 4s27 3 38 5s25 8 27 9s6 4 5 5s-9 8 -15 10s-27 6 -46 7s-45 3 -65 2s-40-3 -57-5s-39-7 -45-8s-16-3 -18-4s-6-4 -5-6s8-6 14-8s19-4 33-6s32-4 51-6s42-2 61-3s38-1 55 0s39 6 46 8s12 4 18 8s15 12 17 15s5 8 5 9s1 4 0 4s-11 2 -16 2s-29 1 -46-1s-80-11 -95-14s-42-9 -42-9s28 0 40 1s189 14 195 14s16 2 20 3s8 2 10 3s4 3 3 4s-6 2 -8 2s-38 5 -65 7s-86 3 -95 3s-19 0 -29 0s-33 3 -33 3s26 2 41 2s76 0 90 0s31 2 38 2s13 1 18 2s15 4 15 4s-7 2 -10 2s-42 3 -70 1s-100-11 -115-12s-31-2 -43-3s-20 0 -30 0s-28 2 -29 2s-4 0 -5-1s-4-6 -5-8s-3-2 -4-4s-2-6 -3-9s0-7 0-11s1-9 3-14s5-11 8-15s7-5 10-6s7 0 9 2s4 6 5 10s1 11 0 18s-2 14 -5 24s-13 33 -14 36s-4 8 -5 9s-3 2 -3 1s-3-6 -3-10s0-12 1-20s4-16 6-25s5-17 9-26s12-22 15-27s8-10 10-12s6-2 8 0s6 9 7 14s2 12 2 19s-1 15 -3 22s-4 13 -7 18s-4 9 -8 12s-9 4 -14 4s-11-2 -16-4s-9-5 -13-10s-9-18 -10-22s-2-8 0-12s6-12 10-17s10-7 17-10s15-4 24-6s23-4 30-4s13 0 17 1s7 2 9 3s5 3 6 5s3 6 3 6s-3-6 -1-7s12-2 17-3s10-1 15-1s64 0 67 0s8-4 9-5s3-4 2-5s-12-8 -15-9s-7-2 -8-3M183 386s-1-1 -1-1s10-8 16-11s18-5 20-5s4-1 6-1s9 1 13 1s13-1 13-1s-19 2 -26 3s-16 3 -16 3s22-3 29-4s15 0 17 0s5 0 6 1s9 10 16 16s31 24 33 25s3 4 5 6s10 10 16 15s14 9 20 13s9 9 15 13s29 18 38 24s21 17 21 17s-5 2 -7 2s-4 0 -6 0s-18-3 -25-4s-11-3 -16-5s-35-17 -35-17s9 6 13 10s8 9 10 12s4 5 5 7s-1 6 -1 7"></path><path fill="none" stroke="#ffd700" stroke-width="42" d="M60 407s12-5 16-7s6-3 11-3s15 0 18 0s5-2 7-2s17-1 26-2s20-4 29-5s17 0 28 1s29 5 36 7s14 5 18 7s7 7 8 9s2 3 3 5s2 5 2 8s-1 6 -2 8s-2 4 -3 6s-5 7 -8 10s-6 5 -10 7s-23 8 -31 10s-12 3 -20 4s-20 3 -33 3s-43 0 -57-1s-31-4 -35-5s-7-1 -11-3s-8-4 -11-7s-5-6 -6-8s-1-3 -2-5s-1-3 -1-5s2-9 2-11s1-3 2-5s3-7 7-10s11-7 16-10s8-3 14-5s17-4 25-6s19-3 24-4s10-1 14-1s38-2 52-1s31 4 35 5s8 2 12 4s9 5 10 8s0 5 -1 8s-5 8 -10 11s-13 8 -19 10s-8 3 -14 4s-14 2 -21 3s-13 1 -20 1s-61-4 -66-4s-15-2 -15-2s6-6 10-8s9-3 16-4s15-3 24-3s48-1 54-1s17 2 19 2s5 2 6 3s0 4 -1 5s-8 5 -14 7s-12 4 -20 5s-16 1 -27 1s-43-2 -48-2s-11 0 -15-1s-10-3 -10-3s4-3 6-4s9-4 15-5s19-5 31-7s50-5 56-5s15 0 18 0s7 1 7 3s-4 6 -7 9s-11 7 -19 10s-17 5 -26 6s-17 1 -25 1s-14 0 -20-1s-10-1 -15-3s-13-6 -13-6s2-2 3-3s8-3 13-4s10-2 17-2s26-1 26-1s-5 3 -8 4s-8 1 -12 1s-7-1 -10-2s-6-2 -7-3"></path><path fill="none" stroke="#f00" stroke-width="14" d="M131 407s-1 5 -2 5s-2-1 -3-2s-1-1 -1-2s3-3 4-3s2 1 2 2s0 3 0 3M122 384s1-3 1-3s2 0 2 0s1 1 1 2s-1 4 -2 5s-3 2 -4 1s-2-3 -2-4s0-2 1-3s3-1 3-1s-1 3 -1 4M90 389s1 0 1 0s-2 3 -3 3s-2 1 -3 0s-1-2 -1-3s2-2 3-3s5 0 5 0s1 1 1 1s-5 4 -6 5M102 409s2 0 2 0s1 3 0 4s-3 2 -4 2s-3-1 -4-2s-2-2 -2-3s3-1 4-1s1 1 1 2s-2 3 -2 3M60 399s-4 3 -5 3s-1-1 -1-2s2-1 3-1s3 0 3 1s-2 3 -2 3s-1-1 -1-2s2-1 2-1s1 2 1 2M40 427s1-3 1-3s1 1 1 2s-1 3 -2 3s-2 0 -2-1s0-3 0-4s2-3 3-3s3 0 3 1s0 6 0 7M72 433s1 2 0 3s-2 3 -4 3s-5 0 -5 0s-1-1 -1-1s0-3 0-4s0-2 1-3s3-2 4-2s2 0 2 1s1 8 1 9M100 439s3-1 3-1s-3 4 -4 4s0-3 0-4s2-3 3-3s2 0 2 0s1 4 1 5M135 432s2 1 2 1s0 1 0 2s-1 2 -2 3s-2 1 -3 1s-2 0 -2-1s1-4 1-4s1 0 1 0s-2 5 -2 6M114 461s1 1 1 1s-3 1 -4 1s-1-1 -1-2s0-1 1-2s2-1 3-1s2 0 3 0s3 2 3 3s0 2 -1 2s-1 1 -2 1s-7-2 -9-2M81 475s2-1 2-1s-5 4 -6 4s-2 0 -2-1s-1-2 0-3s5-4 6-4s2 0 2 1s-2 3 -2 4M66 460s-2 0 -3 0s-2 2 -2 2M39 463s-1-1 -1-2s0-6 0-6s3 6 3 7M122 478s-2 0 -3 0s-3 2 -3 3s3 1 4 1M152 477s2 1 2 1s0 1 0 1s-1 3 -2 3s-2 0 -2-1s1-3 2-3s2 1 2 1M192 467s3-1 3-1s0 2 0 2s-6 3 -6 3s2 1 2 1M168 457s3-1 3-1s-4 4 -5 4s-2-1 -2-2s1-4 2-5s2-2 3-2s4 0 4 0s1 1 1 1s0 2 -1 2s-5 2 -6 2M169 421s2 0 2 1s1 2 0 3s-4 4 -6 4s-3-1 -4-2s0-4 1-5s2-1 3-1s2 0 3 0s2 1 2 2s0 3 0 4M165 397s0 2 -1 2s-3 1 -4 1s-2-1 -2-2s2-3 2-4s2-1 2-1M156 376s2 0 2 0s3 4 4 5M201 383s2-1 2-1s0 3 -1 4s-2 3 -3 3s-1-1 -1-2s0-4 1-5s4-2 5-2s1 3 0 4s-3 3 -4 4M234 393s1 2 1 2s-5 3 -6 3s-2 0 -3 0s-1-1 -1-2s1-2 2-2s7-2 8-2s3 2 3 2M196 410s2-1 2-1s0 2 -1 2s-4 2 -5 1s-2-5 -1-5s5 4 6 5M220 428s-7 3 -8 3s-4 1 -4 0s1-3 2-3s2 0 2 0s1 4 1 5s-1 3 -2 3s-2-1 -3-2s0-2 0-3s1-2 2-3s2-1 3-1s3 2 4 2M252 413s3 1 3 2s-1 3 -2 4s-3 2 -5 2s-4-1 -4-2s2-3 3-4s3-2 4-2s2 0 3 0s3 0 3 1s-2 6 -3 7M253 445s2-3 3-4s4-2 4-1s-1 4 -2 6s-6 5 -6 5s-1-1 -1-1s1-3 2-4s3-3 3-2s-1 6 -1 7M227 464s2-1 2-1s-3 4 -4 5s-3 1 -4 0s1-4 1-5s1-2 2-3s1-1 2-1s2 0 2 1s-3 4 -4 5M240 437s0-1 0-1s2-1 2-1s1 1 1 1s-2 4 -3 5s-4 3 -5 3s-2-4 -2-4s1 0 1 0M196 441s1 1 1 2s-2 6 -3 6s-2-4 -2-4s0 2 0 2M141 456s4-2 5-2s0 3 -1 4s-2 2 -3 2s-2-2 -2-3s0-2 0-3s2-2 2-2s0 3 0 3M180 380s1-3 1-3s1 0 1 0s-1 4 -2 4s-2-1 -3-1M140 393s-1 0 -1 0s4-2 4-1s-1 5 -2 6s-3 3 -3 2s0-8 0-9s0-2 1-3s2-1 3-1s1 0 2 1s2 2 2 3s0 5 0 6"></path><path fill="none" stroke="#ff6600" stroke-width="6" d="M140 372s-2-13 -2-21s0-27 0-27s3 13 3 20s-1 24 -1 24s-1-15 -1-21s0-14 0-15s1-4 1-4s0 4 0 7s2 7 2 12s0 16 0 18s-1 6 -1 6s2-7 2-8M193 377s1-5 1-6s-1-2 -1-3s0-22 0-24s-2-4 -2-7s0-9 0-9s2 21 2 28s-1 18 -1 18s1-7 1-8M227 382s1-7 1-11s-4-27 -4-28s1-2 1-3M234 419s-1-1 -1-1s1-5 1-6s-1-2 -1-3s0-11 0-11s0 26 0 26s1-4 1-6s-1-5 -1-8s1-22 1-22s0 16 0 17s-1 2 -1 3s0 12 0 14s-1 6 -1 5s-1-34 -1-34s2 5 2 8s-1 19 -1 19s1-6 1-7M211 455s-1 0 -1 0s1-2 1-3s0-16 0-19s1-8 1-8s-2 29 -2 29s1-29 1-29s0 10 0 15s-2 14 -2 14s0-28 0-28s0 7 0 8M170 477s0-12 0-18s2-19 2-19s-1 3 -1 4s2 22 2 23s-1 5 -1 4s1-14 1-19s-1-13 -1-13s0 15 -1 21s-2 14 -2 14s2-10 2-16s-2-27 -2-27s0 33 0 34s-2 3 -2 4M137 448s2 4 2 7s0 7 0 11s-2 15 -2 15s1-8 1-13s-3-22 -3-22s1 6 1 10s0 16 0 17s-1 2 -1 2M93 450s2 6 2 9s0 7 0 11s-2 11 -2 11s2-5 3-8s1-5 1-7s-1-18 -1-18s-1 22 -1 23s-1 5 -1 4s-1-8 -1-10M50 437s2 11 2 15s0 12 0 12s1-28 1-28s-1-1 -1-1s1 13 1 17s-1 8 -1 10M40 389s-1 1 -1 1s0 17 0 17s0-16 0-19s1-8 1-8s0 27 0 27s0-25 0-27s1-6 1-5s0 12 0 13s1 3 1 3M72 389s-2-1 -2-2s0-3 0-5s1-3 1-4s0-19 0-19s1 4 1 6s0 26 0 26s1-36 1-36s-1 20 -1 22s1 4 1 6s2 3 2 4M111 385s-1 0 -1 0s-2-16 -2-23s0-15 0-17s1-6 1-5s1 39 1 39s3-17 3-20M119 424s1-2 1-3s0-31 0-31s-2 3 -2 5s1 30 1 30s2-12 2-17s0-15 0-15s-1 33 -1 33s0-16 0-19s-1-8 -1-8s-1 15 -1 16s1 3 1 4s2 2 2 2M175 413s0-28 0-28s-1 6 -1 10s2 18 2 18s0-25 0-25s0 27 0 27s-1-5 -1-6"></path><path fill="none" stroke="#ffd700" stroke-width="6" d="M110 338s-10-2 -10-2s-1-4 -1-5s0-1 0-2s2-4 3-6s7-11 7-11s8 12 9 14s2 5 1 6s-8 1 -10 1s-4-1 -5-3s2-8 2-8s3 3 3 5s-1 9 -1 9s-1-15 -1-15s2 0 2 0s1 12 1 12s-1-4 -1-5s3-1 3-1M140 322s1 0 1 0s-1 1 -1 1s-8-3 -9-3s-1-1 -1-2s0-2 0-4s1-3 2-5s5-8 5-8s1 4 2 6s3 2 4 4s3 9 3 9s-10 0 -10 0s2-9 2-9s1 1 1 2s-1 9 -1 9s-1-8 -1-8s3 4 4 5M191 324s-10-2 -10-2s1-5 2-8s4-8 4-8s3 7 5 10s6 7 6 7s-8 4 -9 4s-2 0 -2-1s-3-6 -3-7s1-1 2-1s3 1 4 2s1 4 0 4s-4-3 -4-5s2-4 2-4s2 0 2 1s6 9 7 11M224 335s-1-1 -1-1s-5 3 -6 2s-1-3 -1-5s5-14 5-14s2 6 3 8s2 3 3 4s4 0 4 0s1 1 1 1s1 3 0 4s-2 5 -4 5s-9-2 -10-2s-1-1 -1-2s0-5 0-7s2-4 3-3s3 5 3 7s0 4 0 5M71 353s-1 0 -2 0s-3-1 -4-3s-3-5 -2-8s7-16 7-16s4 12 5 13s3 2 3 3s1 3 0 5s-3 4 -3 5s-1 1 -2 1s-2-1 -2-2s-2-10 -2-11s3-3 3-3s1 1 1 1s0 7 0 8s-1 3 -2 3s-2-2 -2-3s1-7 1-7s1 3 1 4s-2 8 -2 9M39 376s0-2 0-2s-1 0 -2 0s-2-2 -3-3s-1-3 0-5s5-10 5-10s2 8 3 10s3 3 3 4s0 3 -1 4s-2 1 -3 1s-4-3 -5-4s1-3 1-4s2-1 2-1s1 1 1 2s-1 3 -1 3s-1-1 -1-1"></path><path fill="none" stroke="#fffdc9" stroke-width="6" d="M52 434s-3-1 -4-3s0-5 0-7s1-7 3-7s6 6 7 8s-2 6 -2 7s-1 1 -2 1s-4-2 -4-4s2-9 2-11s0-6 0-6s3 2 3 4s0 9 0 11M92 450s-4-7 -5-9s0-3 0-5s5-16 5-16s0 3 0 4s5 13 5 15s0 5 0 6s-1 2 -2 3s-3 1 -3 1s-1-1 -1-1s-1-10 -1-10s1-1 2-1s3 0 4 1s1 3 1 4s-3 4 -3 3s0-5 0-7s3-3 3-4M123 387s-3 0 -4-1s-2-4 -2-5s0-2 0-3s6-13 6-13s1 6 2 8s3 2 3 4s-1 8 -1 8s-5 2 -6 0s0-10 0-10s-1 6 -1 6s-2-5 -1-5s4 3 5 3M135 450s-3-1 -4-2s-1-2 -1-3s1-10 2-13s2-6 2-7s2-4 2-3s2 9 3 13s1 8 1 10s-3 3 -4 3s-3-3 -4-4s0-2 0-3s3-5 3-5s0 4 0 4s-2-6 -2-7s3 3 4 3M174 379s-1 0 -1 0s-2-2 -2-3s0-4 0-6s2-5 3-7s0-8 1-7s7 21 7 22s-1 3 -2 4s-6 2 -6 1s3-16 3-16s-2 13 -2 13s0-12 0-12s0 8 0 10M230 397s-1 0 -1 0s-1-3 -1-4s2-15 2-15s4 18 4 18s-2 0 -3-1s-1-2 -1-2M209 424s-2 0 -2-1s-3-4 -3-7s3-11 3-11s3 3 4 5s1 3 1 5s0 5 0 6s-2 2 -2 1s-1-10 -1-10s0 6 0 6s-1-2 -1-3M167 440s0-1 0-2s-4-8 -5-10s0-4 1-6s4-8 4-8s3 4 4 7s2 7 2 9s1 4 0 5s-3 1 -4 1s-2-1 -2-2s-1-4 -1-5s0-1 1-2s3-2 3-1s0 4 0 5s-2 3 -2 3"></path><path fill="none" stroke="#f00" stroke-width="6" d="M92 442s-1-2 -1-2s1 1 1 2s0 5 0 5s0-8 0-8s3 7 3 8M132 442s1 0 1 0s-1-1 -1-1s1 7 1 7s2-9 2-9s1 7 1 8M170 427s-1 0 -1 0s-2 8 -2 8s2-6 2-6s2 2 2 2M207 415s1 3 1 3M230 391s1 7 1 8M224 333s-1-1 -1-1s0 5 0 5s0-6 0-6s1 4 1 5M177 378s-1 0 -1 0s1 3 1 4M189 324s-1-2 -1-2s0 4 0 4s-1-3 -1-3s0 2 0 2M141 317s0-2 0-2s-2 3 -2 4s1 2 1 2M105 329s-1-1 -1-1s1 3 1 5s-1 6 -1 7M69 348s0-1 0-1s0 8 0 10M119 382s1-3 1-3s-1 4 -1 5s1 3 1 4M54 426s-1 0 -1 0s0 5 0 6M36 371s-1 7 -1 8"></path><path fill="none" stroke="#000" stroke-width="6" d="M34 26s0-3 -1-3s-3 0 -5 1s-3 2 -5 3s-3 1 -4 3s-3 8 -3 8s2 3 3 3s9 1 11 2s4 2 5 3s1 2 1 3s-2 6 -3 7s-2 2 -4 2s-8 0 -9 0s-2 1 -2 1M46 29s0-4 0-3s-1 9 -1 12s1 7 1 9s1 4 2 6s3 5 4 6s3 1 4 0s4-2 4-3s2-23 2-24s3-3 3-4M74 54s2-2 2-3s1-3 1-5s3-23 3-24s2-4 3-3s5 13 5 15s-1 5 -3 6s-8 1 -8 1s0 1 0 1s14 7 17 8M106 53s-6-25 -6-26s0-3 1-4s2-3 4-4s4-2 6-2s6 4 7 5s0 2 0 3s0 4 -2 5s-7 2 -8 2M126 50s3-3 3-5s0-5 0-8s2-11 2-11s6-2 7-2s2 0 3 1s2 3 1 4s-6 6 -6 7s-1 3 0 3s10 3 12 3M153 48s2-5 2-9s0-14 0-15s1-3 1-4M185 16s-5 3 -7 4s-3 4 -3 5s2 2 3 3s9 3 9 3s0 4 -2 6s-9 5 -10 6s-2 3 -3 3M206 17s-1-2 -1-2s-3 3 -4 5s-8 16 -9 17s-2 3 -1 4s7 3 9 3s5-3 6-4M203 33s0-2 -1-2s-1 0 -2 0s-5 3 -6 3M224 8s0-1 0-1s1 1 1 1s1 4 0 6s-3 5 -3 6s0 3 0 4M219 43l0.01 0.01M13 116s1 0 1 0s-1-19 -1-21s2-6 2-7M25 113s3-27 3-33M29 104s-9-1 -11-1M38 117s3-4 4-6s6-25 6-25s3 8 4 12s0 12 0 14M47 101s-7 1 -8 1M63 118s3-5 4-8s1-5 1-7s-2-14 -2-18s2-11 2-11s4 4 5 6s3 7 3 8s0 2 -1 3s-3 3 -5 3s-3 0 -4 0M91 105s0-3 0-5s-3-10 -3-14s5-9 5-9s2 1 3 2s3 6 3 7s0 2 -1 2s-4 1 -5 1M113 106s0-2 0-2s21-24 23-26s5-7 5-7s0 3 0 3M127 88s-15-11 -16-12s-2-3 -3-4M19 172s2-23 2-25s3-5 4-6s3-2 3-1s1 5 0 8s-4 11 -4 11s10-3 12-3s5 2 5 4s-2 5 -4 7s-8 3 -9 3s-3 0 -4 0M52 178s1-7 1-10s-2-21 -3-25M63 175s-1-28 0-32s9-8 9-8s3 7 2 10s-7 8 -7 8s3 4 4 5s3 2 5 3s4 4 5 5M90 169s2-9 2-13s-1-9 -1-12s1-7 1-8M104 133s0-1 0-1s-2 0 -3 0s-8 3 -12 4s-7 4 -9 5M115 161s1-31 1-32s1-2 1-2M128 156s3-14 3-20s0-15 0-17s1-4 1-5M132 137s-19 2 -20 2s-2 2 -3 2M144 148s2-8 2-13s1-24 1-24s2 1 3 2s6 9 7 13s2 7 2 10s-2 7 -2 8s-1 2 -2 3s-2 2 -3 2s-5-1 -6-1M160 152s14-36 15-37s2-4 3-4s2 0 2 1s1 2 1 3s3 17 3 20s-1 7 -1 8s1 3 1 3M184 129s-13 3 -16 4M189 145s0-1 0-2s5-6 6-9s14-32 17-38M202 116s-9-12 -11-14M224 79s2 0 2 1s0 3 0 5s0 3 -1 5s-2 4 -3 6s0 6 0 7M223 130s-1-1 -1-1s0 1 0 1M108 198s0-2 -1-2s-1 1 -2 1s-3 4 -5 5s-14 8 -23 13s-42 21 -42 21s29-34 29-34s-12 5 -21 6s-31 1 -31 1s11-1 13-1M112 201s2-2 4-3s11-2 17-4s33-13 36-14s7-3 10-5s39-25 47-29s20-6 24-7"></path></svg>