<svg version="1.1" xmlns="http://www.w3.org/2000/svg" xmlns:xlink="http://www.w3.org/1999/xlink" width="380.65313" height="274.77477" viewBox="0,0,380.65313,274.77477"><g transform="translate(-86.84687,-42.61264)"><g data-paper-data="{&quot;isPaintingLayer&quot;:true}" fill-rule="nonzero" stroke-linejoin="miter" stroke-miterlimit="10" stroke-dasharray="" stroke-dashoffset="0" style="mix-blend-mode: normal"><path d="M86.84687,317.38741v-274.77477h306.30631v274.77477z" fill="none" stroke="none" stroke-width="0" stroke-linecap="butt"/><text transform="translate(213.88949,105.08243) rotate(11.60628) scale(0.1602,0.1602)" font-size="40" xml:space="preserve" fill="#000000" fill-rule="nonzero" stroke="none" stroke-width="1" stroke-linecap="butt" stroke-linejoin="miter" stroke-miterlimit="10" stroke-dasharray="" stroke-dashoffset="0" font-family="Sans Serif" font-weight="normal" text-anchor="start" style="mix-blend-mode: normal"><tspan x="0" dy="0">AwezomeXD</tspan><tspan x="0" dy="46.150000000000006px"> </tspan><tspan x="0" dy="46.150000000000006px">MeIzAwezomeDede</tspan></text><g stroke-linecap="butt"><g><g><g><path d="M278.34767,130.9045c0,0 1.17381,3.61974 2.58114,3.32286c1.81423,-0.3827 6.42854,-3.853 6.42854,-3.853c0,0 0.26171,6.07009 -1.02841,8.74966c-2.40717,4.99967 -7.46842,8.07648 -7.46842,8.07648c0,0 2.50865,5.7355 2.68691,8.59541c0.16951,2.71953 -1.64229,8.16409 -1.64229,8.16409c0,0 -2.85748,-4.79639 -4.40391,-6.20009c-1.4549,-1.32061 -4.61683,-1.98804 -4.61683,-1.98804c0,0 2.64179,5.33426 1.0265,11.5526c-0.71924,2.76885 -6.68322,6.78396 -6.68322,6.78396c0,0 -2.65564,15.69595 -6.26319,18.30638c-3.05661,2.21176 -14.26441,-7.46604 -14.26441,-7.46604c0,0 -6.166,12.39766 -10.3459,11.50595c-1.14665,-0.24462 -2.23616,-5.54023 -4.89202,-6.64896c-2.73683,-1.14253 -3.99886,-8.11553 -3.99886,-8.11553c0,0 -3.07696,6.10256 -5.49601,6.23192c-2.62822,0.14056 -5.67606,3.76417 -7.90926,3.27473c-1.79033,-0.39239 -0.3575,-10.50138 -0.3575,-10.50138c0,0 -8.08426,3.55306 -10.94142,2.81717c-3.29281,-0.8481 -0.48601,-23.87249 -0.48601,-23.87249c0,0 -1.3311,-8.8288 -0.38943,-15.18432c0.52704,-3.55705 3.36147,-6.78635 3.36147,-6.78635c0,0 -3.38747,-2.81107 -2.75244,-7.28624c0.60413,-4.25727 5.08533,-9.53567 5.08533,-9.53567c0,0 -9.86201,-1.07464 -9.2009,-13.71315c0.17552,-3.35536 1.23336,-7.38343 1.23336,-7.38343c0,0 2.05216,3.71971 4.48706,4.12987c1.9501,0.3285 7.5487,-2.06795 7.5487,-2.06795c0,0 23.04444,5.73965 35.35656,8.26857c26.08887,5.35868 33.3449,20.82295 33.3449,20.82295z" fill="#6d0f0a" stroke="#000000" stroke-width="2"/><path d="M281.6027,124.4771c0,0 -1.32661,0.74274 -3.19425,-0.5243c-5.30786,-3.60093 -18.14519,11.82791 -33.88308,8.59533c-14.73168,-3.0259 -38.7954,-28.36239 -38.7954,-28.36239c0,0 3.62211,-13.49013 6.07928,-16.18749c1.6129,-1.77056 7.54337,-8.98856 14.72309,-9.6471c7.4318,-0.68165 16.59063,4.68498 16.59063,4.68498c0,0 7.72088,-8.5184 17.01558,-6.60926c7.07052,1.45229 15.16611,5.57027 18.34584,12.65963c2.24374,5.00253 6.03467,12.30582 6.4819,17.83628c0.82608,10.21549 -3.36358,17.55432 -3.36358,17.55432z" fill="#6d0f0a" stroke="#000000" stroke-width="2"/><path d="M279.99688,94.06842c0,0 -7.83366,-1.841 -11.71643,-0.63733c-4.15087,1.28678 -12.43823,8.12531 -12.43823,8.12531c0,0 -2.02683,-2.70603 -2.9602,-3.79499c-0.74796,-0.87265 -2.20794,-2.2347 -2.20794,-2.2347c0,0 -1.34178,1.79613 -1.91562,2.83065c-0.66326,1.19572 -1.83465,3.93039 -1.83465,3.93039c0,0 -2.09616,-2.36516 -2.99259,-3.17328c-0.64571,-0.5821 -1.88504,-1.22379 -1.88504,-1.22379c0,0 -2.20573,2.10747 -3.07978,3.10859c-0.78567,0.8999 -1.92769,2.6269 -1.92769,2.6269c0,0 -0.98304,-3.50626 -1.49126,-4.97583c-0.42302,-1.22323 -1.34965,-3.23889 -1.34965,-3.23889c0,0 -1.80664,1.17116 -2.67741,1.93933c-0.88864,0.78392 -2.60189,2.71791 -2.60189,2.71791c0,0 -9.66552,-0.91393 -10.56135,-0.94895c-5.0485,-0.19733 -10.74571,2.18481 -10.74571,2.18481c0,0 2.82026,-8.5336 4.34695,-11.44903c1.50526,-2.87449 4.7498,-5.92248 4.7498,-5.92248c0,0 -3.68721,8.92006 3.72791,9.01014c0.34487,0.00419 4.90635,0.69804 5.02831,0.6809c6.07489,-0.85403 16.0699,-3.96773 16.0699,-3.96773c0,0 -0.71504,2.36289 -0.98319,3.50971c-0.25328,1.08318 -0.58366,3.19121 -0.58366,3.19121c0,0 1.41645,-1.33588 2.20155,-2.39642c0.95872,-1.29506 3.13467,-4.81184 3.13467,-4.81184c0,0 0.36439,1.85005 0.60941,2.73768c0.22684,0.82183 1.21192,2.81164 1.21192,2.81164c0,0 0.71689,-1.52923 1.10637,-2.48537c0.36837,-0.90431 0.70551,-3.20023 0.70551,-3.20023c0,0 7.34565,2.97182 12.08599,2.09986c4.52359,-0.83209 13.50866,-5.84368 13.50866,-5.84368c0,0 1.93453,2.48412 2.82302,3.91462c0.93129,1.49941 2.64238,4.88486 2.64238,4.88486z" fill="#c42d06" stroke="none" stroke-width="0"/></g><path d="M212.83876,125.84088l-9.24227,-20.44429c0,0 2.90824,-2.09096 5.41174,-1.53817c9.82698,2.16985 72.22776,18.67641 72.22776,18.67641c0,0 -0.72415,1.49299 -1.33876,3.02973c-0.38578,0.96459 1.53524,2.43502 0.81667,4.28759c-0.52938,1.36476 -22.63227,7.66371 -22.63227,7.66371z" fill="#6d0f0a" stroke="none" stroke-width="NaN"/></g><path d="M241.74386,84.15308c0,0 0.37426,-3.81307 -0.35638,-5.28917c-0.81972,-1.65608 -3.35028,-6.52089 -3.35028,-6.52089c0,0 4.89648,0.84268 6.37714,3.02353c0.19323,0.28461 0.71325,1.5337 0.76641,1.83584c1.00888,5.73399 -3.4369,6.95069 -3.4369,6.95069z" fill="#6d0f0a" stroke="#000000" stroke-width="1.5"/><path d="M247.12692,79.23633l-1.98906,0.88133c0,0 0.57469,-2.82743 1.07035,-3.64027c0.62685,-1.67757 2.08803,-2.55906 2.08803,-2.55906z" fill="#000000" stroke="none" stroke-width="0"/></g><path d="M245.70995,82.52068c0,0 -3.13431,5.0212 -3.83006,4.71222c-0.49696,-0.2207 -2.881,-4.87573 -2.881,-4.87573l3.75165,0.42199z" fill="#6d0f0a" stroke="none" stroke-width="0"/></g><text transform="translate(185.31665,229.00291) scale(0.27921,0.27921)" font-size="40" xml:space="preserve" fill="#000000" fill-rule="nonzero" stroke="none" stroke-width="1" stroke-linecap="butt" stroke-linejoin="miter" stroke-miterlimit="10" stroke-dasharray="" stroke-dashoffset="0" font-family="Sans Serif" font-weight="normal" text-anchor="start" style="mix-blend-mode: normal"><tspan x="0" dy="0">AwezomeXD</tspan><tspan x="0" dy="46.150000000000006px"> </tspan><tspan x="0" dy="46.150000000000006px">MeIzAwezomeDede</tspan></text><g data-paper-data="{&quot;index&quot;:null}" stroke-linecap="butt"><g><path d="M174.84932,281.2039c-0.8957,0.30744 -2.81678,0.87988 -2.81678,0.87988c0,0 -14.79646,1.04559 -22.04702,0.93333c-7.39428,-0.11449 -21.89596,-1.61371 -21.89596,-1.61371c0,0 -2.9227,-19.35044 -3.67963,-29.38367c-0.83924,-11.12435 -1.13439,-34.42755 -1.13439,-34.42755c0,0 21.92527,-8.37114 29.41663,-10.66422c5.21159,-1.59526 11.22884,-1.77723 11.22884,-1.77723c0,0 5.10823,4.15962 6.91914,6.0011c1.67546,1.70375 4.83842,5.17349 4.83842,5.17349l2.02696,63.81123c0,0 -1.86971,0.72874 -2.85622,1.06736z" fill="#434253" stroke="#000000" stroke-width="2.5"/><path d="M173.40345,282.07685l-3.44531,0.00408c0,0 -0.38791,-0.98776 -0.94516,-6.33045c-0.09978,-0.95662 0.52103,-2.32859 0.41165,-3.37795c-0.99539,-9.5494 -3.0625,-24.80443 -3.80377,-32.05655c-1.77359,-17.35159 -2.96857,-35.7325 -2.96857,-35.7325l2.12747,1.24515c0,0 0.69123,4.51405 1.1958,11.58007c0.37619,5.26807 -0.15801,9.71576 -0.00092,14.89447c0.02059,0.67881 0.58888,9.25926 2.09142,19.2474c2.10194,13.97259 5.33739,30.5263 5.33739,30.5263z" fill="#000000" stroke="none" stroke-width="0"/></g><g stroke="#000000" stroke-width="1.5"><path d="M149.08617,248.66448c6.78653,0.60306 12.86297,5.99485 12.70457,16.95475c-0.14218,9.83752 -7.05122,15.94008 -15.10374,15.15615c-8.05252,-0.78392 -14.00035,-7.37755 -13.04707,-17.16981c0.8131,-8.35222 8.64842,-15.54516 15.44623,-14.9411z" fill="#2c262f"/><path d="M155.54312,268.77549c-0.26887,2.76192 -1.73589,4.33882 -4.00711,4.11772c-2.27122,-0.2211 -3.94714,-2.67241 -3.67826,-5.43433c0.26887,-2.76192 1.80717,-4.25733 4.07839,-4.03623c2.27122,0.2211 3.87586,2.59092 3.60699,5.35284z" data-paper-data="{&quot;index&quot;:null}" fill="#1b171c"/></g><g stroke="#000000" stroke-width="1.5"><path d="M144.17179,213.84405c6.81106,0.46775 13.08802,5.48617 13.35924,16.44387c0.24344,9.83554 -6.42116,16.20414 -14.49821,15.73639c-8.07705,-0.46775 -14.2787,-6.82323 -13.70989,-16.64533c0.48517,-8.37767 8.04031,-16.00251 14.84887,-15.53492z" fill="#2c262f"/><path d="M151.41187,233.6866c-0.16044,2.77034 -1.56454,4.40353 -3.84268,4.2716c-2.27814,-0.13193 -4.04884,-2.51568 -3.8884,-5.28602c0.16044,-2.77034 1.63894,-4.32488 3.91709,-4.19295c2.27814,0.13193 3.97442,2.43705 3.81398,5.20737z" data-paper-data="{&quot;index&quot;:null}" fill="#1b171c"/></g></g><g stroke-linecap="butt"><g><path d="M302.29452,280.24704l2.03836,-64.1701c0,0 3.18075,-3.48926 4.86563,-5.20259c1.82109,-1.85183 6.95806,-6.03485 6.95806,-6.03485c0,0 6.05109,0.183 11.29199,1.78722c7.5335,2.30598 29.58207,10.7242 29.58207,10.7242c0,0 -0.29681,23.43427 -1.14077,34.62117c-0.76119,10.08965 -3.70032,29.54893 -3.70032,29.54893c0,0 -14.58323,1.50766 -22.01909,1.62279c-7.29133,0.11289 -22.17101,-0.93858 -22.17101,-0.93858c0,0 -1.93187,-0.57566 -2.83261,-0.88483c-0.99206,-0.34052 -2.8723,-1.07336 -2.8723,-1.07336z" fill="#434253" stroke="#000000" stroke-width="2.5"/><path d="M306.62077,282.19826c0,0 3.25365,-16.6468 5.36741,-30.69797c1.511,-10.0443 2.08249,-18.67302 2.10319,-19.35565c0.15797,-5.20782 -0.37924,-9.68054 -0.00094,-14.97823c0.50741,-7.10576 1.20254,-11.64519 1.20254,-11.64519l2.13944,-1.25216c0,0 -1.20171,18.48428 -2.98527,35.93346c-0.74545,7.2929 -2.82418,22.63374 -3.82517,32.23684c-0.10999,1.05526 0.51431,2.43496 0.41397,3.39694c-0.5604,5.37275 -0.95047,6.36606 -0.95047,6.36606l-3.46469,-0.0041z" fill="#000000" stroke="none" stroke-width="0"/></g><g stroke="#000000" stroke-width="1.5"><path d="M346.60792,263.62307c0.95864,9.84733 -5.02264,16.47805 -13.12044,17.26637c-8.0978,0.78833 -15.04571,-5.34855 -15.18869,-15.24139c-0.15929,-11.02154 5.95133,-16.44366 12.77602,-17.05011c6.83604,-0.60746 14.71544,6.62593 15.53311,15.02512z" fill="#2c262f"/><path d="M328.20883,263.43917c2.284,-0.22234 3.83095,1.28148 4.10133,4.05893c0.27038,2.77745 -1.41495,5.24254 -3.69895,5.46489c-2.284,0.22234 -3.75926,-1.36343 -4.02965,-4.14088c-0.27038,-2.77745 1.34328,-5.16059 3.62728,-5.38293z" data-paper-data="{&quot;index&quot;:null}" fill="#1b171c"/></g><g stroke="#000000" stroke-width="1.5"><path d="M350.94922,229.20402c0.57201,9.87733 -5.66452,16.26856 -13.787,16.73894c-8.12248,0.47038 -14.82456,-5.93404 -14.57974,-15.8249c0.27274,-11.01932 6.585,-16.06597 13.43437,-16.53635c6.84685,-0.47021 14.44447,7.19751 14.93237,15.6223z" fill="#2c262f"/><path d="M332.57146,228.2992c2.29095,-0.13267 3.77777,1.43063 3.93911,4.21653c0.16134,2.78592 -1.6193,5.18307 -3.91026,5.31575c-2.29095,0.13267 -3.70294,-1.5097 -3.86428,-4.29561c-0.16134,-2.78592 1.54448,-5.104 3.83543,-5.23667z" data-paper-data="{&quot;index&quot;:null}" fill="#1b171c"/></g></g><g fill="#434253" stroke="#000000" stroke-linecap="butt"><path d="M177.06364,282.15583c0,0 -3.72555,-18.57238 -4.76549,-51.11495c-0.69896,-34.89626 7.2979,-63.41059 7.2979,-63.41059c0,0 38.18653,-1.58275 59.33114,-1.58275c21.56664,0 64.39595,1.2662 64.39595,1.2662c0,0 4.62824,29.97117 4.16309,61.08575c0.21907,28.75107 -4.16309,53.75635 -4.16309,53.75635c0,0 -44.88276,0.31655 -66.6118,0.31655c-20.25363,0 -59.64769,-0.31655 -59.64769,-0.31655z" stroke-width="2.5"/><path d="M300.21682,276.35668c0,1.16468 -1.04907,2.10884 -2.34316,2.10884c-1.2941,0 -2.34316,-0.94416 -2.34316,-2.10884c0,-1.16468 1.04907,-2.10884 2.34316,-2.10884c1.2941,0 2.34316,0.94416 2.34316,2.10884z" stroke-width="2"/><path d="M185.75656,275.71952c0,1.16468 -1.04907,2.10884 -2.34316,2.10884c-1.29409,0 -2.34316,-0.94416 -2.34316,-2.10884c0,-1.16468 1.04907,-2.10884 2.34316,-2.10884c1.29409,0 2.34316,0.94416 2.34316,2.10884z" stroke-width="2"/><path d="M187.66853,174.94763c-0.48529,1.12251 -1.84161,1.61619 -3.02946,1.10267c-1.18784,-0.51352 -1.75738,-1.8398 -1.2721,-2.96231c0.48529,-1.12251 1.84161,-1.61618 3.02946,-1.10266c1.18784,0.51352 1.75738,1.83979 1.27209,2.9623z" stroke-width="2"/><path d="M300.85454,174.52139c-0.48528,1.12251 -1.84161,1.61619 -3.02945,1.10267c-1.18784,-0.51352 -1.75738,-1.8398 -1.2721,-2.96231c0.48528,-1.12251 1.84162,-1.61618 3.02946,-1.10266c1.18784,0.51352 1.75737,1.83979 1.27209,2.9623z" stroke-width="2"/></g><g stroke="#000000" stroke-linecap="butt"><path d="M294.61476,209.19698c-3.52713,9.56683 -19.34276,14.19061 -51.04211,14.19061c-31.69935,0 -47.59324,-3.28802 -53.01425,-12.1266c-3.61025,-5.88626 -3.95749,-27.70468 0.6414,-31.5768c9.75256,-8.21136 30.61235,-9.47437 52.15372,-9.47437c23.00991,0 40.88525,0.27955 50.03744,9.85708c3.45623,3.61686 3.67648,22.1312 1.2238,28.78372z" fill="#434253" stroke-width="2"/><path d="M290.3533,207.20853c-3.25633,8.48132 -17.85765,12.01102 -47.12319,12.01102c-29.26553,0 -43.93911,-2.03843 -48.94391,-9.87414c-3.33307,-5.21837 -3.65365,-24.56115 0.59215,-27.99392c9.00377,-7.27966 28.262,-7.74198 48.14946,-7.74198c21.24324,0 37.74615,-0.40954 46.19565,8.08126c3.19087,3.20646 3.39419,19.62006 1.12983,25.51776z" fill="#2c262f" stroke-width="1.5"/><path d="M264.09997,204.25587c-1.26802,3.61344 -6.95387,5.53664 -18.35003,5.53664c-11.39617,0 -17.11014,-1.46103 -19.05903,-4.79941c-1.29791,-2.22328 -1.42275,-10.46423 0.23059,-11.92675c3.50612,-3.10149 11.00537,-4.2359 18.74966,-4.2359c8.27224,0 14.69856,0.76296 17.98885,4.38046c1.24254,1.36611 1.32173,8.35908 0.43998,10.87178z" fill="#1b171c" stroke-width="1.5"/></g><g stroke="#000000" stroke-linecap="butt"><path d="M294.61476,265.58115c-3.52713,9.56683 -19.34276,14.19062 -51.04211,14.19062c-31.69935,0 -47.59324,-3.28802 -53.01425,-12.1266c-3.61025,-5.88626 -3.95749,-27.70467 0.6414,-31.5768c9.75256,-8.21136 30.61235,-9.47437 52.15372,-9.47437c23.00991,0 40.88525,0.27956 50.03744,9.85709c3.45623,3.61685 3.67648,22.13119 1.2238,28.78371z" fill="#434253" stroke-width="2"/><path d="M290.3533,263.5927c-3.25633,8.48132 -17.85765,12.01102 -47.12319,12.01102c-29.26553,0 -43.93911,-2.03843 -48.94391,-9.87414c-3.33307,-5.21837 -3.65365,-24.56116 0.59215,-27.99393c9.00377,-7.27966 28.262,-7.74198 48.14946,-7.74198c21.24324,0 37.74615,-0.40953 46.19565,8.08127c3.19087,3.20646 3.39419,19.62006 1.12983,25.51776z" fill="#2c262f" stroke-width="1.5"/><path d="M264.09997,260.64003c-1.26802,3.61345 -6.95387,5.53665 -18.35003,5.53665c-11.39617,0 -17.11014,-1.46103 -19.05903,-4.79941c-1.29791,-2.22328 -1.42275,-10.46422 0.23059,-11.92674c3.50612,-3.10149 11.00537,-4.2359 18.74966,-4.2359c8.27224,0 14.69856,0.76296 17.98885,4.38046c1.24254,1.36611 1.32173,8.35908 0.43998,10.87177z" fill="#1b171c" stroke-width="1.5"/></g><g stroke-linecap="butt"><path d="M218.81775,155.93961c0,2.11706 1.42447,6.90214 -3.31628,9.81253c-1.14047,0.70014 -1.52854,0.80571 -1.52854,0.80571c0,0 -3.72825,0.25881 -6.08281,0.10553c-0.73215,-0.04766 -2.61801,2.13492 -5.53343,1.03821c-1.11868,-0.42082 -2.37286,-2.04842 -2.37286,-2.04842c0,0 -4.46778,0.07268 -4.63191,-0.24975c-1.14725,-2.25358 2.13625,-4.1139 3.50219,-4.97488c2.14057,-1.34925 3.89598,-0.71715 5.97399,-2.01002c3.09046,-1.92279 4.75703,-3.90074 4.75703,-3.90074c0,0 0.8303,-1.61602 0.9582,-2.14097c0.09657,-0.39637 -0.0041,-2.02575 0.79968,-3.34049c0.87458,-1.43055 2.83012,-2.58156 4.14189,-3.77227c2.77684,-2.52057 5.67541,-4.85516 6.78121,-4.85516c4.23055,0 -3.44835,10.90766 -3.44835,15.53073z" fill="#ffd5d5" stroke="#000000" stroke-width="1.5"/><path d="M217.58268,162.62693c0,0 -0.58125,1.08947 -1.58911,1.93553c-0.69753,0.58554 -1.72947,1.09232 -1.88836,1.13084c-1.13043,0.27402 -3.0699,0.35945 -6.37721,0.35945c-0.85729,0 0.05715,1.38069 -4.81014,1.18226c-0.72979,-0.02975 -2.30614,-1.73805 -2.30614,-1.73805c0,0 -3.06639,0.2687 -4.33435,-0.20759c-0.33256,-0.12492 -0.43037,-0.63621 -0.30837,-1.06756c0.17102,-0.60464 0.67236,-1.15381 0.67236,-1.15381c0,0 0.85166,0.51035 4.53214,0.51035c0.91293,0 1.30219,-1.8985 2.3688,-1.90079c0.42134,-0.0009 1.78673,0.00543 2.82018,0.36185c1.23197,0.42487 2.12526,1.21423 2.22028,1.24686c2.40682,0.82643 8.99991,-0.65935 8.99991,-0.65935z" fill="#fb95a9" stroke="none" stroke-width="0"/><path d="M207.85961,162.60442c0,0 -2.37444,-0.21059 -4.26437,-0.21059c-2.34867,0 -1.61209,4.96196 -1.61209,4.96196l-1.891,-1.52047c0,0 -0.16323,-2.40837 0.88323,-3.72747c0.79658,-1.00411 2.73692,-1.0228 3.39187,-0.94108c2.07923,0.25942 3.49236,1.43765 3.49236,1.43765z" fill="#000000" stroke="none" stroke-width="0"/><path d="M211.1314,152.97834l-2.33751,6.19124l-0.12635,-3.79055z" fill="#000000" stroke="none" stroke-width="0"/></g><g fill="#ffd5d5" stroke-linecap="butt"><path d="M253.94958,145.66888c0,2.21067 -4.51148,4.6486 -4.99822,6.61256c-0.3485,1.40617 0.4036,8.22142 -0.88049,9.01861c-2.15177,1.33587 -15.66193,0.7284 -18.69314,0.7284c-4.15781,0 0.46716,-4.75722 -2.40533,-7.33006c-2.18956,-1.96117 -4.63084,-4.3399 -4.85989,-7.14774c-0.15342,-1.03601 0.70135,-3.50265 1.97118,-5.03194c2.65197,-3.19383 7.1143,-5.66085 7.98427,-6.04894c3.69647,-1.64896 5.14276,-0.46309 5.40284,-0.98163c2.06757,-4.12214 10.18788,-6.81376 12.59919,-3.86227c1.58822,1.94401 3.87959,11.45668 3.87959,14.04301z" stroke="#000000" stroke-width="2"/><path d="M233.95798,151.81498c0,0.2559 -1.35839,-5.12951 4.22558,-6.95539c4.16344,-1.36139 8.29185,4.21031 8.29185,4.21031c0,0 0.90978,-2.46188 1.57561,-2.98741c0.72366,-0.57118 1.97555,-1.57762 1.97555,-1.57762c0,0 2.26174,1.80522 2.10836,2.8435c-0.08574,0.5804 -2.9505,2.85725 -2.9505,2.85725c0,0 -0.76513,3.98227 -1.36799,4.06688c-0.03752,0.00527 0.79269,4.13245 0.34354,5.65555c-0.54781,1.85768 -2.85519,1.28168 -3.45604,1.26733c-2.90972,-0.06946 -13.32558,2.35064 -16.31172,0.67209c-0.63363,-0.35617 -0.97742,-5.13627 0.03616,-6.86773c0.76102,-1.30004 2.90736,0.28992 2.84464,0.28992c-3.22742,0 -6.52818,-1.80857 -7.63376,-5.42259c-0.91861,-3.00283 -0.17099,-5.29696 3.0535,-5.15937c3.70124,0.15794 7.26523,3.96709 7.26523,7.10728z" stroke="none" stroke-width="0"/><path d="M227.95627,162.60755c-0.74203,0 7.53537,0.42812 6.3723,-2.72453c-0.41702,-1.1304 -1.1592,-5.08571 -1.28997,-6.24656c-0.36198,-3.21328 0.12968,-6.08584 0.12968,-6.08584c0,0 1.01467,2.49438 2.5531,5.19596c0.2561,0.44974 -1.8783,0.71528 -2.0618,2.09869c-0.249,1.87718 1.41162,4.97138 1.83491,5.53883c1.18228,1.58493 11.09184,-1.1294 11.95316,0.42085c0.78675,1.41603 -17.74683,1.80259 -19.49138,1.80259z" stroke="none" stroke-width="0"/></g><path d="M228.13142,166.36695v-10.75h22.5v10.75c0,0 -5.99233,0 -10.20608,0c-0.41625,0 -1.55853,-0.36048 -2.09222,-0.9537c-0.45866,-0.50982 -0.34528,-1.26505 -0.34528,-1.26505c0,0 -0.13384,0.6438 -0.61726,1.17966c-0.5163,0.57231 -1.4006,1.03909 -1.94524,1.03909c-3.41864,0 -7.29392,0 -7.29392,0z" fill="#ffd5d5" stroke="none" stroke-width="NaN" stroke-linecap="butt"/><g stroke-linecap="butt"><path d="M260.28581,144.45292c0.36699,1.64886 2.84461,13.24984 6.21059,16.39682c3.57518,3.34258 6.81137,2.61563 9.9473,3.92267c2.08137,0.8675 2.97919,1.47667 3.24072,3.20355c0.18692,1.23428 -0.66231,1.86879 -1.45122,2.2378c-1.03777,0.4854 -4.23611,0.42236 -4.23611,0.42236c0,0 -0.08103,1.90621 -3.43218,1.88761c-0.71643,-0.00397 -1.58882,-0.40922 -2.40433,-0.69435c-0.42707,-0.14932 -0.92879,-0.6267 -1.2941,-0.63526c-0.24149,-0.00565 -1.08851,0.47311 -1.3218,0.52625c-0.67865,0.15456 -1.29778,0.355 -2.05041,0.31313c-1.03036,-0.05731 -1.9054,-0.76909 -2.77062,-0.82042c-2.25293,-0.13367 -3.24983,0.35156 -3.6676,0.27099c-0.5402,-0.10419 -3.86606,0.68108 -4.2632,0.42698c-0.22314,-0.14278 -0.73117,-1.0882 0.01203,-1.89649c1.11055,-1.20783 2.66386,-2.41818 2.75889,-4.56955c0.11102,-2.51299 -1.21278,-4.43618 -1.21876,-5.69599c-0.01412,-2.97601 0.16012,-5.18223 -0.27481,-5.7492c-2.27389,-4.71374 -5.26885,-5.80891 -5.49448,-10.17868c-0.20945,-4.09435 2.30945,-9.41479 5.92273,-9.63432c5.19935,-0.31588 4.89667,6.2643 5.78736,10.26608z" fill="#ffd5d5" stroke="#000000" stroke-width="1.5"/><path d="M274.20966,169.80776c0,0 -1.48402,1.92236 -3.02343,2.0126c-1.1719,0.0687 -1.86867,-0.53762 -3.15523,-0.83681c-0.42142,-0.098 -0.81587,-0.52405 -1.40129,-0.52162c-0.43401,0.0018 -0.97246,0.45634 -1.42965,0.55513c-0.47562,0.10277 -0.96097,0.21122 -1.45022,0.228c-0.90317,0.03099 -2.36115,-0.93287 -3.25413,-0.91287c-0.90147,0.02019 -6.98419,0.89258 -7.75492,0.9628c-0.54565,0.04971 3.31633,-5.15632 3.31633,-5.63879c0,-0.38277 -1.22713,-4.85975 -1.22713,-4.85975l1.95167,3.36123c0,0 3.21197,4.33337 5.42799,5.56313c0.88995,0.49387 3.19858,-0.77044 4.22936,-0.77044c2.78212,0 2.77195,1.93992 3.64063,1.87392c1.6113,-0.12243 3.34003,-0.82889 3.34003,-0.82889l-0.55088,-2.84128c0,0 1.62249,0.44866 2.45499,0.55138c1.01349,0.12505 3.55148,0.23542 3.55148,0.23542c0,0 -0.01166,1.25109 -0.76402,1.57737c-0.67385,0.29224 -3.90159,0.28946 -3.90159,0.28946z" fill="#fb95a9" stroke="none" stroke-width="0"/><path d="M272.81978,171.19762c0,0 -0.02251,-2.96927 -1.8321,-3.47467c-1.37781,-0.38482 -3.98008,0.18953 -3.98008,0.18953c0,0 0.9856,-1.02801 2.00454,-1.37664c1.00013,-0.34219 2.28046,-0.25944 2.92677,-0.09011c1.222,0.32017 2.5389,3.45707 2.5389,3.45707z" fill="#000000" stroke="none" stroke-width="0"/><path d="M262.38793,171.18781l-1.48915,0.1805l-0.99277,-1.89527z" fill="#000000" stroke="none" stroke-width="0"/></g><g stroke-linecap="butt"><g><path d="M220.82836,122.48124c-0.13342,3.66114 -2.64419,6.5415 -5.60797,6.43349c-2.96377,-0.10801 -5.25823,-3.1635 -5.12481,-6.82464c0.13342,-3.66114 2.6442,-6.54151 5.60798,-6.4335c2.96377,0.10801 5.25822,3.16351 5.1248,6.82464z" fill="#fb95a9" stroke="#000000" stroke-width="2"/><path d="M234.18776,138.92342c-9.50033,1.05275 -26.1167,-1.10811 -26.84388,-5.4445c-0.6601,-4.01716 7.35899,-7.7884 7.35899,-7.7884c0,0 -1.18529,-10.16165 -0.84937,-11.79708c2.05923,-10.02542 9.36155,-7.9061 23.54523,-4.99276c14.18368,2.91334 28.80946,4.43814 26.75023,14.46356c-2.05923,10.02541 -4.84624,12.77613 -29.96121,15.55918z" fill="#ffd5d5" stroke="#000000" stroke-width="2"/><path d="M262.4106,116.12772c0,0 1.34726,5.2452 0.8723,7.70765c-0.49448,2.5636 -3.78297,7.38269 -3.78297,7.38269l-4.02948,0.11061c0,0 -6.44242,-4.0581 -8.78035,-6.55783c-2.19268,-2.34443 -4.83942,-8.00455 -4.83942,-8.00455l-7.02687,7.02401l-5.36846,-7.19935c0,0 -5.08991,0.07312 -7.56982,1.43308c-2.17728,1.194 -6.31394,6.33609 -6.31394,6.33609c0,0 -1.26967,-8.46332 -0.85062,-10.50348c0.95941,-4.67092 3.95584,-10.76109 15.46228,-8.39766c6.07287,1.24737 32.22734,10.66875 32.22734,10.66875z" fill="#fb95a9" stroke="none" stroke-width="0"/><path d="M270.26266,127.09229c-0.77062,3.75178 -6.00445,6.61355 -7.94117,6.21574c-1.93673,-0.39781 -2.28152,-3.54548 -1.63801,-6.67843c0.64351,-3.13295 7.4882,-6.65532 8.8031,-5.17877c1.64015,1.84177 1.41959,2.50851 0.77608,5.64146z" fill="#ffd5d5" stroke="#000000" stroke-width="2.5"/><path d="M262.38782,132.46173c-1.65191,-0.3393 -1.248,-1.77388 -0.8268,-3.82453c0.2636,-1.28335 3.35183,-2.58584 5.62599,-3.38088c1.35969,-0.47534 2.26027,0.33959 1.79922,1.67884c-0.37597,1.09208 -0.94674,2.33736 -1.78001,3.25949c-1.33472,1.47706 -4.12719,2.40905 -4.81839,2.26708z" fill="#fb95a9" stroke="none" stroke-width="0"/><path d="M267.54981,124.60022c-0.1287,0.62659 -6.13261,7.87713 -6.13261,7.87713l-0.50177,-2.79035c0,0 6.76307,-5.71336 6.63437,-5.08677z" fill="#000000" stroke="none" stroke-width="0"/><path d="M263.2322,133.50978c-0.50257,1.48756 -3.60901,2.63732 -4.35296,3.02944c-0.23327,0.12295 1.77719,2.10088 1.77719,2.10088c0,0 -1.23506,0.32044 -3.13899,-0.13469c-1.37865,-0.32957 -2.62695,-1.51203 -2.83602,-1.80992c-1.34125,-1.91104 -0.0078,-5.34579 0.20997,-5.86767c1.23719,-2.9647 3.45937,-2.09885 5.49667,-1.47463c2.03731,0.62422 3.4423,2.38608 2.84414,4.15659z" fill="#6d0f0a" stroke="#000000" stroke-width="2"/><path d="M286.70257,126.59937c0,0 -2.92426,3.73252 -10.52058,6.87201c-3.7096,1.53315 -7.87544,-0.98578 -7.87544,-0.98578c0,0 2.25523,-2.54476 2.93551,-5.51731c0.63364,-2.76878 -0.28472,-5.97532 -0.78184,-6.09038c-3.41544,-0.79045 -1.69999,-0.22172 -4.12268,0.05877c-1.37595,0.1593 -3.50168,6.13809 -3.50168,6.13809l2.1452,-0.22721c0,0 -0.69912,2.91787 -1.69227,3.50436c-1.65661,0.97826 -2.9452,1.30785 -5.78981,1.15582c-4.02483,-0.21508 -0.64736,-7.90852 -0.64736,-7.90852c0,0 -4.77876,-3.20462 -6.93195,-5.19296c-2.38357,-2.2011 -6.37477,-7.36352 -6.37477,-7.36352c0,0 -2.76234,1.05611 -4.69002,3.35978c-2.26716,2.70936 -4.54846,5.62684 -4.54846,5.62684c0,0 -0.48996,-0.55693 -0.56556,-4.1728c-0.02921,-1.39705 -0.17218,-4.2491 -0.0699,-5.42439c0.10167,-1.16833 -1.27248,1.19749 -2.01321,2.45165c-0.80469,1.36244 -1.48686,4.47559 -1.48686,4.47559c0,0 -3.15325,-0.32124 -4.44857,-3.1328c-1.25131,-2.71604 -1.58991,-6.7083 -1.58991,-6.7083c0,0 -5.67545,2.9304 -9.33172,6.5547c-2.95627,2.93045 -9.13138,9.7514 -9.13138,9.7514c0,0 -1.52793,-5.93272 -0.41228,-12.12549c0.24409,-1.35488 0.75475,-2.93281 1.13462,-4.10434c1.53501,-4.73404 7.38397,-6.7527 13.60453,-5.50295c5.72322,1.14985 13.53486,2.72968 22.43314,4.55739c9.60952,1.9738 32.6238,4.38015 32.6238,4.38015c0,0 1.09166,9.60079 3.08344,11.99898c1.97598,2.37919 8.56603,3.57126 8.56603,3.57126z" fill="#6d0f0a" stroke="#000000" stroke-width="1.5"/><path d="M230.97108,107.36729c-4.40629,-0.90506 -14.38888,-4.07701 -14.38888,-4.07701l-7.21209,5.15123l-2.61645,0.17045l2.21718,-6.59108c0,0 3.06569,-1.38255 8.98922,-1.01867c5.59424,0.34365 14.24274,2.47133 22.51517,4.1705c12.8921,2.64804 34.98891,4.33717 34.98891,4.33717c0,0 -0.65763,2.6162 -0.83836,3.9643c-0.16917,1.26181 0.09581,3.94609 0.09581,3.94609c0,0 -17.60361,-4.6754 -33.49841,-8.5091c-1.10054,-0.26543 -3.73947,-1.67483 -5.8669,-1.95534c-1.96365,-0.25892 -3.42462,0.60878 -4.38521,0.41147z" fill="#6d0f0a" stroke="none" stroke-width="0"/><path d="M236.10065,135.89033c-1.06869,-0.06789 -2.01796,-0.94313 -2.89694,-1.53375c-1.56005,-1.04826 -2.71645,-2.08697 -2.62691,-2.44938c0.09384,-0.37985 8.99041,-1.10265 9.13122,-0.75797c0.09151,0.22401 -0.37152,1.44442 -1.04588,2.65366c-0.59777,1.07189 -1.32192,2.16619 -2.56149,2.08744z" fill="#ef3d61" stroke="#000000" stroke-width="1.5"/><path d="M254.66036,117.55552c0,0 -0.90877,1.94227 -1.54672,2.57459c-0.58642,0.58124 -2.16061,1.18213 -2.16061,1.18213c0,0 -1.0455,0.69368 -1.24381,0.93842c-0.27372,0.33778 -0.27073,7.51755 -5.37148,6.41115c-6.22763,-1.35081 -4.36702,-9.65728 -4.36702,-9.65728c0,0 -0.70656,-0.19665 -1.32574,-0.17365c-0.87166,0.03238 -3.38264,0.2121 -3.38264,0.2121c0,0 3.47076,-2.51184 7.8406,-1.61427c1.66933,0.34288 4.19982,0.91195 4.19982,0.91195c0,0 1.63114,-0.57762 2.34358,-1.05123c0.74498,-0.49525 2.28168,-2.02218 2.28168,-2.02218c0,0 -0.90126,2.19788 -1.37618,2.94225c-0.45537,0.71371 -0.90757,1.39718 -0.90757,1.39718c0,0 1.35611,0.19834 2.23723,-0.19683c0.95739,-0.42936 2.77887,-1.85434 2.77887,-1.85434z" fill="#000000" stroke="none" stroke-width="0"/></g><path d="M205.86063,106.85486c0,0 1.67461,-3.71175 2.34432,-5.13777c1.0247,-2.18191 2.20687,-2.66159 2.20687,-2.66159c0,0 -1.23368,2.4673 -1.74735,3.70966c-0.53717,1.2992 -1.40836,3.9226 -1.40836,3.9226z" fill="#000000" stroke="none" stroke-width="0"/></g><path d="M235.3078,148.03362c0,3.40575 -2.94746,6.16666 -6.58334,6.16666c-3.63587,0 -6.58334,-2.76091 -6.58334,-6.16666c0,-3.40575 2.94746,-6.16667 6.58334,-6.16667c3.63587,0 6.58334,2.76091 6.58334,6.16667z" fill="#ffd5d5" stroke="#000000" stroke-width="1.5" stroke-linecap="butt"/><path d="M249.79589,147.73808c0,3.38488 -3.16866,6.12887 -7.07738,6.12887c-3.90873,0 -7.07738,-2.74399 -7.07738,-6.12887c0,-3.38488 3.16865,-6.12886 7.07738,-6.12886c3.90873,0 7.07738,2.74398 7.07738,6.12886z" fill="#ffd5d5" stroke="#000000" stroke-width="1.5" stroke-linecap="butt"/><path d="M227.47446,148.53362c0,0 -3.30896,-2.87316 -3.19242,-4.18424c0.10433,-1.17369 2.35908,-2.94076 2.35908,-2.94076l21,-2.20834l0.16667,9.33334c0,0 -7.11012,-0.08444 -11.1588,-0.42643c-0.55526,-0.0469 -0.39881,-1.40691 -0.84119,-1.40691c-0.49347,0 -0.72128,1.21783 -1.31372,1.30305c-2.95412,0.42496 -7.01962,0.53028 -7.01962,0.53028z" fill="#ffd5d5" stroke="none" stroke-width="0" stroke-linecap="butt"/><path d="M232.89086,165.03673c-1.92156,4.28313 -16.02857,1.51889 -21.82339,-1.08087c-5.79482,-2.59976 -10.70154,-8.12186 -8.77998,-12.40499c1.92156,-4.28313 9.94376,-5.70535 15.73857,-3.10559c5.79482,2.59976 16.78636,12.30832 14.86479,16.59145z" fill="#ffd5d5" stroke="#000000" stroke-width="1.5" stroke-linecap="butt"/><path d="M256.73,148.04774c5.26801,-3.54778 13.41522,-3.51117 16.03749,0.38257c2.62227,3.89375 -1.27339,10.17016 -6.5414,13.71794c-5.26801,3.54778 -18.69904,8.67186 -21.32131,4.77811c-2.62227,-3.89375 6.55721,-15.33085 11.82522,-18.87862z" data-paper-data="{&quot;index&quot;:null}" fill="#ffd5d5" stroke="#000000" stroke-width="1.5" stroke-linecap="butt"/><g stroke-linecap="butt"><path d="M226.64725,168.60511c3.19434,6.05662 3.30121,16.12641 0.05262,18.0544c-3.28107,1.94727 -12.49139,-2.64562 -15.68574,-8.70225c-3.19434,-6.05662 -1.94397,-12.25931 2.49242,-14.59911c4.43638,-2.33981 9.73533,-1.11683 12.92968,4.93977z" fill="#ee1536" stroke="#000000" stroke-width="1.5"/><path d="M223.65824,165.79685c0,0 -0.67432,1.83798 -2.01201,3.89041c-1.4836,2.27631 -3.96692,4.62238 -5.85233,4.88476c-3.5854,0.49896 -5.56778,-0.96786 -5.56778,-0.96786c0,0 -0.76157,-1.88096 -0.28388,-3.75221c0.27733,-1.08641 1.16866,-3.28263 2.73038,-4.55607c2.29773,-1.87358 5.54705,-2.67061 6.33734,-2.53613c2.35611,0.40095 4.64828,3.03708 4.64828,3.03708z" fill="#9a1652" stroke="none" stroke-width="0"/><path d="M218.20881,156.52691c0.57395,3.10589 0.76753,8.69987 0.76753,8.69987c0,0 2.3761,1.57638 3.91563,4.53172c0.848,1.62788 1.55382,8.60699 -2.54283,8.54095c-8.37758,-0.13508 -7.83734,-8.24852 -7.83734,-8.24852c0,0 -9.36389,-6.14446 -11.27664,-14.0322c-0.5717,-2.35758 0.43053,-8.18332 5.30346,-8.87059c8.33425,-1.17547 10.37855,2.38906 11.67019,9.37879z" fill="#ffd5d5" stroke="#000000" stroke-width="1.5"/><path d="M211.25627,158.62206c-0.91368,0.73949 -1.34808,0.34622 -2.0544,-0.03702c-0.76,-0.41235 -2.55627,-2.64726 -2.55627,-2.64726c0,0 2.41825,-1.10688 3.40193,-1.81805c0.9996,-0.72268 2.7269,-2.3494 2.7269,-2.3494c0,0 0.02282,2.92884 -0.25299,4.12801c-0.22857,0.99378 -0.35146,1.98421 -1.26514,2.7237z" fill="#fb95a9" stroke="none" stroke-width="0"/><path d="M223.22445,184.17468c-1.07752,0.16945 -2.03454,-0.13121 -2.99226,-0.56399c-0.88241,-0.39873 -2.54475,-1.66292 -2.54869,-2.41269c-0.00196,-0.37079 2.09115,1.26019 3.05692,1.69658c0.87064,0.39342 3.11879,1.18025 2.48404,1.28008z" fill="#fc9ea5" stroke="none" stroke-width="0"/></g><g stroke-linecap="butt"><path d="M264.80618,174.50137c-3.58492,5.83394 -12.19604,11.05512 -15.50991,9.24161c-3.34699,-1.83165 -4.08603,-12.09706 -0.50109,-17.931c3.58492,-5.83394 9.55954,-7.91738 13.8328,-5.29147c4.27326,2.6259 5.91997,7.80886 2.33504,13.64279z" fill="#ee1536" stroke="#000000" stroke-width="1.5"/><path d="M265.70032,170.49874c0,0 -1.92515,0.35593 -4.37274,0.25022c-2.71458,-0.11723 -5.99838,-1.05926 -7.18454,-2.54809c-2.25567,-2.83126 -2.00316,-5.28434 -2.00316,-5.28434c0,0 1.23073,-1.61347 3.08435,-2.15555c1.07618,-0.31472 3.42014,-0.66639 5.31148,0.02891c2.7827,1.02295 5.12368,3.41318 5.41051,4.16177c0.8551,2.23179 -0.24587,5.54707 -0.24587,5.54707z" fill="#9a1652" stroke="none" stroke-width="0"/><path d="M270.90178,161.08743c-2.38042,2.07594 -7.09571,5.09193 -7.09571,5.09193c0,0 -0.14624,2.8477 -1.90527,5.67789c-0.96893,1.55894 -6.61529,5.72125 -8.64514,2.16224c-4.15102,-7.27812 3.10617,-10.94595 3.10617,-10.94595c0,0 0.51794,-11.18787 6.33144,-16.85164c1.7376,-1.69286 7.26146,-3.79781 10.33499,0.04549c5.25673,6.57328 3.23061,10.14816 -2.12649,14.82002z" fill="#ffd5d5" stroke="#000000" stroke-width="1.5"/><path d="M265.55742,156.17163c-1.10177,-0.4096 -0.98462,-0.98374 -1.01459,-1.78678c-0.03226,-0.86405 0.97601,-3.54823 0.97601,-3.54823c0,0 2.1843,1.5172 3.29735,2.00146c1.13106,0.49209 3.41077,1.14993 3.41077,1.14993c0,0 -2.5088,1.51149 -3.68123,1.88497c-0.97161,0.30951 -1.88652,0.70824 -2.9883,0.29864z" fill="#fb95a9" stroke="none" stroke-width="0"/><path d="M249.66434,179.48652c-0.69468,-0.84095 -0.9234,-1.81767 -1.03882,-2.86226c-0.10635,-0.96246 0.13481,-3.03692 0.77801,-3.42222c0.31808,-0.19056 -0.01928,2.44144 0.09712,3.49482c0.10493,0.94963 0.57293,3.28505 0.16371,2.78965z" fill="#fc9ea5" stroke="none" stroke-width="0"/></g><g fill="none" stroke-width="0.5" stroke-linecap="round"><path d="M237.22716,155.51249c0,0 -0.48503,-0.66851 -0.46601,-0.98021c0.01156,-0.18947 0.32061,-0.51325 0.47947,-0.66786c0.05532,-0.05383 0.09242,-0.08715 0.09242,-0.08715" stroke="#000000"/><path d="M236.98719,155.05274c0,0 -0.17495,-0.34468 -0.16809,-0.50539c0.00562,-0.13171 0.20628,-0.38928 0.20628,-0.38928" stroke="#fb95a9"/></g><path d="M239.10351,161.54903c0,0.05676 -0.00043,0.20545 -0.00128,0.2609c-0.03714,2.43417 -0.78326,3.51973 -1.23322,3.51973c-0.34347,0 -1.04706,-0.57008 -1.28797,-2.01258c-0.08188,-0.49028 -0.06998,-1.3377 -0.06998,-1.98409c0,-1.15521 0.27586,-2.3829 0.72156,-3.14373c0.53744,-0.91744 0.94032,-1.53191 1.1919,-1.53191c0.21317,0 0.63019,0.75184 0.68513,1.48093c0.05165,0.68533 -0.01621,1.54121 -0.00872,2.59335c0.00175,0.24501 0.00256,0.55903 0.00256,0.81739z" fill="#ffd5d5" stroke="#000000" stroke-width="0.5" stroke-linecap="butt"/><path d="M238.26987,162.19743c0,0.27997 -0.15155,0.52613 -0.12025,0.78815c0.03382,0.28308 0.2497,0.57943 0.22144,0.81034c-0.08747,0.7148 -0.42065,1.15151 -0.58557,1.15151c-0.1167,0 -0.05602,-0.18332 -0.18845,-0.52482c-0.12148,-0.31327 -0.44014,-0.75965 -0.46675,-1.31972c-0.01087,-0.22888 0.17083,-0.65707 0.17083,-0.90546c0,-0.33567 -0.20277,-0.60782 -0.1263,-0.97418c0.12034,-0.57655 0.20669,-1.23544 0.45693,-1.71902c0.17515,-0.33847 0.15386,-0.85175 0.34057,-1.01684c0.14397,-0.1273 0.51296,-0.22747 0.56318,-0.22747c0.18183,0 0.15,1.20628 0.01087,2.31582c-0.06556,0.52282 -0.2765,1.13523 -0.2765,1.62168z" fill="#fb95a9" stroke="#fa718d" stroke-width="0.5" stroke-linecap="butt"/><path d="M239.84421,156.74995c0,0.30681 -0.56652,0.55552 -1.26535,0.55552c-0.69884,0 -1.26535,-0.24872 -1.26535,-0.55552c0,-0.30681 0.56652,-0.55552 1.26535,-0.55552c0.69884,0 1.26535,0.24872 1.26535,0.55552z" fill="#ffd5d5" stroke="none" stroke-width="0" stroke-linecap="butt"/><path d="M465.50001,275.50001c0,-0.82843 0.44772,-1.5 1,-1.5c0.55228,0 1,0.67157 1,1.5c0,0.82843 -0.44772,1.5 -1,1.5c-0.55228,0 -1,-0.67157 -1,-1.5z" fill="#ffd5d5" stroke="none" stroke-width="0" stroke-linecap="butt"/><path d="M217.5168,122.128l-2.21714,-1.76364l3.26881,0.27598l-1.94732,-2.074l3.74648,1.19305c0,0 0.61968,0.00916 1.51997,-0.13335c1.88751,-0.29877 5.01691,-0.80694 6.31438,-0.25532c0.7767,0.33022 1.7474,1.03698 2.51208,1.95731c0.62684,0.75444 1.45406,1.72395 1.77902,2.64541c0.32174,0.91235 0.0261,1.64893 0.0261,1.64893c0,0 -1.33957,-1.26807 -3.08338,-1.76324c-1.57544,-0.44736 -3.16964,-1.06689 -4.40228,-1.26773c-2.59082,-0.42215 -7.51671,-0.4634 -7.51671,-0.4634z" fill="#000000" stroke="none" stroke-width="0" stroke-linecap="butt"/><path d="M235.42939,161.16667c0,1.78491 -0.12618,3.90932 -1.32342,4.80894c-0.67558,0.50764 -2.1466,0.24662 -3.00991,0.24662c-0.67109,0 -2.52876,-0.06686 -3.0958,-0.38456c-1.45515,-0.81528 -1.23753,-2.66182 -1.23753,-4.67099c0,-2.79211 -1.72657,-4.27778 0.66667,-4.27778c0.6028,0 1.615,0.79255 2.5852,1.36122c0.96456,0.56536 1.8889,0.90685 1.8889,0.90685c0,0 3.5259,0.62006 3.5259,2.00971z" fill="#ffd5d5" stroke="none" stroke-width="0" stroke-linecap="butt"/><path d="M251.20716,156.38889c0,1.78491 -2.01507,8.68711 -3.21231,9.58672c-0.67559,0.50764 -2.25771,0.57995 -3.12103,0.57995c-0.67109,0 -2.41765,-0.40019 -2.98469,-0.71789c-1.45515,-0.81528 -1.23753,-2.66182 -1.23753,-4.671c0,-2.7921 -0.50435,-0.38889 1.88889,-0.38889c1.2021,0 0.60233,-2.20876 2.14077,-1.50971c1.52439,0.69267 6.5259,-4.26883 6.5259,-2.87918z" fill="#ffd5d5" stroke="none" stroke-width="0" stroke-linecap="butt"/><path d="M229.41669,148.41668c0,1.61083 -1.19391,2.91667 -2.66667,2.91667c-1.47276,0 -2.66667,-1.30584 -2.66667,-2.91667c0,-1.61083 1.19391,-2.91667 2.66667,-2.91667c1.47276,0 2.66667,1.30584 2.66667,2.91667z" fill="#fb95a9" stroke="none" stroke-width="0" stroke-linecap="butt"/><path d="M248.41669,148.41668c0,1.79493 -1.49238,3.25 -3.33333,3.25c-1.84095,0 -3.33333,-1.45507 -3.33333,-3.25c0,-1.79493 1.49238,-3.25 3.33333,-3.25c1.84095,0 3.33333,1.45507 3.33333,3.25z" fill="#fb95a9" stroke="none" stroke-width="0" stroke-linecap="butt"/><path d="M225.91669,148.83335c0,0.46024 -0.3731,0.83333 -0.83333,0.83333c-0.46024,0 -0.83333,-0.3731 -0.83333,-0.83333c0,-0.46024 0.3731,-0.83333 0.83333,-0.83333c0.46024,0 0.83333,0.3731 0.83333,0.83333z" fill="#ff7c96" stroke="none" stroke-width="0" stroke-linecap="butt"/><path d="M247.25003,149.33335c0,0.36819 -0.33579,0.66667 -0.75,0.66667c-0.41421,0 -0.75,-0.29848 -0.75,-0.66667c0,-0.36819 0.33579,-0.66667 0.75,-0.66667c0.41421,0 0.75,0.29848 0.75,0.66667z" fill="#ff7c96" stroke="none" stroke-width="0" stroke-linecap="butt"/></g></g></svg>